<svg width="110" height="110" viewBox="0 0 110 110" fill="none" xmlns="http://www.w3.org/2000/svg">
<path fill-rule="evenodd" clip-rule="evenodd" d="M79.0757 74.8321H80.2115C80.7816 74.8321 81.2439 75.2851 81.2439 75.8439V79.8913C81.2439 80.4501 80.7816 80.9031 80.2115 80.9031H29.4191C28.849 80.9031 28.3867 80.4501 28.3867 79.8913V75.8439C28.3867 75.2851 28.849 74.8321 29.4191 74.8321H30.5549V74.832V62.6897V62.6895H29.4191C28.849 62.6895 28.3867 62.2365 28.3867 61.6776C28.3867 61.1188 28.849 60.6658 29.4191 60.6658H35.7167V30.1085C35.7167 29.5497 36.179 29.0967 36.7491 29.0967H72.8815C73.4516 29.0967 73.9139 29.5497 73.9139 30.1085V60.6659H80.2115C80.7816 60.6659 81.2439 61.1189 81.2439 61.6777C81.2439 62.2366 80.7816 62.6896 80.2115 62.6896H79.0757V62.6898V74.832V74.8321ZM73.9139 74.8321H77.011V62.6898V62.6896H73.9139V62.6898V74.832V74.8321ZM40.8776 62.6895H37.7814V62.6898V74.832V74.8321H40.8785V74.832V62.6897V62.6895H40.8776ZM46.0402 62.6895H42.9432V62.6898V74.832V74.8321H46.0402V74.832V62.6897V62.6895ZM51.202 62.6895H48.1049V62.6898V74.832V74.8321H51.202V74.832V62.6897V62.6895ZM56.3638 62.6895H53.2667V62.6898V74.832V74.8321H56.3638V74.832V62.6897V62.6895ZM61.5256 62.6895H58.4286V62.6898V74.832V74.8321H61.5256V74.832V62.6897V62.6895ZM66.6873 62.6895H63.5904V62.6898V74.832V74.8321H66.6873V74.832V62.6897V62.6895ZM68.753 62.6895H68.7521V62.6898V74.832V74.8321H71.8492V74.832V62.6897V62.6895H68.753ZM71.8492 31.1204H37.7814V60.6658H39.8462V34.156C39.8462 33.5971 40.3085 33.1441 40.8786 33.1441H59.4605H61.9561H68.752C69.322 33.1441 69.7843 33.5971 69.7843 34.156V60.6658H71.8492V31.1204ZM61.9561 35.1678H67.7196V60.6658H66.1883V60.6668H42.5175V60.6659H41.911V35.1678H59.4605H61.9561ZM35.7167 62.6895H32.6196V62.6898V74.832V74.8321H35.7167V74.832V62.6897V62.6895ZM30.4514 78.8794H79.1791V76.8558H30.4514V78.8794Z" fill="#1C379B"/>
</svg>
