<svg width="72" height="54" viewBox="0 0 72 54" fill="none" xmlns="http://www.w3.org/2000/svg">
<path d="M66.4663 50.2969V36.9199C66.8102 36.9026 67.1282 36.7261 67.3245 36.4369C67.5312 36.1325 67.5769 35.7444 67.4465 35.3991L65.3347 29.8054C65.1705 29.3708 64.7591 29.0838 64.2999 29.0838H48.6711V6.66198C48.6711 6.04189 48.1751 5.53913 47.5632 5.53913H33.2013C32.5895 5.53913 32.0934 6.04189 32.0934 6.66198V17.8408H26.6544V3.13554C26.6544 2.51545 26.1584 2.0127 25.5466 2.0127H21.114C20.5021 2.0127 20.0061 2.51545 20.0061 3.13554V17.8408H17.7891V3.13554C17.7891 2.51545 17.293 2.0127 16.6812 2.0127H12.2485C11.6366 2.0127 11.1406 2.51545 11.1406 3.13554V17.8408H7.73165C7.27258 17.8408 6.861 18.1278 6.6969 18.5623L4.58501 24.1561C4.4547 24.5012 4.5004 24.8893 4.70702 25.1939C4.90394 25.4837 5.22301 25.6605 5.56784 25.677V50.2951C4.95601 50.2951 4.45996 50.7978 4.45996 51.4179C4.45996 52.038 4.95601 52.5408 5.56784 52.5408H6.67571H33.2013H47.7248H65.3585H66.4317C67.0435 52.5408 67.5396 52.038 67.5396 51.4179C67.5396 50.8096 67.062 50.3156 66.4663 50.2969ZM22.2218 8.76732H24.4387V17.7968H22.2218V8.76732ZM24.4387 4.25839V6.52163H22.2218V4.25839H24.4387ZM13.3563 8.76732H15.5733V17.7968H13.3563V8.76732ZM15.5733 4.25839V6.52163H13.3563V4.25839H15.5733ZM63.5377 31.3295L64.8018 34.6776H64.3H48.6711V31.3295H63.5377ZM34.3092 7.78483H46.4554V50.2951H34.3092V24.5339V7.78483ZM23.2794 25.6568V32.3237H16.5976V25.6568H23.2794ZM32.0934 25.6568V32.3237H25.4952V25.6568H32.0934ZM32.0934 41.3415H25.4952V34.5693H32.0934V41.3415ZM14.3818 32.3237H7.78359V25.6775C7.84258 25.6747 7.90074 25.6685 7.95711 25.6568H14.3818V32.3237ZM7.78359 34.5693H14.3818V41.3415H7.78359V34.5693ZM16.5976 34.5693H23.2794V41.3415H16.5976V34.5693ZM23.2794 43.5872V50.2951H16.5976V43.5872H23.2794ZM25.4952 43.5872H32.0934V50.2951H25.4952V43.5872ZM8.49401 20.0865H32.0934V23.4112H24.5955C24.5279 23.3981 24.4585 23.3907 24.3872 23.3907C24.3159 23.3907 24.2465 23.3981 24.1789 23.4112H15.6978C15.6303 23.3981 15.5609 23.3907 15.4895 23.3907C15.4182 23.3907 15.3488 23.3981 15.2813 23.4112H7.23879L8.49401 20.0865ZM7.78359 43.5872H14.3818V50.2951H7.78359V43.5872ZM59.7845 50.2951H53.1141V44.7218H59.7845V50.2951ZM62.0002 50.2951V43.599C62.0002 42.9789 61.5042 42.4761 60.8923 42.4761H52.0062C51.3944 42.4761 50.8983 42.9789 50.8983 43.599V50.2951H48.8327V36.9233H64.2506V50.2951H62.0002Z" fill="#1C379B"/>
<path d="M38.8335 15.592C39.4453 15.592 39.9413 15.0893 39.9413 14.4692V12.2586C39.9413 11.6385 39.4453 11.1357 38.8335 11.1357C38.2216 11.1357 37.7256 11.6385 37.7256 12.2586V14.4692C37.7256 15.0893 38.2216 15.592 38.8335 15.592Z" fill="#1C379B"/>
<path d="M42.0932 15.592C42.705 15.592 43.2011 15.0893 43.2011 14.4692V12.2586C43.2011 11.6385 42.705 11.1357 42.0932 11.1357C41.4814 11.1357 40.9854 11.6385 40.9854 12.2586V14.4692C40.9854 15.0893 41.4814 15.592 42.0932 15.592Z" fill="#1C379B"/>
<path d="M38.8335 23.5207C39.4453 23.5207 39.9413 23.018 39.9413 22.3979V20.1873C39.9413 19.5672 39.4453 19.0645 38.8335 19.0645C38.2216 19.0645 37.7256 19.5672 37.7256 20.1873V22.3979C37.7256 23.018 38.2216 23.5207 38.8335 23.5207Z" fill="#1C379B"/>
<path d="M42.0932 23.5207C42.705 23.5207 43.2011 23.018 43.2011 22.3979V20.1873C43.2011 19.5672 42.705 19.0645 42.0932 19.0645C41.4814 19.0645 40.9854 19.5672 40.9854 20.1873V22.3979C40.9854 23.018 41.4814 23.5207 42.0932 23.5207Z" fill="#1C379B"/>
<path d="M38.8335 31.3293C39.4453 31.3293 39.9413 30.8266 39.9413 30.2065V27.9959C39.9413 27.3758 39.4453 26.873 38.8335 26.873C38.2216 26.873 37.7256 27.3758 37.7256 27.9959V30.2065C37.7256 30.8266 38.2216 31.3293 38.8335 31.3293Z" fill="#1C379B"/>
<path d="M42.0932 31.3293C42.705 31.3293 43.2011 30.8266 43.2011 30.2065V27.9959C43.2011 27.3758 42.705 26.873 42.0932 26.873C41.4814 26.873 40.9854 27.3758 40.9854 27.9959V30.2065C40.9854 30.8266 41.4814 31.3293 42.0932 31.3293Z" fill="#1C379B"/>
<path d="M38.8335 39.2581C39.4453 39.2581 39.9413 38.7553 39.9413 38.1352V35.9246C39.9413 35.3045 39.4453 34.8018 38.8335 34.8018C38.2216 34.8018 37.7256 35.3045 37.7256 35.9246V38.1352C37.7256 38.7553 38.2216 39.2581 38.8335 39.2581Z" fill="#1C379B"/>
<path d="M42.0932 39.2581C42.705 39.2581 43.2011 38.7553 43.2011 38.1352V35.9246C43.2011 35.3045 42.705 34.8018 42.0932 34.8018C41.4814 34.8018 40.9854 35.3045 40.9854 35.9246V38.1352C40.9854 38.7553 41.4814 39.2581 42.0932 39.2581Z" fill="#1C379B"/>
<path d="M38.8335 47.0706C39.4453 47.0706 39.9413 46.5678 39.9413 45.9477V43.7371C39.9413 43.117 39.4453 42.6143 38.8335 42.6143C38.2216 42.6143 37.7256 43.117 37.7256 43.7371V45.9477C37.7256 46.5679 38.2216 47.0706 38.8335 47.0706Z" fill="#1C379B"/>
<path d="M42.0932 47.0706C42.705 47.0706 43.2011 46.5678 43.2011 45.9477V43.7371C43.2011 43.117 42.705 42.6143 42.0932 42.6143C41.4814 42.6143 40.9854 43.117 40.9854 43.7371V45.9477C40.9854 46.5679 41.4814 47.0706 42.0932 47.0706Z" fill="#1C379B"/>
</svg>
