<svg width="64" height="64" viewBox="0 0 64 64" fill="none" xmlns="http://www.w3.org/2000/svg">
<path d="M60.3604 57.3182H58.9976V27.4934L59.7146 27.8279C59.8732 27.9019 60.0433 27.9384 60.2129 27.9384C60.4339 27.9384 60.6539 27.8764 60.8461 27.754C61.1858 27.5376 61.3917 27.1626 61.3917 26.7598V22.0255C61.3917 21.5676 61.1265 21.1511 60.7115 20.9574L56.6528 19.0633V11.4075C56.6528 10.7566 56.125 10.2289 55.4741 10.2289H48.4637C47.8128 10.2289 47.2851 10.7566 47.2851 11.4075V14.6921L25.3038 4.43481C24.9597 4.27422 24.5592 4.28925 24.2283 4.47517L3.06233 16.3636C2.69091 16.5723 2.46094 16.9651 2.46094 17.3912V22.1255C2.46094 22.5441 2.68296 22.9312 3.0442 23.1428C3.4056 23.3542 3.85185 23.3582 4.21678 23.1533L4.855 22.7948V57.3183H3.68861C3.03772 57.3183 2.51 57.8461 2.51 58.497C2.51 59.1479 3.03772 59.6756 3.68861 59.6756H6.03361H57.819H60.3604C61.0113 59.6756 61.539 59.1479 61.539 58.497C61.539 57.8461 61.0113 57.3182 60.3604 57.3182ZM49.6423 15.7507V12.5861H54.2954V17.9635L49.6403 15.7912C49.6407 15.7776 49.6423 15.7644 49.6423 15.7507ZM4.81817 18.081L24.8552 6.82666L59.0344 22.7763V24.9094L25.3038 9.16915C25.1456 9.0952 24.9754 9.05851 24.8056 9.05851C24.6061 9.05851 24.407 9.10919 24.2283 9.20952L4.81817 20.1117V18.081ZM7.21223 57.3182V21.5097C7.21223 21.4969 7.21075 21.4845 7.21031 21.4717L24.8552 11.5609L56.6404 26.3933V57.3182H7.21223Z" fill="#1C379B"/>
<path d="M29.5684 37.291H10.7597C10.1088 37.291 9.58105 37.8187 9.58105 38.4696V53.8009C9.58105 54.4518 10.1088 54.9795 10.7597 54.9795H29.5684C30.2193 54.9795 30.7471 54.4518 30.7471 53.8009V38.4696C30.7471 37.8187 30.2193 37.291 29.5684 37.291ZM11.9383 39.6482H18.9854V52.6223H11.9383V39.6482ZM28.3898 52.6223H21.3427V39.6482H28.3898V52.6223Z" fill="#1C379B"/>
<path d="M53.1409 37.291H34.2831C33.6322 37.291 33.1045 37.8187 33.1045 38.4696V53.8009C33.1045 54.4518 33.6322 54.9795 34.2831 54.9795H53.1409C53.7918 54.9795 54.3196 54.4518 54.3196 53.8009V38.4696C54.3196 37.8187 53.7918 37.291 53.1409 37.291ZM35.4617 39.6482H42.5334V52.6223H35.4617V39.6482ZM51.9623 52.6223H44.8906V39.6482H51.9623V52.6223Z" fill="#1C379B"/>
<path d="M53.6393 27.8533L34.867 19.0933C34.6906 19.0109 34.5047 18.976 34.3226 18.9834C33.6602 18.961 33.1045 19.4973 33.1045 20.1614V33.7891C33.1045 34.44 33.6322 34.9677 34.2831 34.9677H53.1409C53.7918 34.9677 54.3196 34.44 54.3196 33.7891V28.9215C54.3196 28.4634 54.0544 28.0471 53.6393 27.8533ZM35.4617 21.9721L42.5334 25.272V32.6104H35.4617V21.9721ZM51.9623 32.6105H44.8906V26.3721L51.9623 29.6721V32.6105Z" fill="#1C379B"/>
<path d="M30.742 17.8221C30.7406 17.8047 30.7385 17.7876 30.7364 17.7703C30.7339 17.7506 30.731 17.7309 30.7275 17.7113C30.7238 17.6911 30.7197 17.6711 30.7149 17.6512C30.7111 17.6351 30.7071 17.6192 30.7026 17.6033C30.6965 17.5815 30.6899 17.5601 30.6825 17.5388C30.6777 17.5245 30.6724 17.5103 30.6669 17.4962C30.6587 17.475 30.6501 17.4542 30.6407 17.4336C30.6341 17.4191 30.6271 17.4048 30.6199 17.3905C30.6103 17.3717 30.6006 17.3531 30.59 17.3348C30.581 17.3191 30.5716 17.3038 30.5619 17.2884C30.5518 17.2727 30.5417 17.2572 30.5309 17.242C30.5191 17.2252 30.5068 17.2089 30.4939 17.1927C30.4838 17.1797 30.4735 17.167 30.4629 17.1545C30.4486 17.1377 30.4337 17.1215 30.4182 17.1055C30.4073 17.0941 30.3964 17.0831 30.3851 17.0722C30.3693 17.057 30.353 17.0423 30.3363 17.0278C30.3233 17.0168 30.3102 17.006 30.297 16.9954C30.2812 16.983 30.2653 16.9711 30.2489 16.9595C30.2323 16.9477 30.2154 16.9365 30.1981 16.9256C30.1838 16.9166 30.1695 16.9077 30.1548 16.8992C30.1339 16.8871 30.1124 16.8759 30.0906 16.8652C30.0825 16.8612 30.0751 16.8565 30.067 16.8526L25.9909 14.9507C25.5852 14.7613 25.1265 14.8229 24.7903 15.0719C24.7693 15.0822 24.7481 15.0917 24.7273 15.1033L10.1826 23.2727C9.78982 23.4934 9.57266 23.9053 9.5815 24.3264C9.5815 24.3293 9.58105 24.3321 9.58105 24.3351V33.7886C9.58105 34.4395 10.1088 34.9672 10.7597 34.9672H29.5684C30.2193 34.9672 30.7471 34.4395 30.7471 33.7886V17.9208C30.7471 17.9115 30.7459 17.9025 30.7457 17.8932C30.7451 17.8695 30.7441 17.8458 30.742 17.8221ZM11.9383 24.9901L18.9854 21.0319V32.6098H11.9383V24.9901ZM21.3427 32.6098V19.7078L25.5486 17.3455L28.39 18.6714V32.6097H21.3427V32.6098Z" fill="#1C379B"/>
</svg>
