<svg width="110" height="110" viewBox="0 0 110 110" fill="none" xmlns="http://www.w3.org/2000/svg">
<path d="M69.7694 29.2453H40.231C39.7515 29.2453 39.3623 29.6299 39.3623 30.1038V79.8962C39.3623 80.3701 39.7515 80.7547 40.231 80.7547H69.7693C70.2488 80.7547 70.638 80.3701 70.638 79.8962V30.1038C70.6381 29.6299 70.2489 29.2453 69.7694 29.2453ZM68.9005 79.0378H41.0999V30.9623H68.9006L68.9005 79.0378Z" fill="#1C379B"/>
<path d="M65.8832 33.5695H44.1167C43.6546 33.5695 43.2796 33.947 43.2796 34.4121V79.9121C43.2796 80.3771 43.6546 80.7546 44.1167 80.7546H65.8833C66.3454 80.7546 66.7205 80.3771 66.7205 79.9121V34.4121C66.7205 33.947 66.3454 33.5695 65.8832 33.5695ZM65.0461 79.0695H44.9539V35.2548H65.0461V79.0695Z" fill="#1C379B"/>
<path d="M79.2781 79.0695H30.7219C30.2598 79.0695 29.8848 79.4469 29.8848 79.912C29.8848 80.3771 30.2598 80.7547 30.7219 80.7547H79.278C79.7401 80.7547 80.1152 80.3772 80.1152 79.9121C80.1152 79.447 79.7402 79.0695 79.2781 79.0695Z" fill="#1C379B"/>
<path d="M62.0339 37.5281H47.9666C47.5352 37.5281 47.1851 37.8805 47.1851 38.3146V53.2596C47.1851 53.6937 47.5352 54.0461 47.9666 54.0461H62.0339C62.4653 54.0461 62.8154 53.6937 62.8154 53.2596V38.3146C62.8154 37.8805 62.4653 37.5281 62.0339 37.5281ZM61.2524 52.473H48.7481V39.1012H61.2523L61.2524 52.473Z" fill="#1C379B"/>
<path d="M61.9797 60.3418H48.0207C47.5927 60.3418 47.2452 60.6914 47.2452 61.1223V75.952C47.2452 76.3829 47.5927 76.7325 48.0207 76.7325H61.9797C62.4077 76.7325 62.7551 76.3829 62.7551 75.952V61.1223C62.7551 60.6914 62.4077 60.3418 61.9797 60.3418ZM61.2042 75.1716H48.7962V61.9027H61.2041L61.2042 75.1716Z" fill="#1C379B"/>
<path fill-rule="evenodd" clip-rule="evenodd" d="M68.9005 79.0378L68.9006 30.9623H41.0999V79.0378L43.2796 79.0378V34.4121C43.2796 33.947 43.6546 33.5695 44.1167 33.5695H65.8832C66.3454 33.5695 66.7205 33.947 66.7205 34.4121V79.0378L68.9005 79.0378ZM66.8914 78.8662H68.7296L68.7297 31.1339H41.2708V78.8662H43.1087V34.4121C43.1087 33.8527 43.5599 33.398 44.1167 33.398H65.8832C66.4402 33.398 66.8914 33.8527 66.8914 34.4121V78.8662ZM39.3623 30.1038C39.3623 29.6299 39.7515 29.2453 40.231 29.2453H69.7694C70.2489 29.2453 70.6381 29.6299 70.638 30.1038V79.0695H79.2781C79.7402 79.0695 80.1152 79.447 80.1152 79.9121C80.1152 80.3772 79.7401 80.7547 79.278 80.7547L69.7767 80.7547L69.7693 80.7547H40.231L40.2236 80.7547L30.7219 80.7547C30.2598 80.7547 29.8848 80.3771 29.8848 79.912C29.8848 79.4469 30.2598 79.0695 30.7219 79.0695H39.3623V30.1038ZM39.1914 78.8979V30.1038C39.1914 29.5326 39.6597 29.0737 40.231 29.0737H69.7694C70.3407 29.0737 70.809 29.5326 70.8089 30.1038V78.8979H79.2782C79.8351 78.8979 80.2861 79.3527 80.2861 79.9121C80.2861 80.4715 79.8349 80.9263 79.2781 80.9263H69.7773C69.7747 80.9263 69.772 80.9263 69.7693 80.9263H40.231C40.2283 80.9263 40.2256 80.9263 40.223 80.9263H30.7219C30.165 80.9263 29.7139 80.4714 29.7139 79.912C29.7139 79.3526 30.165 78.8979 30.7219 78.8979H39.1914ZM65.0461 35.2548H44.9539V79.0378H65.0461V35.2548ZM64.8752 78.8662V35.4263H45.1248V78.8662H64.8752ZM47.9666 37.3565H62.0339C62.5601 37.3565 62.9863 37.7861 62.9863 38.3146V53.2596C62.9863 53.7881 62.5601 54.2177 62.0339 54.2177H47.9666C47.4404 54.2177 47.0142 53.7881 47.0142 53.2596V38.3146C47.0142 37.7861 47.4404 37.3565 47.9666 37.3565ZM48.919 52.3014H61.0815L61.0815 39.2728H48.919V52.3014ZM61.2523 39.1012L61.2524 52.473H48.7481V39.1012H61.2523ZM48.0207 60.1702H61.9797C62.5025 60.1702 62.926 60.5971 62.926 61.1223V75.9521C62.926 76.4772 62.5025 76.9041 61.9797 76.9041H48.0207C47.4979 76.9041 47.0743 76.4772 47.0743 75.9521V61.1223C47.0743 60.5971 47.4979 60.1702 48.0207 60.1702ZM48.9671 75H61.0333L61.0332 62.0743H48.9671V75ZM61.2041 61.9027L61.2042 75.1716H48.7962V61.9027H61.2041ZM62.0339 37.5281H47.9666C47.5352 37.5281 47.1851 37.8805 47.1851 38.3146V53.2596C47.1851 53.6937 47.5352 54.0461 47.9666 54.0461H62.0339C62.4653 54.0461 62.8154 53.6937 62.8154 53.2596V38.3146C62.8154 37.8805 62.4653 37.5281 62.0339 37.5281ZM48.0207 60.3418H61.9797C62.4077 60.3418 62.7551 60.6914 62.7551 61.1223V75.952C62.7551 76.3829 62.4077 76.7325 61.9797 76.7325H48.0207C47.5927 76.7325 47.2452 76.3829 47.2452 75.952V61.1223C47.2452 60.6914 47.5927 60.3418 48.0207 60.3418Z" fill="#1C379B"/>
<path d="M46.998 57.0614C46.998 56.5311 47.428 56.1012 47.9583 56.1012H51.1591C51.6894 56.1012 52.1193 56.5311 52.1193 57.0614C52.1193 57.5917 51.6894 58.0216 51.1591 58.0216H47.9583C47.428 58.0216 46.998 57.5917 46.998 57.0614Z" fill="#1C379B"/>
</svg>
