<svg width="110" height="110" viewBox="0 0 110 110" fill="none" xmlns="http://www.w3.org/2000/svg">
<path fill-rule="evenodd" clip-rule="evenodd" d="M50.9421 29.5155L50.5366 29.948V34.8455V39.7428H41.4279C35.4387 39.7428 32.3193 39.7862 32.3193 39.8699C32.3193 39.9398 32.2311 39.997 32.1233 39.997C31.8711 39.997 31.5706 40.3031 31.5706 40.5599C31.5706 40.6698 31.5145 40.7596 31.4459 40.7596C31.3633 40.7596 31.3211 46.6067 31.3211 58.0466V75.3335H30.4363C29.5742 75.3335 29.5742 76.0784 29.5742 78.13C29.5742 80.294 29.5742 80.9264 30.4363 80.9264H54.9605C71.2266 80.9264 79.2721 80.821 79.5361 80.821C80.6931 80.821 80.6931 79.3455 80.6931 78.13C80.6931 76.7107 80.6931 75.3406 79.1154 75.3406L78.7359 75.3335V52.708C78.7359 37.709 78.6938 30.0824 78.6111 30.0824C78.5425 30.0824 78.4863 29.9925 78.4863 29.8827C78.4863 29.6258 78.1859 29.3197 77.9337 29.3197C77.8259 29.3197 77.7377 29.2625 77.7377 29.1926C77.7377 29.1086 73.2618 29.0684 64.5426 29.0743L51.3476 29.0829L50.9421 29.5155ZM76.7395 53.2164V75.3335H75.9908H75.2422V54.4875C75.2422 40.6749 75.2001 33.6415 75.1174 33.6415C75.0488 33.6415 74.9926 33.5516 74.9926 33.4418C74.9926 33.1849 74.6921 32.8788 74.44 32.8788C74.3322 32.8788 74.2439 32.8216 74.2439 32.7517C74.2439 32.6681 70.9582 32.6246 64.6362 32.6246C58.3142 32.6246 55.0285 32.6681 55.0285 32.7517C55.0285 32.8216 54.9403 32.8788 54.8325 32.8788C54.5803 32.8788 54.2798 33.1849 54.2798 33.4418C54.2798 33.5516 54.2237 33.6415 54.155 33.6415C54.0723 33.6415 54.0303 40.6749 54.0303 54.4875V75.3335H53.2816H52.533V53.2164V31.0993H64.6362H76.7395V53.2164ZM73.2457 36.3108V37.9632H64.6362H56.0267V36.3108V34.6584H64.6362H73.2457V36.3108ZM73.2457 41.6494V43.3018H64.6362H56.0267V41.6494V39.997H64.6362H73.2457V41.6494ZM50.5366 42.5392V43.3018H43.1748C38.3501 43.3018 35.813 43.3457 35.813 43.4289C35.813 43.4989 35.7248 43.5561 35.617 43.5561C35.5091 43.5561 35.3406 43.6378 35.2427 43.7377C35.1446 43.8375 35.0644 44.0091 35.0644 44.119C35.0644 44.2288 35.0082 44.3187 34.9396 44.3187C34.8571 44.3187 34.8148 49.5725 34.8148 59.8261V75.3335H34.0661H33.3175V58.555V41.7765H41.927H50.5366V42.5392ZM50.5366 46.988V48.6404H43.6739H36.8112V46.988V45.3356H43.6739H50.5366V46.988ZM73.2457 46.988V48.6404H64.6362H56.0267V46.988V45.3356H64.6362H73.2457V46.988ZM50.5366 52.3266V53.9791H43.6739H36.8112V52.3266V50.6742H43.6739H50.5366V52.3266ZM73.2457 52.3266V53.9791H64.6362H56.0267V52.3266V50.6742H64.6362H73.2457V52.3266ZM50.5366 57.6653V59.3177H43.6739H36.8112V57.6653V56.0128H43.6739H50.5366V57.6653ZM73.2457 57.6653V59.3177H64.6362H56.0267V57.6653V56.0128H64.6362H73.2457V57.6653ZM50.5366 63.0039V64.6563H43.6739H36.8112V63.0039V61.3514H43.6739H50.5366V63.0039ZM73.2457 63.0039V64.6563H64.6362H56.0267V63.0039V61.3514H64.6362H73.2457V63.0039ZM50.5366 68.3425V69.9949H43.6739H36.8112V68.3425V66.6901H43.6739H50.5366V68.3425ZM63.7628 71.0118V75.3335H59.8947H56.0267V71.0118V66.6901H59.8947H63.7628V71.0118ZM73.2457 71.0118V75.3335H69.3777H65.5096V71.0118V66.6901H69.3777H73.2457V71.0118ZM50.5366 73.6811V75.3335H43.6739H36.8112V73.6811V72.0287H43.6739H50.5366V73.6811ZM78.4863 78.13V78.8926H55.0285H31.5706V78.13V77.3673H55.0285H78.4863V78.13Z" fill="#1C379B"/>
</svg>
