<svg width="110" height="110" viewBox="0 0 110 110" fill="none" xmlns="http://www.w3.org/2000/svg">
<path fill-rule="evenodd" clip-rule="evenodd" d="M54.3416 35.1954C54.7419 34.9349 55.2582 34.9349 55.6585 35.1954L88.9268 56.8432C89.2691 57.0659 89.4756 57.4467 89.4756 57.8551V64.1379C89.4756 64.5581 89.2572 64.9481 88.8989 65.1675L73.6135 74.5296C73.4237 74.6458 73.2054 74.7073 72.9829 74.7073H37.0172C36.8032 74.7073 36.5931 74.6505 36.4083 74.5425L21.1229 65.6159C20.7523 65.3995 20.5244 65.0026 20.5244 64.5734V57.8551C20.5244 57.4467 20.7309 57.0659 21.0733 56.8432L54.3416 35.1954ZM22.939 59.916L35.8099 67.1313V71.3968L22.939 63.8803V59.916ZM38.2245 72.2927H71.7756V67.6314H38.2245V72.2927ZM39.1406 65.2167L53.7927 65.2167V53.6505H46.0241L39.1406 65.2167ZM47.4611 51.2358H53.7927V40.5968L47.4611 51.2358ZM56.2073 40.5966V51.2358H62.539L56.2073 40.5966ZM63.976 53.6505H56.2073V65.2167L70.8594 65.2167L63.976 53.6505ZM73.4187 64.7956L66.3126 52.8551L73.1218 49.4397L85.9365 57.7782L73.4187 64.7956ZM87.061 59.916L74.1902 67.1313V71.3448L87.061 63.4616V59.916ZM70.7775 47.9142L65.0745 50.7747L58.6919 40.05L70.7775 47.9142ZM51.3082 40.05L44.9256 50.7748L39.2226 47.9142L51.3082 40.05ZM36.8782 49.4397L43.6875 52.8551L36.5813 64.7956L24.0635 57.7782L36.8782 49.4397Z" fill="#1C379B"/>
</svg>
