<svg width="166" height="37" viewBox="0 0 166 37" fill="none" xmlns="http://www.w3.org/2000/svg">
<path d="M3.27344 27.8948H6.0257V17.7207L3.27344 18.6926V27.8948Z" fill="white"/>
<path d="M0 0V36.8708H29.1073V0H0ZM4.10754 4.3426H24.3116V12.3454H23.4985V5.14909H4.92071V15.7781H4.10754V4.3426ZM18.6612 15.592V14.7442L22.2266 13.4827V28.6405H18.6612V27.834H21.4134V14.6201L18.6612 15.592ZM17.848 10.1327V15.013V28.6198V28.6405H14.9289V8.58181L17.848 10.1327ZM10.5503 10.7118V17.1843L9.73717 16.75V10.1327L14.1158 8.58181V28.6819H11.3635V27.8754H13.3026V9.71916L10.5503 10.7118ZM10.5503 27.834V28.6405V28.6819H7.63127V16.5226L9.73717 17.6392L10.5503 18.0735H10.5712V27.834H10.5503ZM2.46036 18.1149L6.83895 16.5639V28.6819H2.46036V18.1149ZM24.3116 32.5282H4.10754V30.0673H4.92071V31.7217H23.4985V30.0673H24.3116V32.5282ZM25.9588 28.6405H23.0398V13.4827L25.9588 15.0337V28.6405Z" fill="white"/>
<path d="M39.2282 12.1953H41.7962C43.7171 12.1953 44.4855 12.3557 45.2539 12.8571C46.1234 13.4387 46.6086 14.3812 46.6086 15.5042C46.6086 16.6874 46.2245 17.3292 45.2134 17.8506C46.0425 18.1915 46.4267 18.4321 46.7704 18.9335C47.1344 19.4348 47.3568 20.1568 47.3568 20.9389C47.3568 22.2424 46.73 23.3855 45.6381 24.0072C44.8697 24.4484 43.8991 24.6489 42.5444 24.6489H39.208V12.1953H39.2282ZM42.3017 16.9682C43.7171 16.9682 44.3035 16.5872 44.3035 15.6847C44.3035 14.8224 43.7171 14.4213 42.5039 14.4213H41.5536V16.9682H42.3017ZM42.7061 22.4029C44.3237 22.4029 45.0315 21.9416 45.0315 20.8386C45.0315 19.7557 44.2631 19.2343 42.6657 19.2343H41.5738V22.4029H42.7061Z" fill="white"/>
<path d="M59.2869 12.1953V24.6288H56.9818V16.0256L51.5425 24.6288H49.1768V12.1953H51.4819V20.7985L56.9211 12.1953H59.2869Z" fill="white"/>
<path d="M62.9259 14.3827H60.6006V12.1768H67.5766V14.3827H65.2513V24.6103H62.9259V14.3827Z" fill="white"/>
<path d="M68.8913 12.1953H71.985C73.7037 12.1953 74.553 12.3557 75.2809 12.837C76.2919 13.4988 76.8783 14.6419 76.8783 16.0256C76.8783 17.5096 76.2111 18.7731 75.1394 19.3947C74.4519 19.7557 73.6633 19.8961 71.9446 19.8961H71.1964V24.6288H68.8711V12.1953H68.8913ZM71.8839 17.6901C72.5714 17.6901 73.0971 17.63 73.4813 17.5297C74.1486 17.3492 74.553 16.7877 74.553 16.0858C74.553 15.3037 74.1486 14.7021 73.4611 14.5216C73.0971 14.4414 72.7534 14.4013 71.985 14.4013H71.1964V17.6901H71.8839Z" fill="white"/>
<path d="M81.1036 12.1953H82.9436L88.2009 24.6288H85.6329L84.2984 21.4202H79.8499L78.4547 24.6288H75.8867L81.1036 12.1953ZM83.3683 19.1942L82.0337 15.424L80.6992 19.1942H83.3683Z" fill="white"/>
<path d="M100.82 12.1953H103.59L99.4046 18.2918L103.59 24.6088H100.82L97.2006 18.8132V24.6088H94.8753V18.8132L91.276 24.6088H88.5059L92.6915 18.2918L88.5059 12.1953H91.276L94.8955 17.8907V12.1953H97.2208V17.8907L100.82 12.1953Z" fill="white"/>
<path d="M105.005 12.1953H113.881V24.6288H111.556V14.4013H107.31V24.6288H104.984V12.1953H105.005Z" fill="white"/>
<path d="M116.288 12.1953H119.382C121.1 12.1953 121.949 12.3557 122.677 12.837C123.688 13.4988 124.275 14.6419 124.275 16.0256C124.275 17.5096 123.608 18.7731 122.536 19.3947C121.848 19.7557 121.06 19.8961 119.341 19.8961H118.593V24.6288H116.268V12.1953H116.288ZM119.28 17.6901C119.968 17.6901 120.494 17.63 120.878 17.5297C121.545 17.3492 121.95 16.7877 121.95 16.0858C121.95 15.3037 121.545 14.7021 120.858 14.5216C120.494 14.4414 120.15 14.4013 119.382 14.4013H118.593V17.6901H119.28Z" fill="white"/>
<path d="M138.47 18.3919C138.47 22.0217 135.659 24.8293 132.02 24.8293C128.339 24.8293 125.428 22.0017 125.428 18.412C125.428 14.7822 128.319 11.9746 132.06 11.9746C135.599 11.9746 138.47 14.8423 138.47 18.3919ZM127.753 18.3919C127.753 20.7583 129.613 22.6033 131.999 22.6033C134.365 22.6033 136.145 20.8185 136.145 18.412C136.145 15.9654 134.345 14.1806 131.898 14.1806C129.593 14.1806 127.753 16.0456 127.753 18.3919Z" fill="white"/>
<path d="M140.269 12.1953H147.002V14.4013H142.594V17.3292H146.82V19.5351H142.594V22.4229H147.002V24.6288H140.269V12.1953Z" fill="white"/>
<path d="M149.166 12.1953H151.491V17.5498L155.374 12.1953H158.164L153.453 18.2918L158.164 24.6088H155.374L151.491 19.1541V24.6088H149.166V12.1953Z" fill="white"/>
<path d="M160.813 14.3827H158.487V12.1768H165.463V14.3827H163.138V24.6103H160.813V14.3827Z" fill="white"/>
</svg>
