<svg width="110" height="110" viewBox="0 0 110 110" fill="none" xmlns="http://www.w3.org/2000/svg">
<path d="M37.4847 71.4637C37.2402 71.4637 37.0057 71.5607 36.8328 71.7334C36.6599 71.9061 36.5628 72.1402 36.5628 72.3844V76.0674C36.5628 76.3116 36.6599 76.5458 36.8328 76.7184C37.0057 76.8911 37.2402 76.9881 37.4847 76.9881C37.7291 76.9881 37.9636 76.8911 38.1365 76.7184C38.3094 76.5458 38.4065 76.3116 38.4065 76.0674V72.3844C38.4065 72.1402 38.3094 71.9061 38.1365 71.7334C37.9636 71.5607 37.7291 71.4637 37.4847 71.4637Z" fill="#1C379B"/>
<path d="M80.3321 49.685C80.2436 49.6025 80.1397 49.5382 80.0263 49.4958C79.9129 49.4534 79.7922 49.4338 79.6712 49.438C79.5502 49.4421 79.4312 49.4701 79.321 49.5202C79.2108 49.5703 79.1116 49.6416 79.029 49.73C78.9464 49.8184 78.882 49.9222 78.8396 50.0355C78.7971 50.1488 78.7774 50.2693 78.7816 50.3901C78.7858 50.511 78.8138 50.6299 78.8639 50.7399C78.9141 50.85 78.9855 50.9491 79.074 51.0316L81.238 53.0489H65.4858L52.8439 42.0001H61.5818C61.8263 42.0001 62.0608 41.9031 62.2337 41.7304C62.4065 41.5577 62.5037 41.3235 62.5037 41.0793C62.5037 40.8351 62.4065 40.601 62.2337 40.4283C62.0608 40.2556 61.8263 40.1586 61.5818 40.1586C39.681 40.1656 40.9521 40.0479 40.565 40.3864L36.8776 43.609C36.737 43.7326 36.6374 43.896 36.592 44.0775C36.5466 44.259 36.5576 44.45 36.6234 44.6251C36.6893 44.8002 36.807 44.9512 36.9608 45.0579C37.1146 45.1647 37.2973 45.2221 37.4847 45.2227C38.0936 45.2227 38.0776 44.9051 41.1721 42.3028L53.4681 53.0489H28.8758L38.3032 44.8198C38.4861 44.6587 38.5977 44.4318 38.6134 44.1888C38.6292 43.9457 38.5479 43.7063 38.3873 43.523C38.2268 43.3397 38 43.2274 37.7567 43.2107C37.5135 43.194 37.2735 43.2743 37.0893 43.4339C31.649 48.1896 25.5006 53.3921 25.5006 53.9697V81.5918C25.5006 81.836 25.5977 82.0702 25.7706 82.2429C25.9435 82.4156 26.178 82.5126 26.4224 82.5126H83.5772C83.8216 82.5126 84.0561 82.4156 84.229 82.2429C84.4019 82.0702 84.499 81.836 84.499 81.5918V53.9697C84.499 53.4031 84.4702 53.548 80.3321 49.685ZM32.8754 80.6711H27.3443V76.9881H32.8754V80.6711ZM32.8754 75.1467H27.3443V71.4637H32.8754V75.1467ZM27.3443 69.6222V65.9393H34.9947C34.0551 66.9849 33.3977 68.2524 33.0844 69.6222H27.3443ZM47.625 80.6711H34.7191V71.4637C34.7191 69.7543 35.399 68.115 36.6091 66.9063C37.8193 65.6976 39.4606 65.0185 41.1721 65.0185C42.8835 65.0185 44.5248 65.6976 45.735 66.9063C46.9451 68.115 47.625 69.7543 47.625 71.4637V80.6711ZM54.9998 80.6711H49.4687V76.9881H54.9998V80.6711ZM54.9998 75.1467H49.4687V71.4637H54.9998V75.1467ZM54.9998 69.6222H49.2597C48.9464 68.2524 48.289 66.9849 47.3494 65.9393H54.9998V69.6222ZM54.9998 64.0978H44.9656C43.7929 63.4926 42.4921 63.1767 41.1721 63.1767C39.852 63.1767 38.5512 63.4926 37.3785 64.0978H27.3443V60.3765H54.9998V64.0978ZM54.9998 58.535H27.3443V54.8904H54.9998V58.535ZM43.6254 42.0001H50.0449L62.6872 53.0489H56.2688L43.6254 42.0001ZM64.2183 80.6711H56.8435V54.8904H64.2183V80.6711ZM73.4368 80.6711H66.062V54.8904H73.4368V80.6711ZM82.6553 80.6711H75.2805V54.8904H82.6553V80.6711Z" fill="#1C379B"/>
<path d="M68.4648 47.5054L66.332 49.6356C66.2035 49.7646 66.1162 49.9286 66.0809 50.1071C66.0456 50.2855 66.064 50.4704 66.1336 50.6384C66.2033 50.8065 66.3212 50.9502 66.4725 51.0514C66.6238 51.1527 66.8017 51.207 66.9838 51.2074C67.6398 51.2074 67.7063 50.7495 69.7551 48.8209C73.0014 51.1837 77.094 49.386 79.9684 46.5151C83.812 42.6761 84.4704 34.2209 84.497 33.8628C84.5066 33.731 84.4877 33.5986 84.4416 33.4747C84.3954 33.3508 84.3231 33.2382 84.2295 33.1447C84.1359 33.0513 84.0232 32.979 83.8991 32.9329C83.7751 32.8868 83.6425 32.8679 83.5105 32.8775C83.152 32.9036 74.6867 33.5614 70.8428 37.4006C66.9286 41.3095 66.8046 45.1249 68.4648 47.5054ZM82.5369 34.8348C82.2343 37.1719 81.272 42.6088 78.6646 45.2131C75.9956 47.8789 73.067 48.7234 71.0816 47.496L78.6983 39.8884C78.784 39.8029 78.8519 39.7014 78.8982 39.5896C78.9445 39.4779 78.9684 39.3582 78.9684 39.2373C78.9684 39.1164 78.9445 38.9966 78.8982 38.8849C78.8519 38.7732 78.784 38.6717 78.6983 38.5862C78.6127 38.5007 78.5111 38.4329 78.3993 38.3866C78.2874 38.3403 78.1675 38.3165 78.0465 38.3165C77.9254 38.3165 77.8055 38.3403 77.6937 38.3866C77.5818 38.4329 77.4802 38.5007 77.3946 38.5862L69.7979 46.1738C68.66 44.1932 69.5232 41.3221 72.1466 38.7019C74.7536 36.0983 80.1972 35.1371 82.5369 34.8348Z" fill="#1C379B"/>
<path d="M65.2708 41.87C67.8347 41.87 63.0616 37.8933 73.6547 29.5922C73.9367 30.1907 74.3103 31.0308 74.6827 32.0091C74.7251 32.1231 74.7895 32.2276 74.8725 32.3165C74.9554 32.4055 75.0552 32.4771 75.166 32.5274C75.2768 32.5776 75.3965 32.6055 75.5181 32.6093C75.6398 32.6131 75.7609 32.5928 75.8747 32.5496C75.9885 32.5065 76.0925 32.4412 76.1809 32.3576C76.2693 32.274 76.3402 32.1738 76.3896 32.0627C76.439 31.9516 76.4659 31.8319 76.4687 31.7104C76.4715 31.5888 76.4502 31.468 76.406 31.3547C75.9421 30.1236 75.4057 28.9209 74.7996 27.753C74.7379 27.6385 74.6527 27.5382 74.5494 27.459C74.4462 27.3797 74.3273 27.3231 74.2006 27.2931C74.0739 27.263 73.9423 27.2601 73.8144 27.2846C73.6864 27.309 73.5652 27.3603 73.4585 27.4349C73.1555 27.647 66.0206 32.6926 64.7432 38.0687C64.5155 39.0041 64.3834 39.9602 64.3488 40.9222C64.3452 41.0454 64.3664 41.1681 64.4111 41.2829C64.4558 41.3978 64.5231 41.5025 64.6091 41.5909C64.6951 41.6793 64.7979 41.7495 64.9116 41.7975C65.0253 41.8454 65.1474 41.8701 65.2708 41.87Z" fill="#1C379B"/>
<path fill-rule="evenodd" clip-rule="evenodd" d="M80.5151 49.489C81.4695 50.3799 82.2075 51.0596 82.7771 51.5843C83.4379 52.1929 83.8724 52.593 84.1557 52.8726C84.4164 53.1298 84.5776 53.3114 84.6665 53.4783C84.7672 53.6673 84.7672 53.8231 84.7672 53.9679V81.5918C84.7672 81.9072 84.6417 82.2097 84.4185 82.4326C84.1953 82.6556 83.8927 82.7807 83.5772 82.7807H26.4224C26.1069 82.7807 25.8043 82.6556 25.5811 82.4326C25.3579 82.2097 25.2324 81.9072 25.2324 81.5918V53.9697C25.2324 53.898 25.2546 53.8359 25.2728 53.7945C25.2926 53.7493 25.3185 53.7045 25.3464 53.6618C25.4023 53.5763 25.4798 53.4781 25.5725 53.3708C25.7589 53.1552 26.0269 52.8797 26.3593 52.5563C27.0254 51.9086 27.9678 51.0521 29.0768 50.068C30.4496 48.8499 32.0841 47.4307 33.7748 45.9627C34.7137 45.1475 35.6699 44.3173 36.6082 43.4981C36.6372 43.4664 36.668 43.4361 36.7006 43.4075L36.7011 43.407L40.3885 40.1845C40.3885 40.1845 40.3885 40.1845 40.3885 40.1845C40.3986 40.1756 40.4049 40.1691 40.4171 40.1565C40.4213 40.1522 40.4262 40.147 40.4323 40.1408C40.4538 40.1187 40.4873 40.0856 40.5351 40.0546C40.6311 39.9924 40.7469 39.963 40.8972 39.9431C41.1954 39.9037 41.7771 39.8869 43.0042 39.88C44.1844 39.8734 45.9797 39.8763 48.7282 39.8808C51.7294 39.8856 55.8672 39.8923 61.5817 39.8904C61.8972 39.8904 62.2 40.0156 62.4232 40.2385C62.6464 40.4615 62.7718 40.7639 62.7718 41.0793C62.7718 41.3948 62.6464 41.6972 62.4232 41.9201C62.2 42.1431 61.8973 42.2683 61.5818 42.2683H53.5583L65.5865 52.7808H80.557L78.8912 51.2278C78.8912 51.2278 78.8912 51.2278 78.8912 51.2278C78.7769 51.1213 78.6847 50.9933 78.6199 50.8512C78.5551 50.709 78.519 50.5555 78.5136 50.3994C78.5082 50.2433 78.5336 50.0877 78.5884 49.9414C78.6433 49.7951 78.7264 49.6611 78.833 49.5469C78.9397 49.4328 79.0678 49.3408 79.21 49.2761C79.3522 49.2114 79.5058 49.1753 79.662 49.1699C79.8181 49.1645 79.9738 49.1899 80.1202 49.2446C80.2665 49.2994 80.4008 49.3825 80.5151 49.489ZM79.074 51.0316L81.238 53.0489H65.4858L52.8439 42.0001H61.5818C61.8263 42.0001 62.0608 41.9031 62.2337 41.7304C62.4065 41.5577 62.5037 41.3235 62.5037 41.0793C62.5037 40.8351 62.4065 40.601 62.2337 40.4283C62.0608 40.2556 61.8263 40.1586 61.5818 40.1586C55.865 40.1604 51.727 40.1538 48.7263 40.1489C41.1784 40.1368 40.8262 40.1362 40.6408 40.3117C40.6317 40.3203 40.623 40.3293 40.6139 40.3387C40.5997 40.3535 40.5844 40.3694 40.565 40.3864L36.8776 43.609C36.8489 43.6342 36.8218 43.6612 36.7966 43.6896C36.6666 43.8031 36.5361 43.9169 36.4055 44.0308C36.3741 44.0582 36.3427 44.0856 36.3112 44.113C35.5249 44.7983 34.7307 45.4879 33.9488 46.1668C29.5285 50.0048 25.5006 53.5022 25.5006 53.9697V81.5918C25.5006 81.836 25.5977 82.0702 25.7706 82.2429C25.9435 82.4156 26.178 82.5126 26.4224 82.5126H83.5772C83.8216 82.5126 84.0561 82.4156 84.229 82.2429C84.4019 82.0702 84.499 81.836 84.499 81.5918V53.9697C84.499 53.5347 84.482 53.5191 82.6018 51.7874L82.6011 51.7868C82.0323 51.2629 81.293 50.582 80.3321 49.685C80.2436 49.6025 80.1397 49.5382 80.0263 49.4958C79.9129 49.4534 79.7922 49.4338 79.6712 49.438C79.5502 49.4421 79.4312 49.4701 79.321 49.5202C79.2108 49.5703 79.1116 49.6416 79.029 49.73C78.9464 49.8184 78.882 49.9222 78.8396 50.0355C78.7971 50.1488 78.7774 50.2693 78.7816 50.3901C78.7858 50.511 78.8138 50.6299 78.8639 50.7399C78.9141 50.85 78.9855 50.9491 79.074 51.0316ZM28.8758 53.0489H53.4681L41.1721 42.3028C40.0612 43.237 39.3512 43.8767 38.8692 44.313C38.8466 44.3335 38.8245 44.3535 38.8029 44.3731C38.598 44.5587 38.4364 44.705 38.3032 44.8198L28.8758 53.0489ZM38.4762 45.0248L29.5909 52.7808H52.7538L41.1689 42.6562C40.1128 43.5487 39.4438 44.1545 38.9859 44.5693C38.825 44.715 38.6901 44.8371 38.5737 44.9397C38.5401 44.9694 38.5076 44.9978 38.4762 45.0248ZM66.332 49.6356L68.4648 47.5054C66.8046 45.1249 66.9286 41.3095 70.8428 37.4006C74.6867 33.5614 83.152 32.9036 83.5105 32.8775C83.6425 32.8679 83.7751 32.8868 83.8991 32.9329C84.0232 32.979 84.1359 33.0513 84.2295 33.1447C84.3231 33.2382 84.3954 33.3508 84.4416 33.4747C84.4877 33.5986 84.5066 33.731 84.497 33.8628C84.4704 34.2209 83.812 42.6761 79.9684 46.5151C77.094 49.386 73.0014 51.1837 69.7551 48.8209C69.0158 49.5168 68.5346 50.0213 68.1907 50.3818C67.5816 51.0204 67.4031 51.2074 66.9838 51.2074C66.8017 51.207 66.6238 51.1527 66.4725 51.0514C66.3212 50.9502 66.2033 50.8065 66.1336 50.6384C66.064 50.4704 66.0456 50.2855 66.0809 50.1071C66.1162 49.9286 66.2035 49.7646 66.332 49.6356ZM69.7804 49.1662C71.4372 50.2864 73.2901 50.4005 75.0752 49.8884C76.919 49.3596 78.6987 48.1623 80.1579 46.7049C82.1343 44.7309 83.2737 41.5959 83.9245 38.9476C84.5779 36.2887 84.7506 34.0688 84.7645 33.8827L84.7645 33.8824C84.7769 33.712 84.7525 33.5411 84.6929 33.381C84.6332 33.221 84.5398 33.0757 84.419 32.955C84.2981 32.8343 84.1527 32.741 83.9926 32.6815C83.8325 32.622 83.6614 32.5976 83.491 32.61C83.3043 32.6237 81.0819 32.7961 78.4198 33.4487C75.7684 34.0987 72.6297 35.2368 70.6533 37.2109C66.7754 41.0836 66.4993 44.9457 68.1194 47.4713L66.1424 49.4459L66.1419 49.4464C65.9762 49.6129 65.8634 49.8246 65.8178 50.055C65.7722 50.2854 65.7959 50.5242 65.8859 50.7412C65.9759 50.9581 66.1281 51.1436 66.3234 51.2743C66.5186 51.405 66.7481 51.475 66.9831 51.4756H66.9838C67.1852 51.4756 67.3591 51.4391 67.5365 51.3398C67.702 51.2471 67.8582 51.1061 68.037 50.9268C68.1408 50.8228 68.256 50.702 68.391 50.5604C68.709 50.2271 69.1364 49.779 69.7804 49.1662ZM74.7996 27.753C75.4057 28.9209 75.9421 30.1236 76.406 31.3547C76.4502 31.468 76.4715 31.5888 76.4687 31.7104C76.4659 31.8319 76.439 31.9516 76.3896 32.0627C76.3402 32.1738 76.2693 32.274 76.1809 32.3576C76.0925 32.4412 75.9885 32.5065 75.8747 32.5496C75.7609 32.5928 75.6398 32.6131 75.5181 32.6093C75.3965 32.6055 75.2768 32.5776 75.166 32.5274C75.0552 32.4771 74.9554 32.4055 74.8725 32.3165C74.7895 32.2276 74.7251 32.1231 74.6827 32.0091C74.3595 31.1601 74.0354 30.415 73.771 29.8418C73.7308 29.7545 73.6919 29.6713 73.6547 29.5922C73.5819 29.6492 73.5098 29.7061 73.4385 29.7627C66.618 35.1766 66.3608 38.7255 66.2316 40.508C66.1654 41.4204 66.1329 41.87 65.2708 41.87C65.1474 41.8701 65.0253 41.8454 64.9116 41.7975C64.7979 41.7495 64.6951 41.6793 64.6091 41.5909C64.5231 41.5025 64.4558 41.3978 64.4111 41.2829C64.3664 41.1681 64.3452 41.0454 64.3488 40.9222C64.3834 39.9602 64.5155 39.0041 64.7432 38.0687C66.0206 32.6926 73.1555 27.647 73.4585 27.4349C73.5652 27.3603 73.6864 27.309 73.8144 27.2846C73.9423 27.2601 74.0739 27.263 74.2006 27.2931C74.3273 27.3231 74.4462 27.3797 74.5494 27.459C74.6527 27.5382 74.7379 27.6385 74.7996 27.753ZM64.4825 38.0059C64.2506 38.9588 64.116 39.9326 64.0808 40.9126L64.0807 40.9143C64.0761 41.0734 64.1034 41.2319 64.1612 41.3802C64.2189 41.5285 64.3059 41.6638 64.4169 41.7779C64.5279 41.892 64.6607 41.9827 64.8074 42.0446C64.9541 42.1064 65.1117 42.1383 65.2709 42.1382M64.4825 38.0059C65.1397 35.241 67.2896 32.5912 69.2776 30.6246C71.274 28.6498 73.1471 27.3255 73.3048 27.2152C73.4424 27.1188 73.5989 27.0527 73.764 27.0212C73.9291 26.9896 74.099 26.9934 74.2625 27.0322C74.426 27.0709 74.5795 27.1439 74.7128 27.2462C74.8461 27.3486 74.9561 27.478 75.0358 27.6259L75.0367 27.6277L75.0376 27.6295C75.6483 28.8063 76.1889 30.0182 76.6564 31.2587C76.7131 31.4046 76.7404 31.5602 76.7368 31.7166C76.7332 31.8735 76.6984 32.0282 76.6346 32.1717C76.5708 32.3152 76.4793 32.4446 76.3652 32.5525C76.2511 32.6604 76.1167 32.7446 75.9699 32.8004C75.8231 32.8561 75.6667 32.8823 75.5097 32.8773C75.3527 32.8724 75.1983 32.8365 75.0552 32.7716C74.9122 32.7068 74.7834 32.6143 74.6763 32.4994C74.5695 32.3848 74.4864 32.2503 74.4317 32.1035C74.1221 31.2903 73.8117 30.5733 73.5546 30.013C68.5087 34.0307 67.1402 36.9815 66.7136 38.9022C66.6043 39.394 66.5555 39.824 66.5243 40.1964C66.5153 40.3047 66.5076 40.4109 66.5001 40.5136C66.4827 40.7541 66.4666 40.9756 66.4377 41.1604C66.3961 41.4264 66.3192 41.6913 66.1144 41.8801C65.9064 42.0719 65.6189 42.1382 65.2709 42.1382M36.6433 71.5436C36.8665 71.3207 37.1691 71.1955 37.4847 71.1955C37.8002 71.1955 38.1028 71.3207 38.326 71.5436C38.5492 71.7666 38.6747 72.069 38.6747 72.3844V76.0674C38.6747 76.3828 38.5492 76.6853 38.326 76.9082C38.1028 77.1311 37.8002 77.2563 37.4847 77.2563C37.1691 77.2563 36.8665 77.1311 36.6433 76.9082C36.4201 76.6853 36.2946 76.3828 36.2946 76.0674V72.3844C36.2946 72.069 36.4201 71.7666 36.6433 71.5436ZM27.6125 80.4029H32.6072V77.2563H27.6125V80.4029ZM27.6125 74.8785H32.6072V71.7319H27.6125V74.8785ZM27.6125 66.2075V69.354H32.8734C33.1659 68.2084 33.6931 67.1371 34.42 66.2075H27.6125ZM27.3443 65.9393V69.6222H33.0844C33.3714 68.3675 33.9471 67.1986 34.7639 66.2075C34.8388 66.1165 34.9158 66.0271 34.9947 65.9393H27.3443ZM34.9873 80.4029V71.4637C34.9873 69.8256 35.6388 68.2545 36.7986 67.096C37.9585 65.9376 39.5316 65.2867 41.1721 65.2867C42.8125 65.2867 44.3856 65.9376 45.5455 67.096C46.7053 68.2545 47.3568 69.8256 47.3568 71.4637V80.4029H34.9873ZM49.7369 80.4029H54.7316V77.2563H49.7369V80.4029ZM49.7369 74.8785H54.7316V71.7319H49.7369V74.8785ZM49.4707 69.354H54.7316V66.2075H47.9241C48.651 67.1371 49.1782 68.2084 49.4707 69.354ZM49.2597 69.6222H54.9998V65.9393H47.3494C47.4283 66.0271 47.5053 66.1165 47.5802 66.2075C48.397 67.1986 48.9727 68.3675 49.2597 69.6222ZM45.0302 63.8296H54.7316V60.6447H27.6125V63.8296H37.3139C38.5094 63.2242 39.8311 62.9086 41.1721 62.9086C42.513 62.9086 43.8347 63.2242 45.0302 63.8296ZM44.9656 64.0978H54.9998V60.3765H27.3443V64.0978H37.3785C38.5512 63.4926 39.852 63.1767 41.1721 63.1767C42.4921 63.1767 43.7929 63.4926 44.9656 64.0978ZM27.6125 58.2669H54.7316V55.1586H27.6125V58.2669ZM50.0449 42.0001L62.6872 53.0489H56.2688L43.6254 42.0001H50.0449ZM44.3399 42.2683H49.9442L61.9728 52.7808H56.3695L44.3399 42.2683ZM57.1117 80.4029H63.9501V55.1586H57.1117V80.4029ZM66.3302 80.4029H73.1686V55.1586H66.3302V80.4029ZM75.5487 80.4029V55.1586H82.3871V80.4029H75.5487ZM82.5001 35.11C82.5133 35.0141 82.5256 34.9223 82.5369 34.8348C82.4494 34.8461 82.3576 34.8583 82.2617 34.8715C79.7939 35.2113 74.6561 36.1956 72.1466 38.7019C69.6311 41.2143 68.734 43.9573 69.6676 45.9249C69.7076 46.0093 69.7511 46.0923 69.7979 46.1738L77.3946 38.5862C77.4802 38.5007 77.5818 38.4329 77.6937 38.3866C77.8055 38.3403 77.9254 38.3165 78.0465 38.3165C78.1675 38.3165 78.2874 38.3403 78.3993 38.3866C78.5111 38.4329 78.6127 38.5007 78.6983 38.5862C78.784 38.6717 78.8519 38.7732 78.8982 38.8849C78.9445 38.9966 78.9684 39.1164 78.9684 39.2373C78.9684 39.3582 78.9445 39.4779 78.8982 39.5896C78.8519 39.7014 78.784 39.8029 78.6983 39.8884L71.0816 47.496C71.1608 47.545 71.2416 47.5907 71.3238 47.6331C73.3004 48.6531 76.1021 47.7724 78.6646 45.2131C81.1744 42.7063 82.16 37.5751 82.5001 35.11ZM82.2241 35.1475C82.0592 36.3237 81.7506 38.0723 81.2086 39.8454C80.6081 41.8097 79.7315 43.7685 78.4751 45.0234C75.9741 47.5213 73.3418 48.3092 71.524 47.4331L78.8879 40.0781C78.9984 39.9677 79.0861 39.8366 79.1459 39.6924C79.2057 39.5481 79.2365 39.3935 79.2365 39.2373C79.2365 39.0811 79.2057 38.9265 79.1459 38.7822C79.0861 38.6379 78.9984 38.5068 78.8879 38.3965C78.7773 38.2861 78.6461 38.1985 78.5018 38.1388C78.3574 38.0791 78.2027 38.0483 78.0465 38.0483C77.8902 38.0483 77.7355 38.0791 77.5912 38.1388C77.4468 38.1985 77.3156 38.2861 77.2051 38.3965L69.8702 45.7225C69.0777 43.9132 69.8862 41.3385 72.3362 38.8916C73.5923 37.6371 75.5535 36.7616 77.5202 36.1619C79.2956 35.6205 81.0465 35.3123 82.2241 35.1475ZM32.8754 80.6711V76.9881H27.3443V80.6711H32.8754ZM32.8754 75.1467V71.4637H27.3443V75.1467H32.8754ZM34.7191 80.6711H47.625V71.4637C47.625 69.7543 46.9451 68.115 45.735 66.9063C44.5248 65.6976 42.8835 65.0185 41.1721 65.0185C39.4606 65.0185 37.8193 65.6976 36.6091 66.9063C35.399 68.115 34.7191 69.7543 34.7191 71.4637V80.6711ZM54.9998 80.6711V76.9881H49.4687V80.6711H54.9998ZM54.9998 75.1467V71.4637H49.4687V75.1467H54.9998ZM54.9998 58.535V54.8904H27.3443V58.535H54.9998ZM64.2183 80.6711V54.8904H56.8435V80.6711H64.2183ZM73.4368 80.6711V54.8904H66.062V80.6711H73.4368ZM82.6553 80.6711V54.8904H75.2805V80.6711H82.6553ZM36.8328 71.7334C37.0057 71.5607 37.2402 71.4637 37.4847 71.4637C37.7291 71.4637 37.9636 71.5607 38.1365 71.7334C38.3094 71.9061 38.4065 72.1402 38.4065 72.3844V76.0674C38.4065 76.3116 38.3094 76.5458 38.1365 76.7184C37.9636 76.8911 37.7291 76.9881 37.4847 76.9881C37.2402 76.9881 37.0057 76.8911 36.8328 76.7184C36.6599 76.5458 36.5628 76.3116 36.5628 76.0674V72.3844C36.5628 72.1402 36.6599 71.9061 36.8328 71.7334Z" fill="#1C379B"/>
</svg>
