<svg width="64" height="64" viewBox="0 0 64 64" fill="none" xmlns="http://www.w3.org/2000/svg">
<path d="M55.4927 60.7471V3.25076C56.0601 3.19137 56.5025 2.71174 56.5025 2.12856C56.5025 1.50531 55.9972 1 55.374 1H8.16509C7.54185 1 7.03654 1.50531 7.03654 2.12856C7.03654 2.73953 7.52238 3.23581 8.12856 3.25528V60.7429C7.50531 60.7429 7 61.2482 7 61.8714C7 62.4947 7.50531 63 8.12856 63H55.4104C56.0336 63 56.5389 62.4947 56.5389 61.8714C56.5389 61.2758 56.0773 60.7893 55.4927 60.7471ZM10.3858 3.25711H53.2356V60.7429H23.9049V47.2119C23.9049 46.5887 23.3996 46.0834 22.7764 46.0834H13.8008C13.1776 46.0834 12.6723 46.5887 12.6723 47.2119V60.7429H10.3858V3.25711ZM14.9294 55.0791C15.2081 55.0657 15.4769 54.9493 15.6745 54.7517C15.8846 54.5415 16.0046 54.2509 16.0046 53.9546C16.0046 53.657 15.8846 53.3664 15.6745 53.1562C15.4769 52.9587 15.208 52.8422 14.9294 52.8288V48.3406H21.6478V60.7429H14.9294V55.0791Z" fill="#1C379B"/>
<path d="M27.361 56.1935H36.3894C37.0127 56.1935 37.518 55.6882 37.518 55.065V47.2121C37.518 46.5888 37.0127 46.0835 36.3894 46.0835H27.361C26.7377 46.0835 26.2324 46.5888 26.2324 47.2121V55.065C26.2324 55.6882 26.7377 56.1935 27.361 56.1935ZM35.2609 53.9364H33.0038V48.3406H35.2609V53.9364ZM28.4895 48.3406H30.7466V53.9364H28.4895V48.3406Z" fill="#1C379B"/>
<path d="M40.9391 56.1935H49.9676C50.5908 56.1935 51.0961 55.6882 51.0961 55.065V47.2121C51.0961 46.5888 50.5908 46.0835 49.9676 46.0835H40.9391C40.3159 46.0835 39.8105 46.5888 39.8105 47.2121V55.065C39.8105 55.6882 40.3159 56.1935 40.9391 56.1935ZM48.839 53.9364H46.5819V48.3406H48.839V53.9364ZM42.0677 48.3406H44.3248V53.9364H42.0677V48.3406Z" fill="#1C379B"/>
<path d="M27.361 42.651H36.3894C37.0127 42.651 37.518 42.1457 37.518 41.5225V33.6696C37.518 33.0463 37.0127 32.541 36.3894 32.541H27.361C26.7377 32.541 26.2324 33.0463 26.2324 33.6696V41.5225C26.2324 42.1457 26.7377 42.651 27.361 42.651ZM35.2609 40.3939H33.0038V34.7981H35.2609V40.3939ZM28.4895 34.7981H30.7466V40.3939H28.4895V34.7981Z" fill="#1C379B"/>
<path d="M13.775 42.651H22.8035C23.4267 42.651 23.932 42.1457 23.932 41.5225V33.6696C23.932 33.0463 23.4267 32.541 22.8035 32.541H13.775C13.1518 32.541 12.6465 33.0463 12.6465 33.6696V41.5225C12.6465 42.1457 13.1518 42.651 13.775 42.651ZM21.6749 40.3939H19.4178V34.7981H21.6749V40.3939ZM14.9036 34.7981H17.1607V40.3939H14.9036V34.7981Z" fill="#1C379B"/>
<path d="M40.9391 42.651H49.9676C50.5908 42.651 51.0961 42.1457 51.0961 41.5225V33.6696C51.0961 33.0463 50.5908 32.541 49.9676 32.541H40.9391C40.3159 32.541 39.8105 33.0463 39.8105 33.6696V41.5225C39.8105 42.1457 40.3159 42.651 40.9391 42.651ZM48.839 40.3939H46.5819V34.7981H48.839V40.3939ZM42.0677 34.7981H44.3248V40.3939H42.0677V34.7981Z" fill="#1C379B"/>
<path d="M27.361 29.1549H36.3894C37.0127 29.1549 37.518 28.6496 37.518 28.0264V20.1735C37.518 19.5502 37.0127 19.0449 36.3894 19.0449H27.361C26.7377 19.0449 26.2324 19.5502 26.2324 20.1735V28.0264C26.2324 28.6498 26.7377 29.1549 27.361 29.1549ZM35.2609 26.8978H33.0038V21.302H35.2609V26.8978ZM28.4895 21.3022H30.7466V26.898H28.4895V21.3022Z" fill="#1C379B"/>
<path d="M13.775 29.1549H22.8035C23.4267 29.1549 23.932 28.6496 23.932 28.0264V20.1735C23.932 19.5502 23.4267 19.0449 22.8035 19.0449H13.775C13.1518 19.0449 12.6465 19.5502 12.6465 20.1735V28.0264C12.6465 28.6498 13.1518 29.1549 13.775 29.1549ZM21.6749 26.8978H19.4178V21.302H21.6749V26.8978ZM14.9036 21.3022H17.1607V26.898H14.9036V21.3022Z" fill="#1C379B"/>
<path d="M40.9391 29.1549H49.9676C50.5908 29.1549 51.0961 28.6496 51.0961 28.0264V20.1735C51.0961 19.5502 50.5908 19.0449 49.9676 19.0449H40.9391C40.3159 19.0449 39.8105 19.5502 39.8105 20.1735V28.0264C39.8105 28.6498 40.3159 29.1549 40.9391 29.1549ZM48.839 26.8978H46.5819V21.302H48.839V26.8978ZM42.0677 21.3022H44.3248V26.898H42.0677V21.3022Z" fill="#1C379B"/>
<path d="M27.361 15.6123H36.3894C37.0127 15.6123 37.518 15.107 37.518 14.4838V6.631C37.518 6.00775 37.0127 5.50244 36.3894 5.50244H27.361C26.7377 5.50244 26.2324 6.00775 26.2324 6.631V14.4839C26.2324 15.107 26.7377 15.6123 27.361 15.6123ZM35.2609 13.3552H33.0038V7.75955H35.2609V13.3552ZM28.4895 7.75955H30.7466V13.3554H28.4895V7.75955Z" fill="#1C379B"/>
<path d="M13.775 15.6123H22.8035C23.4267 15.6123 23.932 15.107 23.932 14.4838V6.631C23.932 6.00775 23.4267 5.50244 22.8035 5.50244H13.775C13.1518 5.50244 12.6465 6.00775 12.6465 6.631V14.4839C12.6465 15.107 13.1518 15.6123 13.775 15.6123ZM21.6749 13.3552H19.4178V7.75955H21.6749V13.3552ZM14.9036 7.75955H17.1607V13.3554H14.9036V7.75955Z" fill="#1C379B"/>
<path d="M40.9391 15.6123H49.9676C50.5908 15.6123 51.0961 15.107 51.0961 14.4838V6.631C51.0961 6.00775 50.5908 5.50244 49.9676 5.50244H40.9391C40.3159 5.50244 39.8105 6.00775 39.8105 6.631V14.4839C39.8105 15.107 40.3159 15.6123 40.9391 15.6123ZM48.839 13.3552H46.5819V7.75955H48.839V13.3552ZM42.0677 7.75955H44.3248V13.3554H42.0677V7.75955Z" fill="#1C379B"/>
</svg>
