<svg width="110" height="110" viewBox="0 0 110 110" fill="none" xmlns="http://www.w3.org/2000/svg">
<path d="M79.9026 79.0434H30.0983C29.6234 79.0434 29.2396 79.4281 29.2396 79.902C29.2396 80.376 29.6234 80.7608 30.0983 80.7608H79.9025C80.3774 80.7608 80.7611 80.3761 80.7611 79.9021C80.7611 79.4282 80.3775 79.0434 79.9026 79.0434Z" fill="#1C379B"/>
<path d="M55.0004 29.2391H32.6743C32.1994 29.2391 31.8156 29.6238 31.8156 30.0978V79.902C31.8156 80.3759 32.1994 80.7606 32.6743 80.7606H55.0004C55.4752 80.7606 55.859 80.3759 55.859 79.902V30.0978C55.859 29.6238 55.4752 29.2391 55.0004 29.2391ZM54.1417 79.0433H33.5331V30.9565H54.1417V79.0433Z" fill="#1C379B"/>
<path d="M50.958 33.4909H36.7167C36.2791 33.4909 35.9255 33.8691 35.9255 34.335V79.9166C35.9255 80.3825 36.2791 80.7607 36.7167 80.7607H50.958C51.3955 80.7607 51.7491 80.3825 51.7491 79.9166V34.335C51.7491 33.8691 51.3955 33.4909 50.958 33.4909ZM50.1667 79.0726H37.5078V35.1791H50.1667V79.0726Z" fill="#1C379B"/>
<path d="M77.3264 29.2391H55.0004C54.5255 29.2391 54.1417 29.6238 54.1417 30.0978V79.902C54.1417 80.3759 54.5255 80.7606 55.0004 80.7606H77.3264C77.8013 80.7606 78.1851 80.3759 78.1851 79.902V30.0978C78.1851 29.6238 77.8013 29.2391 77.3264 29.2391ZM76.4677 79.0433H55.859V30.9565H76.4677V79.0433Z" fill="#1C379B"/>
<path d="M73.224 33.4909H59.1027C58.6689 33.4909 58.3182 33.8691 58.3182 34.335V79.9166C58.3182 80.3825 58.6689 80.7607 59.1027 80.7607H73.224C73.6578 80.7607 74.0085 80.3825 74.0085 79.9166V34.335C74.0086 33.8691 73.6578 33.4909 73.224 33.4909ZM72.4395 79.0726H59.8873V35.1791H72.4395V79.0726Z" fill="#1C379B"/>
<path fill-rule="evenodd" clip-rule="evenodd" d="M45.9127 53.4799C46.1996 53.7788 46.1899 54.2538 45.891 54.5408L43.3285 57.0008L45.891 59.4608C46.1899 59.7477 46.1996 60.2227 45.9127 60.5217C45.6257 60.8206 45.1507 60.8303 44.8518 60.5433L41.7255 57.542C41.5781 57.4006 41.4948 57.2051 41.4948 57.0008C41.4948 56.7965 41.5781 56.601 41.7255 56.4595L44.8518 53.4582C45.1507 53.1713 45.6257 53.181 45.9127 53.4799ZM64.2133 53.4799C64.5002 53.181 64.9752 53.1713 65.2741 53.4582L68.4005 56.4595C68.5478 56.601 68.6312 56.7965 68.6312 57.0008C68.6312 57.2051 68.5478 57.4006 68.4005 57.542L65.2741 60.5433C64.9752 60.8303 64.5002 60.8206 64.2133 60.5217C63.9263 60.2227 63.936 59.7477 64.2349 59.4608L66.7974 57.0008L64.2349 54.5408C63.936 54.2538 63.9263 53.7788 64.2133 53.4799Z" fill="#1C379B"/>
<path fill-rule="evenodd" clip-rule="evenodd" d="M31.6503 30.0978C31.6503 29.5326 32.108 29.0737 32.6743 29.0737H77.3264C77.8927 29.0737 78.3505 29.5326 78.3505 30.0978V78.878H79.9026C80.469 78.878 80.9265 79.337 80.9265 79.9021C80.9265 80.4673 80.4688 80.9262 79.9025 80.9262H30.0983C29.5319 80.9262 29.0742 80.4672 29.0742 79.902C29.0742 79.3368 29.5319 78.878 30.0983 78.878H31.6503V30.0978ZM31.6503 79.2087H30.0983C29.7149 79.2087 29.405 79.5193 29.405 79.902C29.405 80.2848 29.7149 80.5954 30.0983 80.5954H31.9206C31.7527 80.4129 31.6503 80.1694 31.6503 79.902V79.2087ZM78.0801 80.5954H79.9025C80.2859 80.5954 80.5958 80.2848 80.5958 79.9021C80.5958 79.5193 80.2859 79.2087 79.9026 79.2087H78.3505V79.902C78.3505 80.1694 78.248 80.4129 78.0801 80.5954ZM78.0197 78.878V30.0978C78.0197 29.7151 77.7098 29.4045 77.3264 29.4045H55.7542C55.922 29.587 56.0244 29.8305 56.0244 30.0978V30.7912H76.633V78.878H78.0197ZM74.1739 79.2087L78.0197 79.2087V79.902C78.0197 80.2847 77.7098 80.5953 77.3264 80.5953H73.9273C74.0815 80.4142 74.1739 80.1745 74.1739 79.9166V79.2087ZM73.8431 78.8779V34.3349C73.8432 33.9487 73.5552 33.6563 73.224 33.6563H59.1027C58.7715 33.6563 58.4836 33.9487 58.4836 34.335V78.8779H59.7219V35.0138H72.6049V78.8779H73.8431ZM72.6049 79.2087H73.8431V79.9166C73.8431 80.3 73.5595 80.5909 73.2315 80.5953H59.0952C58.7672 80.5909 58.4836 80.3 58.4836 79.9166V79.2087H59.7219V79.2379H72.6049V79.2087ZM58.1528 78.8779V34.335C58.1528 33.7895 58.5662 33.3255 59.1027 33.3255H73.224C73.7605 33.3255 74.174 33.7894 74.1739 34.335V78.8779H76.3023V31.1219H56.0244V78.8779H58.1528ZM56.0244 79.2087H58.1528V79.9166C58.1528 80.1745 58.2452 80.4142 58.3994 80.5953H55.7542C55.922 80.4128 56.0244 80.1693 56.0244 79.902V79.2087ZM55.6936 78.878L55.6936 30.0978C55.6936 29.7151 55.3838 29.4045 55.0004 29.4045C54.617 29.4045 54.3071 29.7151 54.3071 30.0978L54.3071 78.878H55.6936ZM54.3071 79.2087H55.6936V79.902C55.6936 80.2847 55.3838 80.5953 55.0004 80.5953C54.617 80.5953 54.3071 80.2847 54.3071 79.902V79.2087ZM51.9145 79.2087H53.9763V79.902C53.9763 80.1693 54.0787 80.4128 54.2465 80.5953H51.6662C51.8213 80.4144 51.9145 80.1749 51.9145 79.9166V79.2087ZM51.5837 78.8779V34.335C51.5837 33.95 51.2941 33.6563 50.958 33.6563H36.7167C36.3805 33.6563 36.0909 33.95 36.0909 34.335V78.8779H37.3424V35.0138H50.3321V78.8779H51.5837ZM50.3321 79.2087H51.5837V79.9166C51.5837 80.2986 51.2985 80.5909 50.9656 80.5953H36.709C36.3762 80.5909 36.0909 80.2986 36.0909 79.9166V79.2087H37.3424V79.2379H50.3321V79.2087ZM35.7601 79.2087V79.9166C35.7601 80.1749 35.8533 80.4144 36.0084 80.5953H32.6743C32.2909 80.5953 31.981 80.2847 31.981 79.902V79.2087L35.7601 79.2087ZM50.0013 78.8779V35.3445H37.6732V78.8779H50.0013ZM35.7601 78.8779V34.335C35.7601 33.7881 36.1778 33.3255 36.7167 33.3255H50.958C51.4969 33.3255 51.9145 33.7881 51.9145 34.335V78.8779H53.9763V31.1219H33.6985V78.8779H35.7601ZM33.3677 78.878H31.981V30.0978C31.981 29.7151 32.2909 29.4045 32.6743 29.4045H54.2465C54.0787 29.587 53.9763 29.8305 53.9763 30.0978V30.7912H33.3677V78.878ZM72.2741 78.8779V35.3445H60.0527V78.8779H72.2741ZM44.7372 53.3389C45.1021 52.9887 45.6817 53.0005 46.032 53.3654C46.3822 53.7302 46.3704 54.3099 46.0055 54.6601L43.5673 57.0008L46.0055 59.3415C46.3704 59.6917 46.3822 60.2714 46.032 60.6362C45.6817 61.001 45.1021 61.0129 44.7372 60.6626L41.6109 57.6614C41.431 57.4887 41.3294 57.2501 41.3294 57.0008C41.3294 56.7514 41.431 56.5129 41.6109 56.3402L44.7372 53.3389ZM45.7933 53.5944C45.5696 53.3614 45.1993 53.3538 44.9663 53.5776L41.84 56.5788C41.7251 56.6891 41.6601 56.8415 41.6601 57.0008C41.6601 57.16 41.7251 57.3124 41.84 57.4227L44.9663 60.424C45.1993 60.6477 45.5696 60.6402 45.7933 60.4071C46.0171 60.1741 46.0095 59.8038 45.7765 59.5801L43.214 57.1201C43.1815 57.0889 43.1631 57.0458 43.1631 57.0008C43.1631 56.9557 43.1815 56.9127 43.214 56.8815L45.7765 54.4215C46.0095 54.1978 46.0171 53.8275 45.7933 53.5944ZM64.0939 53.3654C64.4442 53.0005 65.0239 52.9887 65.3887 53.3389L68.515 56.3402C68.6949 56.5129 68.7965 56.7514 68.7965 57.0008C68.7965 57.2501 68.6949 57.4887 68.515 57.6614L65.3887 60.6626C65.0239 61.0129 64.4442 61.001 64.0939 60.6362C63.7437 60.2714 63.7555 59.6917 64.1204 59.3415L66.5586 57.0008L64.1204 54.6601C63.7555 54.3099 63.7437 53.7302 64.0939 53.3654ZM65.1596 53.5776C64.9266 53.3538 64.5563 53.3614 64.3326 53.5944C64.1089 53.8275 64.1164 54.1978 64.3494 54.4215L66.9119 56.8815C66.9444 56.9127 66.9628 56.9557 66.9628 57.0008C66.9628 57.0458 66.9444 57.0889 66.9119 57.1201L64.3494 59.5801C64.1164 59.8038 64.1089 60.1741 64.3326 60.4071C64.5563 60.6402 64.9266 60.6477 65.1596 60.424L68.2859 57.4227C68.4008 57.3124 68.4658 57.16 68.4658 57.0008C68.4658 56.8415 68.4008 56.6891 68.2859 56.5788L65.1596 53.5776Z" fill="#1C379B"/>
</svg>
