<svg width="64" height="64" viewBox="0 0 64 64" fill="none" xmlns="http://www.w3.org/2000/svg">
<path d="M55.389 7.38066H8.60925C8.02135 7.38066 7.54473 7.85715 7.54473 8.44519V14.8953C7.54473 15.4833 8.02135 15.9598 8.60925 15.9598H55.3892C55.9772 15.9598 56.4537 15.4833 56.4537 14.8953V8.44519C56.4535 7.85729 55.9771 7.38066 55.389 7.38066ZM54.3246 13.8307H9.67377V9.50971H54.3246V13.8307Z" fill="#1C379B" stroke="#1C379B" stroke-width="0.1"/>
<mask id="path-2-outside-1" maskUnits="userSpaceOnUse" x="-0.790039" y="3.1748" width="65" height="55" fill="black">
<rect fill="white" x="-0.790039" y="3.1748" width="65" height="55"/>
<path d="M63.7243 27.5328L60.1372 17.9662V5.18933C60.1372 4.6289 59.6831 4.1748 59.1227 4.1748H4.87604C4.31576 4.1748 3.86152 4.6289 3.86152 5.18933V17.9661L0.274577 27.5328C0.157704 27.8443 0.201125 28.1933 0.390638 28.4668C0.580151 28.7402 0.891812 28.9035 1.22458 28.9035H3.86166V55.0522H2.3768C1.81652 55.0522 1.36228 55.5063 1.36228 56.0667C1.36228 56.6271 1.81652 57.0812 2.3768 57.0812H61.6221C62.1825 57.0812 62.6366 56.6271 62.6366 56.0667C62.6366 55.5063 62.1825 55.0522 61.6221 55.0522H60.1372V28.9035H62.7743C63.1071 28.9035 63.4187 28.7403 63.6081 28.4668C63.7978 28.1933 63.841 27.8442 63.7243 27.5328ZM5.89057 6.20385H58.1082V17.1354H5.89057V6.20385ZM12.6178 19.1644L10.6906 26.8744H7.73348L10.1425 19.1646L12.6178 19.1644ZM14.7092 19.1644H17.2153L15.77 26.8743H12.782L14.7092 19.1644ZM19.2797 19.1644H21.8091L20.8454 26.8743H17.8342L19.2797 19.1644ZM23.8538 19.1644H26.3989L25.9171 26.8743H22.8902L23.8538 19.1644ZM28.4319 19.1644H30.9848V26.8743H27.9501L28.4319 19.1644ZM33.0138 19.1644H35.5668L36.0487 26.8743H33.0138V19.1644ZM38.0816 26.8744L37.5998 19.1646H40.1448L41.1083 26.8744H38.0816ZM43.1533 26.8744L42.1898 19.1646H44.7191L46.1645 26.8744H43.1533ZM48.2289 26.8744L46.7834 19.1646H49.2894L51.2166 26.8744H48.2289ZM53.3081 26.8744L51.3809 19.1646H53.8563L56.2651 26.8744H53.3081ZM5.57904 19.1644H8.0166L5.60772 26.8744H2.68833L5.57904 19.1644ZM43.8747 42.8752H51.047V49.9797H43.8747V42.8752ZM43.8747 52.0087H51.047V55.0518H43.8747V52.0087ZM41.7568 37.9921L42.8826 34.4622H52.0386L53.1645 37.9921H41.7568ZM51.0471 40.0211V40.8461H43.8748V40.0211H51.0471ZM58.1082 55.052H53.0761V40.0211H54.553C54.8769 40.0211 55.1812 39.8665 55.3722 39.6052C55.5632 39.3438 55.618 39.0067 55.5197 38.6983L53.7465 33.1394C53.6124 32.7189 53.2214 32.4332 52.7799 32.4332H42.1415C41.7 32.4332 41.3092 32.7187 41.1749 33.1394L39.4019 38.6983C39.3034 39.0067 39.3583 39.3437 39.5493 39.6052C39.7403 39.8667 40.0447 40.0211 40.3685 40.0211H41.8459V55.052H5.89057V28.9035H58.1082V55.052ZM58.3912 26.8744L55.9823 19.1646H58.4196L61.3104 26.8744H58.3912Z"/>
</mask>
<path d="M63.7243 27.5328L60.1372 17.9662V5.18933C60.1372 4.6289 59.6831 4.1748 59.1227 4.1748H4.87604C4.31576 4.1748 3.86152 4.6289 3.86152 5.18933V17.9661L0.274577 27.5328C0.157704 27.8443 0.201125 28.1933 0.390638 28.4668C0.580151 28.7402 0.891812 28.9035 1.22458 28.9035H3.86166V55.0522H2.3768C1.81652 55.0522 1.36228 55.5063 1.36228 56.0667C1.36228 56.6271 1.81652 57.0812 2.3768 57.0812H61.6221C62.1825 57.0812 62.6366 56.6271 62.6366 56.0667C62.6366 55.5063 62.1825 55.0522 61.6221 55.0522H60.1372V28.9035H62.7743C63.1071 28.9035 63.4187 28.7403 63.6081 28.4668C63.7978 28.1933 63.841 27.8442 63.7243 27.5328ZM5.89057 6.20385H58.1082V17.1354H5.89057V6.20385ZM12.6178 19.1644L10.6906 26.8744H7.73348L10.1425 19.1646L12.6178 19.1644ZM14.7092 19.1644H17.2153L15.77 26.8743H12.782L14.7092 19.1644ZM19.2797 19.1644H21.8091L20.8454 26.8743H17.8342L19.2797 19.1644ZM23.8538 19.1644H26.3989L25.9171 26.8743H22.8902L23.8538 19.1644ZM28.4319 19.1644H30.9848V26.8743H27.9501L28.4319 19.1644ZM33.0138 19.1644H35.5668L36.0487 26.8743H33.0138V19.1644ZM38.0816 26.8744L37.5998 19.1646H40.1448L41.1083 26.8744H38.0816ZM43.1533 26.8744L42.1898 19.1646H44.7191L46.1645 26.8744H43.1533ZM48.2289 26.8744L46.7834 19.1646H49.2894L51.2166 26.8744H48.2289ZM53.3081 26.8744L51.3809 19.1646H53.8563L56.2651 26.8744H53.3081ZM5.57904 19.1644H8.0166L5.60772 26.8744H2.68833L5.57904 19.1644ZM43.8747 42.8752H51.047V49.9797H43.8747V42.8752ZM43.8747 52.0087H51.047V55.0518H43.8747V52.0087ZM41.7568 37.9921L42.8826 34.4622H52.0386L53.1645 37.9921H41.7568ZM51.0471 40.0211V40.8461H43.8748V40.0211H51.0471ZM58.1082 55.052H53.0761V40.0211H54.553C54.8769 40.0211 55.1812 39.8665 55.3722 39.6052C55.5632 39.3438 55.618 39.0067 55.5197 38.6983L53.7465 33.1394C53.6124 32.7189 53.2214 32.4332 52.7799 32.4332H42.1415C41.7 32.4332 41.3092 32.7187 41.1749 33.1394L39.4019 38.6983C39.3034 39.0067 39.3583 39.3437 39.5493 39.6052C39.7403 39.8667 40.0447 40.0211 40.3685 40.0211H41.8459V55.052H5.89057V28.9035H58.1082V55.052ZM58.3912 26.8744L55.9823 19.1646H58.4196L61.3104 26.8744H58.3912Z" fill="#1C379B"/>
<path d="M63.7243 27.5328L60.1372 17.9662V5.18933C60.1372 4.6289 59.6831 4.1748 59.1227 4.1748H4.87604C4.31576 4.1748 3.86152 4.6289 3.86152 5.18933V17.9661L0.274577 27.5328C0.157704 27.8443 0.201125 28.1933 0.390638 28.4668C0.580151 28.7402 0.891812 28.9035 1.22458 28.9035H3.86166V55.0522H2.3768C1.81652 55.0522 1.36228 55.5063 1.36228 56.0667C1.36228 56.6271 1.81652 57.0812 2.3768 57.0812H61.6221C62.1825 57.0812 62.6366 56.6271 62.6366 56.0667C62.6366 55.5063 62.1825 55.0522 61.6221 55.0522H60.1372V28.9035H62.7743C63.1071 28.9035 63.4187 28.7403 63.6081 28.4668C63.7978 28.1933 63.841 27.8442 63.7243 27.5328ZM5.89057 6.20385H58.1082V17.1354H5.89057V6.20385ZM12.6178 19.1644L10.6906 26.8744H7.73348L10.1425 19.1646L12.6178 19.1644ZM14.7092 19.1644H17.2153L15.77 26.8743H12.782L14.7092 19.1644ZM19.2797 19.1644H21.8091L20.8454 26.8743H17.8342L19.2797 19.1644ZM23.8538 19.1644H26.3989L25.9171 26.8743H22.8902L23.8538 19.1644ZM28.4319 19.1644H30.9848V26.8743H27.9501L28.4319 19.1644ZM33.0138 19.1644H35.5668L36.0487 26.8743H33.0138V19.1644ZM38.0816 26.8744L37.5998 19.1646H40.1448L41.1083 26.8744H38.0816ZM43.1533 26.8744L42.1898 19.1646H44.7191L46.1645 26.8744H43.1533ZM48.2289 26.8744L46.7834 19.1646H49.2894L51.2166 26.8744H48.2289ZM53.3081 26.8744L51.3809 19.1646H53.8563L56.2651 26.8744H53.3081ZM5.57904 19.1644H8.0166L5.60772 26.8744H2.68833L5.57904 19.1644ZM43.8747 42.8752H51.047V49.9797H43.8747V42.8752ZM43.8747 52.0087H51.047V55.0518H43.8747V52.0087ZM41.7568 37.9921L42.8826 34.4622H52.0386L53.1645 37.9921H41.7568ZM51.0471 40.0211V40.8461H43.8748V40.0211H51.0471ZM58.1082 55.052H53.0761V40.0211H54.553C54.8769 40.0211 55.1812 39.8665 55.3722 39.6052C55.5632 39.3438 55.618 39.0067 55.5197 38.6983L53.7465 33.1394C53.6124 32.7189 53.2214 32.4332 52.7799 32.4332H42.1415C41.7 32.4332 41.3092 32.7187 41.1749 33.1394L39.4019 38.6983C39.3034 39.0067 39.3583 39.3437 39.5493 39.6052C39.7403 39.8667 40.0447 40.0211 40.3685 40.0211H41.8459V55.052H5.89057V28.9035H58.1082V55.052ZM58.3912 26.8744L55.9823 19.1646H58.4196L61.3104 26.8744H58.3912Z" stroke="#1C379B" stroke-width="0.2" mask="url(#path-2-outside-1)"/>
<path d="M9.98325 33.1246L9.98325 33.1246L8.21027 38.6836L8.21027 38.6836C8.10708 39.0072 8.16456 39.3607 8.36497 39.6351C8.56539 39.9095 8.88475 40.0715 9.22441 40.0715H10.3943V50.6997C10.3943 51.2878 10.8709 51.7643 11.4588 51.7643H33.5026C34.0906 51.7643 34.5671 51.2878 34.5671 50.6997V40.0715H35.7369C36.0767 40.0715 36.396 39.9093 36.5964 39.6351C36.7968 39.3609 36.8543 39.0072 36.7511 38.6836L34.9781 33.1246L34.9305 33.1398L34.9781 33.1246C34.8373 32.6834 34.4272 32.3836 33.9639 32.3836H10.9975C10.5342 32.3836 10.1242 32.6832 9.98325 33.1246ZM32.4381 49.6352H12.5233V40.0715H32.4381V49.6352ZM11.7753 34.5126H33.1858L34.2797 37.9425H10.6814L11.7753 34.5126Z" fill="#1C379B" stroke="#1C379B" stroke-width="0.1"/>
</svg>
