<svg width="64" height="64" viewBox="0 0 64 64" fill="none" xmlns="http://www.w3.org/2000/svg">
<path d="M62.8571 54.2974H62.7739V40.5141C62.7739 39.8829 62.2621 39.3712 61.631 39.3712H61.6191V8.55936C61.6191 7.92822 61.1074 7.4165 60.4763 7.4165H3.43343C2.80229 7.4165 2.29057 7.92822 2.29057 8.55936V39.3712H2.22043C1.58929 39.3712 1.07757 39.8829 1.07757 40.5141V54.3006C0.476857 54.3348 0 54.8311 0 55.4402C0 56.0714 0.511714 56.5831 1.14286 56.5831H62.8571C63.4883 56.5831 64 56.0714 64 55.4402C64 54.8091 63.4883 54.2974 62.8571 54.2974ZM54.8154 43.9759C54.1843 43.9759 53.6726 44.4876 53.6726 45.1188V54.2974H49.1369V45.1188C49.1369 44.4876 48.6251 43.9759 47.994 43.9759C47.3629 43.9759 46.8511 44.4876 46.8511 45.1188V54.2974H42.1726V41.6569H60.488V54.2974H55.9583V45.1188C55.9583 44.4876 55.4467 43.9759 54.8154 43.9759ZM15.9524 43.9759C15.3213 43.9759 14.8096 44.4876 14.8096 45.1188V54.2974H10.2739V45.1188C10.2739 44.4876 9.76214 43.9759 9.131 43.9759C8.49986 43.9759 7.98814 44.4876 7.98814 45.1188V54.2974H3.36314V41.6569H21.6667V54.2974H17.0953V45.1188C17.0953 44.4876 16.5836 43.9759 15.9524 43.9759ZM23.9524 41.6569H39.887V54.2974H23.9524V41.6569ZM59.3333 23.4984H50.1786V14.2498H59.3333V23.4984ZM47.8929 23.4984H38.7619V14.2498H47.8929V23.4984ZM36.4761 23.4984H27.4286V14.2498H36.4761V23.4984ZM25.1429 23.4984H16.0119V14.2498H25.1429V23.4984ZM13.7261 23.4984H4.57614V14.2498H13.7261V23.4984ZM4.57614 25.7841H13.7261V34.8808H4.57614V25.7841ZM16.0119 25.7841H25.1429V34.8808H16.0119V25.7841ZM27.4286 25.7841H36.4761V34.8808H27.4286V25.7841ZM38.7619 25.7841H47.8929V34.8808H38.7619V25.7841ZM50.1786 25.7841H59.3333V34.8808H50.1786V25.7841ZM59.3333 9.70222V11.9641H4.57614V9.70222H59.3333ZM4.57614 37.1665H59.3333V39.3712H4.57614V37.1665Z" fill="#1C379B"/>
</svg>
