<svg width="110" height="110" viewBox="0 0 110 110" fill="none" xmlns="http://www.w3.org/2000/svg">
<path d="M79.8551 76.1322H75.5698V38.4215C76.2511 38.4194 76.9039 38.1479 77.3856 37.6661C77.8674 37.1844 78.1389 36.5316 78.141 35.8503V31.565C78.141 31.3377 78.0507 31.1197 77.8899 30.9589C77.7292 30.7982 77.5112 30.7079 77.2839 30.7079H32.7167C32.4894 30.7079 32.2714 30.7982 32.1107 30.9589C31.95 31.1197 31.8597 31.3377 31.8597 31.565V35.8503C31.8617 36.5316 32.1332 37.1844 32.615 37.6661C33.0967 38.1479 33.7496 38.4194 34.4309 38.4215V76.1322H30.1455C29.9182 76.1322 29.7002 76.2225 29.5395 76.3832C29.3788 76.5439 29.2885 76.7619 29.2885 76.9892V81.2745C29.2885 81.5018 29.3788 81.7198 29.5395 81.8806C29.7002 82.0413 29.9182 82.1316 30.1455 82.1316H79.8551C80.0824 82.1316 80.3004 82.0413 80.4611 81.8806C80.6219 81.7198 80.7122 81.5018 80.7122 81.2745V76.9892C80.7122 76.7619 80.6219 76.5439 80.4611 76.3832C80.3004 76.2225 80.0824 76.1322 79.8551 76.1322ZM33.5738 35.8503V32.422H76.4268V35.8503C76.4268 36.0776 76.3365 36.2956 76.1758 36.4563C76.0151 36.617 75.7971 36.7073 75.5698 36.7073H34.4309C34.2035 36.7073 33.9855 36.617 33.8248 36.4563C33.6641 36.2956 33.5738 36.0776 33.5738 35.8503ZM73.8557 38.4215V76.1322H36.145V38.4215H73.8557ZM78.998 80.4175H31.0026V77.8463H78.998V80.4175Z" fill="#1C379B"/>
<path d="M70.1009 41.4212H39.8997C39.6995 41.4212 39.5074 41.5007 39.3658 41.6423C39.2242 41.7839 39.1447 41.976 39.1447 42.1762V72.3774C39.1447 72.5777 39.2242 72.7697 39.3658 72.9113C39.5074 73.0529 39.6995 73.1324 39.8997 73.1324H70.1009C70.3012 73.1324 70.4932 73.0529 70.6348 72.9113C70.7764 72.7697 70.8559 72.5777 70.8559 72.3774V42.1762C70.8559 41.976 70.7764 41.7839 70.6348 41.6423C70.4932 41.5007 70.3012 41.4212 70.1009 41.4212ZM54.2453 71.6224H40.6547V57.2768H54.2453V71.6224ZM54.2453 55.7667H40.6547V42.9312H54.2453V55.7667ZM69.3459 71.6224H55.7553V57.2768H69.3459V71.6224ZM69.3459 55.7667H55.7553V42.9312H69.3459V55.7667Z" fill="#1C379B"/>
<path fill-rule="evenodd" clip-rule="evenodd" d="M78.141 35.8503C78.1389 36.5316 77.8674 37.1844 77.3856 37.6661C76.9039 38.1479 76.2511 38.4194 75.5698 38.4215V76.1322H79.8551C80.0824 76.1322 80.3004 76.2225 80.4611 76.3832C80.6219 76.5439 80.7122 76.7619 80.7122 76.9892V81.2745C80.7122 81.5018 80.6219 81.7198 80.4611 81.8806C80.3004 82.0413 80.0824 82.1316 79.8551 82.1316H30.1455C29.9182 82.1316 29.7002 82.0413 29.5395 81.8806C29.3788 81.7198 29.2885 81.5018 29.2885 81.2745V76.9892C29.2885 76.7619 29.3788 76.5439 29.5395 76.3832C29.7002 76.2225 29.9182 76.1322 30.1455 76.1322H34.4309V38.4215C33.7496 38.4194 33.0967 38.1479 32.615 37.6661C32.1332 37.1844 31.8617 36.5316 31.8597 35.8503V31.565C31.8597 31.3377 31.95 31.1197 32.1107 30.9589C32.2714 30.7982 32.4894 30.7079 32.7167 30.7079H77.2839C77.5112 30.7079 77.7292 30.7982 77.8899 30.9589C78.0507 31.1197 78.141 31.3377 78.141 31.565V35.8503ZM34.2166 38.6269C33.5569 38.5744 32.9347 38.2888 32.4635 37.8176C31.9417 37.2959 31.6476 36.5888 31.6454 35.8509L31.6454 35.8503L31.6454 31.565C31.6454 31.2808 31.7583 31.0083 31.9592 30.8074C32.1601 30.6065 32.4326 30.4937 32.7167 30.4937H77.2839C77.568 30.4937 77.8405 30.6065 78.0414 30.8074C78.2424 31.0083 78.3552 31.2808 78.3552 31.565V35.8509C78.353 36.5888 78.0589 37.2959 77.5371 37.8176C77.066 38.2888 76.4437 38.5744 75.784 38.6269V75.9179H79.8551C80.1392 75.9179 80.4117 76.0308 80.6126 76.2317C80.8135 76.4326 80.9264 76.7051 80.9264 76.9892V81.2745C80.9264 81.5587 80.8135 81.8312 80.6126 82.0321C80.4117 82.233 80.1392 82.3458 79.8551 82.3458H30.1455C29.8614 82.3458 29.5889 82.233 29.388 82.0321C29.1871 81.8312 29.0742 81.5587 29.0742 81.2745V76.9892C29.0742 76.7051 29.1871 76.4326 29.388 76.2317C29.5889 76.0308 29.8614 75.9179 30.1455 75.9179H34.2166V38.6269ZM33.7881 32.6363V35.8503C33.7881 36.0208 33.8558 36.1843 33.9763 36.3048C34.0969 36.4254 34.2604 36.4931 34.4309 36.4931H75.5698C75.7403 36.4931 75.9038 36.4254 76.0243 36.3048C76.1449 36.1843 76.2126 36.0208 76.2126 35.8503V32.6363H33.7881ZM73.6414 75.9179H36.3592V38.6357H73.6414V75.9179ZM31.2169 80.2032H78.7838V78.0605H31.2169V80.2032ZM39.8997 41.2069H70.1009C70.358 41.2069 70.6045 41.309 70.7863 41.4908C70.9681 41.6726 71.0702 41.9191 71.0702 42.1762V72.3774C71.0702 72.6345 70.9681 72.881 70.7863 73.0628C70.6045 73.2446 70.358 73.3467 70.1009 73.3467H39.8997C39.6426 73.3467 39.3961 73.2446 39.2143 73.0628C39.0325 72.881 38.9304 72.6345 38.9304 72.3774V42.1762C38.9304 41.9191 39.0325 41.6726 39.2143 41.4908C39.3961 41.309 39.6426 41.2069 39.8997 41.2069ZM40.869 71.4081H54.031V57.4911H40.869V71.4081ZM40.869 55.5525H54.031V43.1455H40.869V55.5525ZM55.9696 71.4081H69.1316V57.4911H55.9696V71.4081ZM55.9696 55.5525H69.1316V43.1455H55.9696V55.5525ZM33.5738 35.8503C33.5738 36.0776 33.6641 36.2956 33.8248 36.4563C33.9855 36.617 34.2035 36.7073 34.4309 36.7073H75.5698C75.7971 36.7073 76.0151 36.617 76.1758 36.4563C76.3365 36.2956 76.4268 36.0776 76.4268 35.8503V32.422H33.5738V35.8503ZM73.8557 76.1322V38.4215H36.145V76.1322H73.8557ZM78.998 80.4175V77.8463H31.0026V80.4175H78.998ZM39.8997 41.4212H70.1009C70.3012 41.4212 70.4932 41.5007 70.6348 41.6423C70.7764 41.7839 70.8559 41.976 70.8559 42.1762V72.3774C70.8559 72.5777 70.7764 72.7697 70.6348 72.9113C70.4932 73.0529 70.3012 73.1324 70.1009 73.1324H39.8997C39.6995 73.1324 39.5074 73.0529 39.3658 72.9113C39.2242 72.7697 39.1447 72.5777 39.1447 72.3774V42.1762C39.1447 41.976 39.2242 41.7839 39.3658 41.6423C39.5074 41.5007 39.6995 41.4212 39.8997 41.4212ZM54.2453 71.6224V57.2768H40.6547V71.6224H54.2453ZM54.2453 55.7667V42.9312H40.6547V55.7667H54.2453ZM69.3459 71.6224V57.2768H55.7553V71.6224H69.3459ZM69.3459 55.7667V42.9312H55.7553V55.7667H69.3459Z" fill="#1C379B"/>
</svg>
