<svg width="110" height="110" viewBox="0 0 110 110" fill="none" xmlns="http://www.w3.org/2000/svg">
<path d="M84.5418 39.6466L70.1016 32.1558C70.0611 32.1345 70.0161 32.1262 69.975 32.1094C69.9166 32.0856 69.8607 32.0612 69.801 32.0457C69.7419 32.0309 69.6821 32.0245 69.6224 32.0167C69.5627 32.009 69.5023 32 69.4419 32C69.3815 32 69.3212 32.009 69.2614 32.0167C69.2017 32.0245 69.1413 32.0309 69.0835 32.0457C69.0238 32.0612 68.9666 32.0856 68.9094 32.1088C68.8677 32.1262 68.8227 32.1339 68.7823 32.1558L55.001 39.3035L41.2223 32.1558C41.1812 32.1339 41.1356 32.1262 41.0932 32.1088C41.036 32.0856 40.9801 32.0612 40.921 32.0457C40.8613 32.0309 40.8016 32.0245 40.7412 32.0167C40.6815 32.009 40.6224 32 40.5614 32C40.501 32 40.4412 32.009 40.3815 32.0167C40.3205 32.0245 40.2608 32.0309 40.2017 32.0457C40.1426 32.0612 40.0867 32.0856 40.0295 32.1088C39.9865 32.1262 39.9415 32.1345 39.9004 32.1558L25.4601 39.6466C24.9829 39.8944 24.6836 40.3875 24.6836 40.9262V76.4368C24.6836 76.9408 24.945 77.4075 25.3741 77.6682C25.6027 77.8079 25.8616 77.878 26.1211 77.878C26.3478 77.878 26.5745 77.8246 26.782 77.7158L40.5614 70.5681L54.3401 77.7158C54.3991 77.7467 54.4621 77.7622 54.5231 77.7847C54.5629 77.7989 54.5989 77.8182 54.6394 77.8278C54.7582 77.8587 54.8796 77.8774 55.001 77.8774C55.1224 77.8774 55.2444 77.8587 55.3626 77.8278C55.4024 77.8175 55.439 77.7989 55.4789 77.7847C55.5399 77.7622 55.6028 77.7461 55.6619 77.7158L69.4406 70.5681L83.2193 77.7158C83.4274 77.8246 83.6542 77.878 83.8803 77.878C84.1391 77.878 84.3986 77.8079 84.6273 77.6682C85.0557 77.4075 85.3177 76.9408 85.3177 76.4368V40.9262C85.3184 40.3875 85.0184 39.8944 84.5418 39.6466ZM27.5585 41.803L39.1232 35.803V68.0693L27.5585 74.0686V41.803ZM41.9988 35.803L53.5635 41.803V74.0686L41.9988 68.0693V35.803ZM56.4385 41.803L68.0032 35.803V68.0693L56.4385 74.0686V41.803ZM82.4428 74.0692L70.8781 68.0699V35.803L82.4428 41.803V74.0692Z" fill="#1C379B"/>
</svg>
