<svg width="110" height="110" viewBox="0 0 110 110" fill="none" xmlns="http://www.w3.org/2000/svg">
<path d="M78.3128 36.771V35.0441H79.1762C80.1295 35.0428 80.9018 34.2704 80.9031 33.3171V30.7268C80.9019 29.7737 80.1295 29.0012 79.1762 29H30.8236C29.8703 29.0012 29.0979 29.7737 29.0967 30.7269V33.3172C29.0979 34.2705 29.8703 35.0428 30.8236 35.0442H31.687V36.771C31.6882 37.7242 32.4607 38.4966 33.4139 38.4979V71.3087H30.8236C29.8703 71.3099 29.0979 72.0822 29.0967 73.0355V76.4892C29.0966 76.7183 29.1874 76.938 29.3494 77.0999C29.5114 77.2619 29.7311 77.3527 29.9601 77.3526H31.687V79.0795C31.6882 80.0328 32.4607 80.8051 33.4139 80.8065H76.586C77.5393 80.8052 78.3116 80.0328 78.3129 79.0795V77.3526H80.0398C80.2689 77.3527 80.4886 77.2619 80.6505 77.0999C80.8125 76.9379 80.9033 76.7182 80.9032 76.4892V73.0355C80.902 72.0822 80.1296 71.3099 79.1763 71.3086H76.586V38.4979C77.5392 38.4966 78.3116 37.7242 78.3128 36.771ZM30.8236 33.3172V30.7269H79.1763L79.178 33.3172H30.8236ZM33.4139 79.0795V77.3526H76.5868L76.5877 79.0795H33.4139ZM79.1762 73.0355V75.6258H30.8236V73.0355H79.1762ZM35.1407 71.3086V38.4979H36.8676V71.3087L35.1407 71.3086ZM58.2945 49.7225H61.044C61.5208 49.7225 61.4607 49.7225 61.9074 49.7226C61.6125 49.7225 61.5208 49.7225 61.044 49.7225H54.1364C52.7065 49.724 52.6404 49.7225 51.5461 49.7226H38.5945V38.4979H71.4052V49.7226H58.4536C58.3952 49.7225 58.3853 49.7225 58.2945 49.7225ZM56.7268 49.7226H53.2731C53.8728 49.7227 53.6597 49.7228 54.1364 49.7225L55.8633 49.7226C56.3401 49.7229 56.4067 49.7225 56.7268 49.7226ZM71.4052 51.4495V53.1764H38.5946V51.4495H71.4052ZM71.4052 54.9032V71.3086H38.5946V54.9032H71.4052ZM73.1322 71.3086V38.4979H74.8591V71.3087L73.1322 71.3086ZM33.4139 36.771V35.0441H76.5868L76.5876 36.771H33.4139Z" fill="#1C379B"/>
<path d="M61.044 49.7225H58.2945C58.3853 49.7225 58.3952 49.7225 58.4536 49.7226H71.4052V38.4979H38.5945V49.7226H51.5461C52.6404 49.7225 52.7065 49.724 54.1364 49.7225M61.044 49.7225C61.5208 49.7225 61.4607 49.7225 61.9074 49.7226C61.6125 49.7225 61.5208 49.7225 61.044 49.7225ZM61.044 49.7225H54.1364M54.1364 49.7225C53.6597 49.7228 53.8728 49.7227 53.2731 49.7226H56.7268C56.4067 49.7225 56.3401 49.7229 55.8633 49.7226L54.1364 49.7225ZM78.3128 36.771V35.0441H79.1762C80.1295 35.0428 80.9018 34.2704 80.9031 33.3171V30.7268C80.9019 29.7737 80.1295 29.0012 79.1762 29H30.8236C29.8703 29.0012 29.0979 29.7737 29.0967 30.7269V33.3172C29.0979 34.2705 29.8703 35.0428 30.8236 35.0442H31.687V36.771C31.6882 37.7242 32.4607 38.4966 33.4139 38.4979V71.3087H30.8236C29.8703 71.3099 29.0979 72.0822 29.0967 73.0355V76.4892C29.0966 76.7183 29.1874 76.938 29.3494 77.0999C29.5114 77.2619 29.7311 77.3527 29.9601 77.3526H31.687V79.0795C31.6882 80.0328 32.4607 80.8051 33.4139 80.8065H76.586C77.5393 80.8052 78.3116 80.0328 78.3129 79.0795V77.3526H80.0398C80.2689 77.3527 80.4886 77.2619 80.6505 77.0999C80.8125 76.9379 80.9033 76.7182 80.9032 76.4892V73.0355C80.902 72.0822 80.1296 71.3099 79.1763 71.3086H76.586V38.4979C77.5392 38.4966 78.3116 37.7242 78.3128 36.771ZM30.8236 33.3172V30.7269H79.1763L79.178 33.3172H30.8236ZM33.4139 79.0795V77.3526H76.5868L76.5877 79.0795H33.4139ZM79.1762 73.0355V75.6258H30.8236V73.0355H79.1762ZM35.1407 71.3086V38.4979H36.8676V71.3087L35.1407 71.3086ZM71.4052 51.4495V53.1764H38.5946V51.4495H71.4052ZM71.4052 54.9032V71.3086H38.5946V54.9032H71.4052ZM73.1322 71.3086V38.4979H74.8591V71.3087L73.1322 71.3086ZM33.4139 36.771V35.0441H76.5868L76.5876 36.771H33.4139Z" stroke="#1C379B" stroke-width="0.3"/>
</svg>
