<svg width="64" height="64" viewBox="0 0 64 64" fill="none" xmlns="http://www.w3.org/2000/svg">
<path d="M27.8472 36.885H35.0965C35.7639 36.885 36.305 36.3439 36.305 35.6765V29.6938C36.305 29.0265 35.7639 28.4854 35.0965 28.4854H27.8472C27.1798 28.4854 26.6387 29.0265 26.6387 29.6938V35.6765C26.6387 36.344 27.1798 36.885 27.8472 36.885ZM29.0557 30.9023H33.888V34.468H29.0557V30.9023Z" fill="#1C379B"/>
<path d="M39.9312 36.885H56.825C57.4924 36.885 58.0335 36.3439 58.0335 35.6765V29.6938C58.0335 29.0265 57.4924 28.4854 56.825 28.4854H39.9312C39.2638 28.4854 38.7227 29.0265 38.7227 29.6938V35.6765C38.7227 36.344 39.2638 36.885 39.9312 36.885ZM41.1396 30.9023H55.6165V34.468H41.1396V30.9023Z" fill="#1C379B"/>
<path d="M27.8472 47.7229H35.0965C35.7639 47.7229 36.305 47.1818 36.305 46.5144V40.5317C36.305 39.8643 35.7639 39.3232 35.0965 39.3232H27.8472C27.1798 39.3232 26.6387 39.8643 26.6387 40.5317V46.5144C26.6387 47.1818 27.1798 47.7229 27.8472 47.7229ZM29.0557 41.7402H33.888V45.3059H29.0557V41.7402Z" fill="#1C379B"/>
<path d="M39.9312 47.7229H56.825C57.4924 47.7229 58.0335 47.1818 58.0335 46.5144V40.5317C58.0335 39.8643 57.4924 39.3232 56.825 39.3232H39.9312C39.2638 39.3232 38.7227 39.8643 38.7227 40.5317V46.5144C38.7227 47.1818 39.2638 47.7229 39.9312 47.7229ZM41.1396 41.7402H55.6165V45.3059H41.1396V41.7402Z" fill="#1C379B"/>
<path d="M62.8166 50.1283V24.8241C62.8166 24.1567 62.2755 23.6156 61.6081 23.6156H24.2077V12.6636C24.2077 11.9962 23.6666 11.4551 22.9992 11.4551H2.39177C1.72437 11.4551 1.18327 11.9962 1.18327 12.6636V50.1283C0.52766 50.1419 0 50.6767 0 51.3356C0 52.003 0.541104 52.5441 1.2085 52.5441H62.7915C63.4589 52.5441 64 52.003 64 51.3356C64 50.6765 63.4723 50.1418 62.8166 50.1283ZM60.3996 26.0326V50.127H24.2077V26.0326H60.3996ZM21.7907 13.8721V24.8241V50.127H3.60026V47.7225H18.2282C18.8956 47.7225 19.4367 47.1814 19.4367 46.514C19.4367 45.8466 18.8956 45.3055 18.2282 45.3055H3.60026V42.8927H18.2282C18.8956 42.8927 19.4367 42.3516 19.4367 41.6843C19.4367 41.0169 18.8956 40.4758 18.2282 40.4758H3.60026V38.063H18.2282C18.8956 38.063 19.4367 37.5219 19.4367 36.8545C19.4367 36.1871 18.8956 35.646 18.2282 35.646H3.60026V33.2332H18.2282C18.8956 33.2332 19.4367 32.6921 19.4367 32.0247C19.4367 31.3573 18.8956 30.8162 18.2282 30.8162H3.60026V28.4033H18.2282C18.8956 28.4033 19.4367 27.8622 19.4367 27.1948C19.4367 26.5274 18.8956 25.9863 18.2282 25.9863H3.60026V23.5736H18.2282C18.8956 23.5736 19.4367 23.0325 19.4367 22.3651C19.4367 21.6977 18.8956 21.1566 18.2282 21.1566H3.60026V18.7438H18.2282C18.8956 18.7438 19.4367 18.2027 19.4367 17.5353C19.4367 16.8679 18.8956 16.3268 18.2282 16.3268H3.60026V13.8721H21.7907Z" fill="#1C379B"/>
</svg>
