<svg width="173" height="42" viewBox="0 0 173 42" fill="none" xmlns="http://www.w3.org/2000/svg">
<g clip-path="url(#clip0)">
<path fill-rule="evenodd" clip-rule="evenodd" d="M119.035 10.5429V19.1429H111.947V10.5143H107.843V31.4H111.947V22.7714H119.035V31.4H123.138V10.5143H119.035V10.5429ZM96.9669 13.6571C98.947 13.6571 100.152 14.8286 100.497 16.9429H104.658C104.084 12.3714 100.984 10 96.9382 10C94.6999 10 92.8059 10.7714 91.285 12.2857C90.3667 13.2 89.8214 14.2286 89.5919 15.4286C89.3623 16.6 89.2475 18.6571 89.2475 20.9429C89.2475 23.2286 89.3623 25.2857 89.5919 26.4571C89.8214 27.6286 90.3954 28.6857 91.285 29.6C92.8059 31.1143 94.6999 31.8857 96.9382 31.8857C100.956 31.8857 104.112 29.5429 104.658 24.9429H100.497C100.21 27.0571 98.947 28.2286 96.9669 28.2286C95.8478 28.2286 94.9582 27.8857 94.3555 27.1429C93.4946 26.2286 93.3224 24.9714 93.3224 20.9143C93.3224 16.8571 93.4946 15.6 94.3555 14.6857C94.9869 14 95.8765 13.6571 96.9669 13.6571ZM72.7181 31.4H86.5213V27.7714H76.7931V22.8H85.0578V19.1429H76.7931V14.1714H86.5213V10.5429H72.7181V31.4ZM54.8113 14.1714H60.2924V31.4H64.396V14.1714H69.8771V10.5429H54.8113V14.1714ZM48.2397 24.4571C48.2397 26.8571 46.8049 28.2857 44.5952 28.2857C42.3855 28.2857 40.9794 26.8571 40.9794 24.4571V10.5429H36.8757V24.6C36.8757 29.0286 40.2907 31.9429 44.5952 31.9429C48.8997 31.9429 52.3146 29.0286 52.3146 24.6V10.5429H48.2397V24.4571ZM25.4831 10.5429H21.3794V31.4286H34.9818V27.8H25.4831V10.5429ZM6.88754 24.2857L9.52765 16.6857L12.0817 24.2857H6.88754ZM7.83454 10.5429L0.201172 31.4286H4.477L5.73966 27.7429H13.2008L14.4348 31.4286H18.7106L11.0486 10.5429H7.83454Z" fill="white"/>
<path fill-rule="evenodd" clip-rule="evenodd" d="M43.2749 41.6004C42.9593 41.7147 42.3279 41.9147 41.5818 41.9147C40.7496 41.9147 40.0609 41.7147 39.5443 41.2004C39.0852 40.7433 38.7695 40.029 38.7695 39.1718C38.7695 37.5433 39.8887 36.3433 41.7253 36.3433C42.3566 36.3433 42.8732 36.4861 43.1028 36.6004L42.9306 37.1718C42.6436 37.029 42.2705 36.9433 41.7253 36.9433C40.4053 36.9433 39.5156 37.7718 39.5156 39.1433C39.5156 40.5147 40.3479 41.3433 41.6392 41.3433C42.0984 41.3433 42.414 41.2861 42.5862 41.2004V39.5718H41.467V39.0004H43.2749V41.6004Z" fill="white"/>
<path fill-rule="evenodd" clip-rule="evenodd" d="M45.4563 38.9433H46.1737C46.9198 38.9433 47.4077 38.5433 47.4077 37.9147C47.4077 37.2004 46.8911 36.9147 46.145 36.9147C45.8007 36.9147 45.5711 36.9433 45.4563 36.9718V38.9433ZM44.7676 36.4575C45.1119 36.4004 45.6572 36.3433 46.1163 36.3433C46.8624 36.3433 47.379 36.4861 47.6947 36.8004C47.9529 37.0575 48.1251 37.429 48.1251 37.8575C48.1251 38.5718 47.666 39.0575 47.092 39.2575V39.2861C47.4938 39.429 47.752 39.829 47.8955 40.4004C48.0677 41.1718 48.2112 41.6861 48.326 41.8861H47.6086C47.5225 41.7147 47.4077 41.2575 47.2642 40.5718C47.092 39.829 46.8051 39.5433 46.145 39.5147H45.485V41.8861H44.7676V36.4575Z" fill="white"/>
<path fill-rule="evenodd" clip-rule="evenodd" d="M49.9906 39.1431C49.9906 40.3145 50.622 41.3716 51.7411 41.3716C52.8603 41.3716 53.4916 40.3431 53.4916 39.1145C53.4916 38.0288 52.9177 36.8859 51.7411 36.8859C50.5646 36.8573 49.9906 37.9431 49.9906 39.1431ZM54.2378 39.0573C54.2378 40.9145 53.0899 41.9431 51.6837 41.9431C50.2202 41.9431 49.2158 40.8288 49.2158 39.1716C49.2158 37.4288 50.2776 36.3145 51.7411 36.3145C53.2908 36.2859 54.2378 37.4288 54.2378 39.0573Z" fill="white"/>
<path fill-rule="evenodd" clip-rule="evenodd" d="M56.2754 36.4004V39.629C56.2754 40.829 56.8207 41.3718 57.5381 41.3718C58.3416 41.3718 58.8581 40.829 58.8581 39.629V36.4004H59.5755V39.6004C59.5755 41.2861 58.6859 41.9432 57.5094 41.9432C56.3902 41.9432 55.5293 41.3147 55.5293 39.6004V36.4004H56.2754Z" fill="white"/>
<path fill-rule="evenodd" clip-rule="evenodd" d="M61.9567 39.0861C62.1002 39.1147 62.301 39.1433 62.5306 39.1433C63.3915 39.1433 63.9081 38.7147 63.9081 37.9718C63.9081 37.229 63.3915 36.8861 62.6167 36.8861C62.301 36.8861 62.0715 36.9147 61.9567 36.9433V39.0861ZM61.2393 36.4575C61.5836 36.4004 62.0141 36.3433 62.588 36.3433C63.2767 36.3433 63.7933 36.5147 64.1377 36.8004C64.4246 37.0575 64.6255 37.4575 64.6255 37.9433C64.6255 38.429 64.482 38.829 64.195 39.1147C63.822 39.5147 63.2194 39.7147 62.5306 39.7147C62.3297 39.7147 62.1289 39.7147 61.9567 39.6575V41.8575H61.2393V36.4575Z" fill="white"/>
<path fill-rule="evenodd" clip-rule="evenodd" d="M68.5277 39.1431C68.5277 40.3145 69.1591 41.3716 70.2783 41.3716C71.3974 41.3716 72.0288 40.3431 72.0288 39.1145C72.0288 38.0288 71.4548 36.8859 70.2783 36.8859C69.1017 36.8573 68.5277 37.9431 68.5277 39.1431ZM72.7749 39.0573C72.7749 40.9145 71.627 41.9431 70.2209 41.9431C68.7573 41.9431 67.7529 40.8288 67.7529 39.1716C67.7529 37.4288 68.8147 36.3145 70.2783 36.3145C71.8279 36.2859 72.7749 37.4288 72.7749 39.0573Z" fill="white"/>
<path fill-rule="evenodd" clip-rule="evenodd" d="M74.0957 36.4004H77.0515V36.9718H74.8131V38.8004H76.8793V39.3718H74.8131V41.8575H74.0957V36.4004Z" fill="white"/>
<path fill-rule="evenodd" clip-rule="evenodd" d="M84.4263 41.6859C84.168 41.8287 83.6515 41.943 82.9915 41.943C81.4418 41.943 80.2939 40.9716 80.2939 39.1716C80.2939 37.4573 81.4418 36.3145 83.1636 36.3145C83.8237 36.3145 84.2828 36.4573 84.455 36.5716L84.2828 37.143C84.0245 37.0287 83.6515 36.9145 83.1923 36.9145C81.901 36.9145 81.0401 37.743 81.0401 39.1716C81.0401 40.5145 81.8149 41.3716 83.1349 41.3716C83.5654 41.3716 84.0245 41.2859 84.2828 41.143L84.4263 41.6859Z" fill="white"/>
<path fill-rule="evenodd" clip-rule="evenodd" d="M85.9766 39.1431C85.9766 40.3145 86.6079 41.3716 87.7271 41.3716C88.8463 41.3716 89.4776 40.3431 89.4776 39.1145C89.4776 38.0288 88.9037 36.8859 87.7271 36.8859C86.5792 36.8573 85.9766 37.9431 85.9766 39.1431ZM90.2524 39.0573C90.2524 40.9145 89.1046 41.9431 87.6984 41.9431C86.2349 41.9431 85.2305 40.8288 85.2305 39.1716C85.2305 37.4288 86.2923 36.3145 87.7558 36.3145C89.2767 36.2859 90.2524 37.4288 90.2524 39.0573Z" fill="white"/>
<path fill-rule="evenodd" clip-rule="evenodd" d="M96.1922 39.4575C96.1635 38.6861 96.1061 37.7718 96.1061 37.1147H96.0774C95.8765 37.7432 95.6756 38.429 95.3887 39.1718L94.413 41.829H93.8677L92.9781 39.229C92.7198 38.4575 92.519 37.7718 92.3468 37.1147H92.3181C92.2894 37.8004 92.2607 38.7147 92.2033 39.5147L92.0598 41.8575H91.3711L91.7442 36.4004H92.6338L93.5808 39.029C93.8103 39.7147 93.9825 40.3147 94.126 40.8575H94.1547C94.2982 40.3147 94.4991 39.7147 94.7286 39.029L95.7043 36.4004H96.5939L96.9383 41.8575H96.2496L96.1922 39.4575Z" fill="white"/>
<path fill-rule="evenodd" clip-rule="evenodd" d="M99.234 39.0861C99.3775 39.1147 99.5784 39.1433 99.808 39.1433C100.669 39.1433 101.185 38.7147 101.185 37.9718C101.185 37.229 100.669 36.8861 99.894 36.8861C99.5784 36.8861 99.3488 36.9147 99.234 36.9433V39.0861ZM98.5166 36.4575C98.861 36.4004 99.2914 36.3433 99.8654 36.3433C100.554 36.3433 101.071 36.5147 101.415 36.8004C101.702 37.0575 101.903 37.4575 101.903 37.9433C101.903 38.429 101.759 38.829 101.472 39.1147C101.099 39.5147 100.497 39.7147 99.808 39.7147C99.6071 39.7147 99.4062 39.7147 99.234 39.6575V41.8575H98.5166V36.4575Z" fill="white"/>
<path fill-rule="evenodd" clip-rule="evenodd" d="M105.26 39.5718L104.715 38.0004C104.6 37.6575 104.514 37.3147 104.428 37.0004H104.399C104.313 37.3147 104.227 37.6575 104.113 38.0004L103.567 39.5718H105.26ZM103.452 40.1432L102.879 41.8575H102.161L104.026 36.4004H104.859L106.724 41.8575H105.978L105.404 40.1432H103.452Z" fill="white"/>
<path fill-rule="evenodd" clip-rule="evenodd" d="M107.958 41.8575V36.4004H108.733L110.483 39.1718C110.885 39.8004 111.201 40.3718 111.459 40.9432H111.488C111.43 40.2004 111.402 39.5432 111.402 38.7147V36.429H112.062V41.8861H111.344L109.594 39.1147C109.221 38.5147 108.848 37.8861 108.589 37.2861H108.561C108.589 37.9718 108.618 38.629 108.618 39.5432V41.8861H107.958V41.8575Z" fill="white"/>
<path d="M114.415 36.4004H113.697V41.8575H114.415V36.4004Z" fill="white"/>
<path fill-rule="evenodd" clip-rule="evenodd" d="M118.891 39.2861H116.767V41.2575H119.12V41.8575H116.05V36.4004H119.006V36.9718H116.767V38.7147H118.891V39.2861Z" fill="white"/>
<path fill-rule="evenodd" clip-rule="evenodd" d="M120.383 41.0002C120.699 41.2002 121.158 41.3716 121.646 41.3716C122.363 41.3716 122.794 41.0002 122.794 40.4287C122.794 39.9145 122.507 39.6287 121.761 39.343C120.871 39.0287 120.326 38.543 120.326 37.8002C120.326 36.943 121.043 36.3145 122.105 36.3145C122.65 36.3145 123.081 36.4573 123.31 36.5716L123.109 37.143C122.937 37.0287 122.564 36.8859 122.076 36.8859C121.33 36.8859 121.043 37.343 121.043 37.7145C121.043 38.2287 121.388 38.4859 122.134 38.7716C123.052 39.1145 123.54 39.5716 123.54 40.3716C123.54 41.2002 122.908 41.943 121.617 41.943C121.101 41.943 120.498 41.7716 120.211 41.6002L120.383 41.0002Z" fill="white"/>
<path fill-rule="evenodd" clip-rule="evenodd" d="M154.217 22.8003H153.241V41.8574H156.914C157.689 40.9146 158.321 39.8289 158.837 38.6289C161.219 32.8289 159.181 26.286 154.217 22.8003ZM159.641 41.8574H172.382V33.9146C166.844 33.6574 161.793 36.9146 159.641 41.8574ZM158.091 22.8003C160.243 28.5717 166.183 32.1432 172.382 31.286V22.8003H158.091Z" fill="white"/>
<path fill-rule="evenodd" clip-rule="evenodd" d="M163.228 37.0574C165.179 38.2003 166.844 39.8289 167.991 41.8574H172.382V33.9146C168.938 33.7432 165.696 34.9432 163.228 37.0574ZM153.241 33.3717V41.8574H156.914C157.689 40.9146 158.321 39.8289 158.837 38.6289C159.87 36.1432 160.1 33.486 159.612 31.0289C157.661 32.3717 155.451 33.1431 153.241 33.3717ZM167.561 22.8003H158.091C159.411 26.3431 162.166 29.0574 165.495 30.4289C165.409 27.686 166.126 25.0289 167.561 22.8003Z" fill="white"/>
<path fill-rule="evenodd" clip-rule="evenodd" d="M144.604 32.3148C147.072 29.7148 148.851 26.4291 149.597 22.772H130.456V41.8291H149.597C148.851 38.2005 147.072 34.9148 144.604 32.3148Z" fill="white"/>
<path fill-rule="evenodd" clip-rule="evenodd" d="M144.144 22.8003H130.456V26.286C133.842 26.286 137.028 27.1431 139.811 28.6574C141.533 26.9432 142.997 24.9717 144.144 22.8003ZM139.811 36.0003C137.028 37.5146 133.842 38.3717 130.456 38.3717V41.8574H144.144C142.997 39.686 141.533 37.7146 139.811 36.0003Z" fill="white"/>
<path fill-rule="evenodd" clip-rule="evenodd" d="M130.428 26.2573V30.3145C132.006 30.8288 133.527 31.4859 134.933 32.2859C136.712 31.2859 138.348 30.0288 139.783 28.6002C137.028 27.143 133.843 26.2573 130.428 26.2573ZM130.428 34.3145V38.3716C133.814 38.3716 136.999 37.5145 139.783 36.0002C138.348 34.5716 136.712 33.343 134.933 32.3145C133.527 33.143 132.035 33.8002 130.428 34.3145Z" fill="white"/>
<path fill-rule="evenodd" clip-rule="evenodd" d="M153.241 19.1431H172.382V10.8859H153.241V19.1431ZM153.241 9.14308H172.382V0.0859375H153.241V9.14308Z" fill="white"/>
<path fill-rule="evenodd" clip-rule="evenodd" d="M153.241 16.5428H172.382V12.6571H153.241V16.5428ZM153.241 6.85712H172.382V0.114258H153.241V6.85712Z" fill="white"/>
<path fill-rule="evenodd" clip-rule="evenodd" d="M140.356 13.4002C139.065 12.6002 138.003 11.5717 137.229 10.3717C136.884 9.0288 137.085 7.57165 137.86 6.28594C139.409 3.77165 142.71 3.00022 145.235 4.54308C147.76 6.08594 148.535 9.37165 146.985 11.8859C146.727 12.2859 146.44 12.6288 146.125 12.9431C145.264 13.5145 144.259 13.8574 143.226 13.9717C145.637 14.1716 148.076 13.1717 149.597 11.1431V0.0859375H130.456V19.1431H149.597V14.1145C146.67 15.3145 143.226 15.1716 140.356 13.4002Z" fill="white"/>
<path fill-rule="evenodd" clip-rule="evenodd" d="M136.339 8.77165C135.737 6.48594 136.024 4.00022 137.372 1.82879C137.774 1.17165 138.262 0.571652 138.807 0.0859375H136.684C135.22 2.88594 135.163 6.05736 136.339 8.77165ZM146.728 19.1431H149.569V17.2288C148.708 18.0002 147.761 18.6574 146.728 19.1431ZM131.576 0.0859375H130.428V1.71451C130.485 1.62879 130.543 1.54308 130.571 1.45737C130.887 0.971653 131.231 0.514509 131.576 0.0859375ZM130.428 14.2574V19.1431H135.708C135.364 18.9717 134.991 18.7717 134.646 18.5717C132.867 17.4574 131.432 15.9717 130.428 14.2574Z" fill="white"/>
<path fill-rule="evenodd" clip-rule="evenodd" d="M140.357 13.4C135.794 10.6 134.244 4.7714 136.684 0.114258H133.757L133.728 0.142831C130.6 5.1714 132.178 11.7714 137.229 14.8857C141.189 17.3143 146.125 16.8857 149.569 14.1428C146.67 15.3143 143.227 15.1714 140.357 13.4ZM147.617 0.685686C147.244 0.457115 146.842 0.257115 146.441 0.114258H141.189C139.783 0.657115 138.52 1.65712 137.659 3.02855C136.999 4.08569 136.655 5.22855 136.598 6.3714C136.741 5.74283 136.999 5.11426 137.344 4.54283C139.152 1.62854 142.997 0.71426 145.924 2.51426C148.851 4.31426 149.769 8.11426 147.962 11.0285C146.9 12.7428 145.092 13.7714 143.227 13.9428C145.637 14.1428 148.076 13.1428 149.597 11.1143V2.42855C149.052 1.7714 148.392 1.14283 147.617 0.685686Z" fill="white"/>
</g>
<defs>
<clipPath id="clip0">
<rect width="172.468" height="42" fill="white"/>
</clipPath>
</defs>
</svg>
