<svg width="201" height="19" viewBox="0 0 201 19" fill="none" xmlns="http://www.w3.org/2000/svg">
<g clip-path="url(#clip0)">
<path d="M174.908 16.4V14.7C167.663 14.7 161.994 12.5 161.994 7.6C161.994 2.6 167.663 0.5 174.908 0.5H181.364C188.608 0.5 194.278 2.7 194.278 7.6C194.278 12.6 188.608 14.7 181.364 14.7V16.4H174.908ZM181.364 12C185.774 12 187.506 10.1 187.506 7.5C187.506 4.9 185.931 3 181.364 3V12ZM174.908 3C170.498 3 168.766 4.9 168.766 7.5C168.766 10 170.183 12 174.908 12V3Z" fill="white"/>
<path d="M116.639 0.399902C122.309 0.399902 128.136 1.8999 128.136 6.0999C128.136 10.2999 122.309 11.7999 116.639 11.7999H111.6V16.2999H105.143V2.9999L103.411 0.399902H116.639ZM111.6 2.9999V9.1999H116.639C119.947 9.1999 121.364 8.0999 121.364 6.0999C121.364 3.9999 119.789 2.9999 116.639 2.9999H111.6Z" fill="white"/>
<path d="M144.671 0C153.018 0 158.845 2.9 158.845 8.4C158.845 13.9 152.86 16.8 144.671 16.8C136.325 16.8 130.498 13.9 130.498 8.4C130.498 2.8 136.482 0 144.671 0ZM144.671 2.5C139.317 2.5 137.27 5.3 137.27 8.4C137.27 11.5 139.317 14.3 144.671 14.3C150.026 14.3 152.073 11.4 152.073 8.4C152.073 5.3 150.026 2.5 144.671 2.5Z" fill="white"/>
<path d="M99.6321 16.3999H93.1755V2.9999H81.0495V16.3999H74.5928V0.399902H99.6321V16.3999Z" fill="white"/>
<path d="M63.2544 2.9999V16.3999H56.7977V2.9999H47.8213V0.399902H70.6559L72.3882 2.9999H63.2544Z" fill="white"/>
<path d="M51.2852 16.3999H44.8285L43.2537 13.8999H34.5923L32.86 11.2999H41.5214L36.6396 3.7999L28.6081 16.3999H22.1514L30.9703 2.5999L29.5529 0.399902H41.049L51.2852 16.3999Z" fill="white"/>
<path d="M16.3249 2.9999V16.3999H9.86823V2.9999H0.734375V0.399902H23.569L25.3013 2.9999H16.3249Z" fill="white"/>
</g>
<defs>
<clipPath id="clip0">
<rect width="200" height="19" fill="white" transform="translate(0.734375)"/>
</clipPath>
</defs>
</svg>
