<svg width="191" height="49" viewBox="0 0 191 49" fill="none" xmlns="http://www.w3.org/2000/svg">
<g clip-path="url(#clip0)">
<path d="M25.3538 49.0001C11.7216 48.9798 0.714057 37.9964 0.734403 24.4596C0.75475 10.9025 11.803 -0.0404171 25.4556 0.000112219C39.0064 0.0406416 50.014 11.0646 49.9733 24.5406C49.9326 38.0977 38.9047 49.0406 25.3538 49.0001ZM25.3742 46.7507C37.6839 46.771 47.6945 36.8008 47.7148 24.5406C47.7351 12.2805 37.7653 2.26976 25.4759 2.24949C13.0848 2.22923 3.03357 12.1387 3.01323 24.3785C2.99288 36.7805 12.9424 46.7305 25.3742 46.7507Z" fill="white"/>
<path d="M106.964 14.1858C106.212 15.3206 105.499 16.3947 104.808 17.4484C103.404 19.5357 102 21.6229 100.616 23.7305C100.311 24.2168 99.9449 24.4803 99.3548 24.46C98.9275 24.4397 98.5002 24.4195 98.073 24.3992C97.666 24.3789 97.5439 24.1358 97.5439 23.7507C97.5643 20.3868 97.5439 17.0431 97.5439 13.6792C97.5439 12.3215 97.5643 10.9637 97.5439 9.62625C97.5439 9.18043 97.7474 8.99805 98.1543 8.99805C98.7647 8.97778 99.3955 8.97778 100.006 8.99805C100.433 8.99805 100.616 9.22096 100.616 9.66678C100.596 12.7065 100.576 15.7665 100.555 18.8062C100.555 18.9075 100.576 19.0291 100.576 19.2115C100.677 19.0899 100.738 19.0291 100.779 18.9683C102.875 15.807 104.97 12.666 107.066 9.50467C107.29 9.18043 107.554 8.95752 107.961 8.95752C108.47 8.95752 108.999 8.95752 109.508 8.99805C109.854 9.01831 110.016 9.2007 110.016 9.58572C110.016 14.3277 110.016 19.0696 110.016 23.7913C110.016 24.1763 109.833 24.3587 109.508 24.3789C108.816 24.4195 108.124 24.3992 107.432 24.3789C107.046 24.3587 106.944 24.1155 106.944 23.7305C106.964 20.63 106.964 17.5295 106.964 14.4087C106.985 14.3885 106.985 14.3479 106.964 14.1858Z" fill="white"/>
<path d="M125.765 16.8811C125.826 15.4423 126.009 14.0643 126.579 12.7268C127.596 10.3964 129.427 9.16024 131.909 8.83601C133.13 8.67389 134.331 8.73469 135.511 8.99813C137.627 9.46421 139.112 10.7004 139.763 12.7471C140.638 15.4828 140.658 18.2591 139.478 20.934C138.461 23.2239 136.569 24.3182 134.127 24.6019C132.886 24.7438 131.645 24.683 130.424 24.379C128.003 23.7711 126.619 22.1702 126.111 19.7992C125.948 18.8468 125.887 17.8538 125.765 16.8811ZM137.22 16.8811C137.118 15.8881 137.077 15.1789 136.935 14.4696C136.711 13.274 136.223 12.1999 135.043 11.6528C133.252 10.8219 130.241 11.0246 129.386 14.1048C128.898 15.8476 128.939 17.5904 129.346 19.3331C129.773 21.0961 130.689 21.9067 132.499 22.1296C134.453 22.3526 136.06 21.5622 136.691 19.6168C136.996 18.6441 137.077 17.6309 137.22 16.8811Z" fill="white"/>
<path d="M151.299 16.0904C151.34 16.131 151.36 16.1512 151.401 16.1512C153.09 16.516 154.107 17.7927 154.249 19.3125C154.432 21.3795 153.578 22.8791 151.848 23.71C150.75 24.2368 149.59 24.399 148.41 24.4192C147.026 24.4395 145.622 24.4192 144.239 24.4192C143.486 24.4192 143.201 24.1355 143.201 23.3655C143.201 18.9275 143.201 14.4895 143.201 10.0516C143.201 9.32204 143.486 9.01807 144.219 9.01807C145.907 9.03833 147.616 9.01807 149.305 9.11939C149.977 9.15992 150.648 9.3423 151.279 9.58548C152.642 10.1326 153.313 11.2472 153.374 12.686C153.436 14.1248 152.886 15.2596 151.543 15.9486C151.421 15.9689 151.36 16.0296 151.299 16.0904ZM146.151 17.5698C146.151 19.0693 146.151 20.4473 146.172 21.8253C146.172 21.9064 146.355 22.0685 146.436 22.0685C147.27 22.0888 148.125 22.1293 148.959 22.0483C150.221 21.9469 151.014 21.1566 151.075 20.0623C151.136 18.8059 150.485 17.894 149.264 17.7319C148.267 17.6103 147.25 17.6306 146.151 17.5698ZM146.151 15.3812C146.375 15.3812 146.538 15.3812 146.68 15.3812C147.291 15.3812 147.922 15.4217 148.532 15.3406C149.549 15.2191 150.2 14.4693 150.241 13.456C150.302 12.3415 149.834 11.6119 148.776 11.4296C147.983 11.2877 147.169 11.3282 146.355 11.308C146.274 11.308 146.131 11.4701 146.131 11.5512C146.151 12.8076 146.151 14.0437 146.151 15.3812Z" fill="white"/>
<path d="M70.1367 24.5005C68.2241 24.3992 68.631 24.5613 68.1224 23.1022C67.8985 22.4943 67.7154 21.8661 67.5323 21.2582C67.4509 20.9947 67.3288 20.8731 67.044 20.8934C65.3349 20.9137 63.6054 20.9137 61.8963 20.8934C61.6318 20.8934 61.5097 20.9745 61.4283 21.2379C61.1638 22.1093 60.8789 22.9604 60.6144 23.852C60.4924 24.2371 60.2686 24.46 59.8616 24.46C59.2919 24.46 58.7019 24.4802 58.1322 24.46C57.6235 24.4397 57.4811 24.2573 57.6235 23.771C57.9083 22.8388 58.2339 21.9066 58.5391 20.9745C59.8209 17.2458 61.1231 13.5373 62.3846 9.80861C62.5677 9.28173 62.8322 8.97776 63.4223 8.99802C64.2565 9.01829 65.1111 9.01829 65.9453 9.01829C66.3522 9.01829 66.576 9.22093 66.7184 9.60596C68.3055 14.1858 69.8925 18.7656 71.4796 23.3454C71.8051 24.3181 71.7441 24.3992 70.7471 24.4802C70.5436 24.4802 70.2994 24.4802 70.1367 24.5005ZM62.2625 18.5022C63.7682 18.5022 65.1924 18.5022 66.6574 18.5022C65.9249 16.2933 65.2128 14.125 64.5007 11.9769C64.46 11.9769 64.4193 11.9972 64.3786 11.9972C63.6868 14.1453 62.9747 16.2933 62.2625 18.5022Z" fill="white"/>
<path d="M171.606 8.93723C171.789 8.95749 171.992 8.97776 172.175 8.97776C173.01 8.8967 173.396 9.30199 173.64 10.0721C175.105 14.429 176.631 18.7656 178.137 23.1022C178.239 23.3859 178.3 23.6697 178.361 23.9534C178.422 24.2371 178.279 24.4194 177.974 24.4194C177.201 24.4397 176.407 24.4194 175.634 24.4194C175.329 24.4194 175.187 24.1965 175.105 23.9128C174.82 23.0212 174.515 22.1295 174.251 21.2379C174.169 20.9745 174.068 20.8934 173.783 20.8934C172.074 20.9137 170.344 20.9137 168.635 20.8934C168.35 20.8934 168.228 20.9947 168.147 21.2582C167.882 22.1093 167.597 22.9604 167.333 23.8115C167.211 24.2168 166.967 24.4397 166.539 24.4397C165.99 24.4397 165.441 24.46 164.912 24.4397C164.301 24.4194 164.179 24.2371 164.362 23.6494C164.851 22.1701 165.359 20.711 165.868 19.2317C166.967 16.0704 168.065 12.9091 169.144 9.74782C169.306 9.2412 169.591 8.99802 170.141 8.99802C170.629 8.97776 171.117 8.93723 171.606 8.93723C171.606 8.91696 171.606 8.93723 171.606 8.93723ZM168.981 18.5224C170.487 18.5224 171.89 18.5224 173.396 18.5224C172.664 16.3136 171.952 14.1453 171.239 11.9567C171.199 11.9567 171.158 11.9567 171.117 11.9567C170.426 14.1453 169.713 16.3136 168.981 18.5224Z" fill="white"/>
<path d="M84.4401 16.9821C84.4401 14.7935 84.4401 12.6049 84.4401 10.4163C84.4401 9.32204 84.7453 9.01807 85.8237 9.01807C87.3497 9.03833 88.8757 9.03833 90.3813 9.09913C90.89 9.11939 91.419 9.24098 91.887 9.4031C94.3489 10.2339 95.1628 12.1388 94.8779 14.4085C94.532 17.1645 92.9043 18.6641 90.1168 18.9478C89.425 19.0086 88.7332 19.0086 88.0415 19.0288C87.4718 19.0491 87.4718 19.0288 87.4718 19.6165C87.4718 20.9945 87.4514 22.3725 87.4718 23.7708C87.4718 24.1963 87.2886 24.3787 86.9224 24.399C86.2713 24.4192 85.6202 24.4192 84.9691 24.399C84.5622 24.3787 84.3994 24.1558 84.3994 23.7302C84.4605 21.4808 84.4401 19.2315 84.4401 16.9821ZM87.4921 14.0437C87.4921 14.7732 87.5124 15.523 87.4921 16.2526C87.4921 16.5768 87.5735 16.7389 87.9397 16.7186C88.2653 16.6984 88.5908 16.7186 88.9164 16.7186C90.7069 16.7186 91.6428 15.8473 91.7649 14.064C91.8666 12.6049 91.0731 11.6322 89.6081 11.4701C89.0384 11.4093 88.4687 11.4296 87.8787 11.389C87.5938 11.3688 87.4921 11.4904 87.4921 11.7741C87.5124 12.5036 87.4921 13.2737 87.4921 14.0437Z" fill="white"/>
<path d="M186.52 16.2932C186.744 16.354 186.886 16.3946 187.029 16.4351C188.575 16.7998 189.694 18.1576 189.755 19.7382C189.836 21.9471 188.778 23.5075 186.683 24.2167C184.811 24.8449 182.898 24.8855 180.986 24.2573C180.884 24.2167 180.762 24.1762 180.66 24.1357C179.948 23.8925 179.602 23.4264 179.663 22.6766C179.683 22.3726 179.663 22.0687 179.663 21.7444C179.683 21.2176 179.846 21.1365 180.335 21.3391C181.006 21.6228 181.677 21.9471 182.39 22.1092C183.203 22.2916 184.058 22.2713 184.872 21.9268C185.767 21.5418 186.255 20.8325 186.235 19.9003C186.215 18.9479 185.747 18.2386 184.811 17.9347C184.282 17.7726 183.712 17.6915 183.163 17.651C182.573 17.6104 181.983 17.6307 181.393 17.6307C181.087 17.6307 180.904 17.5091 180.884 17.2051C180.864 16.7593 180.864 16.2932 180.884 15.8474C180.904 15.5029 181.108 15.3611 181.474 15.3611C182.308 15.3611 183.142 15.3611 183.956 15.28C185.421 15.1179 186.174 14.1249 185.991 12.7672C185.869 11.9566 185.279 11.4297 184.363 11.2676C183.264 11.0852 182.247 11.3284 181.25 11.7539C181.148 11.7945 181.067 11.835 180.965 11.8958C179.989 12.3619 179.928 12.3214 179.907 11.2473C179.887 9.93012 180.05 9.68695 181.311 9.26139C183.102 8.67371 184.933 8.53186 186.764 9.09927C188.453 9.60589 189.287 10.761 189.328 12.4835C189.368 14.3478 188.555 15.5637 186.907 16.1716C186.784 16.1716 186.683 16.2324 186.52 16.2932Z" fill="white"/>
<path d="M119.64 24.7231C118.826 24.5813 117.992 24.5002 117.219 24.2773C115.388 23.7504 114.106 22.5143 113.475 20.731C112.519 18.0763 112.539 15.3811 113.618 12.767C114.798 9.88939 117.443 8.65324 120.291 8.7951C121.349 8.85589 122.367 9.09907 123.282 9.62595C123.791 9.90965 124.117 10.3149 124.076 10.9432C124.056 11.3282 124.076 11.7132 124.056 12.0982C124.015 12.7264 123.75 12.848 123.242 12.4833C122.326 11.8348 121.349 11.3687 120.19 11.3484C118.603 11.3282 117.463 12.078 116.812 13.4762C116.507 14.1247 116.324 14.8745 116.222 15.5838C116.059 16.9618 116.1 18.3398 116.609 19.6772C117.3 21.4808 118.806 22.1901 120.617 22.0279C121.594 21.9469 122.468 21.5618 123.282 21.0147C123.872 20.6297 124.096 20.7513 124.137 21.4403C124.137 21.5618 124.137 21.6834 124.137 21.7848C124.157 23.2641 123.974 23.5275 122.591 24.0747C121.655 24.48 120.658 24.6421 119.64 24.7231Z" fill="white"/>
<path d="M156.935 16.881C156.935 14.6316 156.935 12.3822 156.935 10.1329C156.935 9.28175 157.2 9.01831 158.075 9.01831C160.333 9.01831 162.592 9.03858 164.85 8.99805C165.318 8.99805 165.522 9.20069 165.542 9.60599C165.583 10.0518 165.583 10.5179 165.542 10.9637C165.522 11.3487 165.318 11.5514 164.871 11.5311C163.487 11.5109 162.083 11.5109 160.7 11.5311C159.886 11.5311 159.987 11.4298 159.987 12.2607C159.987 16.0704 159.987 19.8802 159.987 23.6899C159.987 24.2776 159.906 24.3992 159.316 24.4195C158.706 24.4397 158.115 24.4397 157.505 24.4195C157.119 24.3992 156.915 24.2168 156.915 23.771C156.935 21.4811 156.935 19.1912 156.935 16.881Z" fill="white"/>
<path d="M76.8915 11.5311C76.8915 11.8148 76.8915 12.0175 76.8915 12.2201C76.8915 16.0096 76.8915 19.8194 76.8915 23.6089C76.8915 24.3181 76.8305 24.3992 76.1183 24.4397C75.569 24.46 74.9993 24.4397 74.4296 24.4397C74.0226 24.4195 73.7988 24.2371 73.7988 23.7913C73.8192 19.252 73.7988 14.6924 73.7988 10.1531C73.7988 9.30202 74.0837 9.03857 74.9179 9.03857C77.1764 9.03857 79.4348 9.03857 81.7137 9.03857C82.263 9.03857 82.3851 9.1399 82.4258 9.70731C82.4461 10.1329 82.4461 10.5584 82.4258 10.984C82.4054 11.3893 82.2223 11.5717 81.7747 11.5717C80.3301 11.5514 78.8855 11.5717 77.4205 11.5717C77.2781 11.5311 77.1153 11.5311 76.8915 11.5311Z" fill="white"/>
<path d="M156.366 31.2894C156.366 32.5863 156.366 33.9035 156.366 35.2004C156.366 35.5449 156.325 35.7273 155.898 35.7476C155.471 35.7476 155.369 35.5855 155.369 35.2004C155.389 33.8022 155.369 32.4039 155.369 31.0057C155.369 30.3572 155.43 30.2964 156.081 30.2964C156.224 30.2964 156.386 30.2964 156.529 30.2964C156.936 30.2964 157.18 30.4788 157.322 30.8638C157.668 31.8365 158.014 32.7889 158.38 33.7616C158.421 33.8832 158.482 34.0048 158.564 34.2075C158.665 34.0048 158.726 33.863 158.787 33.7211C159.133 32.8092 159.5 31.877 159.825 30.9651C159.988 30.499 160.273 30.2964 160.781 30.2964C161.717 30.3167 161.717 30.2964 161.717 31.2488C161.717 32.566 161.717 33.863 161.717 35.1802C161.717 35.5247 161.717 35.7678 161.249 35.7678C160.802 35.7678 160.741 35.5652 160.761 35.2004C160.781 34.0454 160.761 32.87 160.761 31.7149C160.761 31.5731 160.761 31.4312 160.761 31.2894C160.72 31.2894 160.7 31.2691 160.659 31.2691C160.598 31.4109 160.537 31.5325 160.476 31.6744C160.049 32.8903 159.601 34.1061 159.174 35.322C159.052 35.6868 158.848 35.7476 158.523 35.7476C158.197 35.7476 158.014 35.6463 157.912 35.322C157.506 34.0859 157.058 32.8497 156.631 31.6136C156.59 31.492 156.529 31.3704 156.488 31.2691C156.427 31.2691 156.407 31.2691 156.366 31.2894Z" fill="white"/>
<path d="M74.1045 35.7476C72.8227 35.7476 71.6426 35.7476 70.3607 35.7476C70.3607 36.1123 70.3404 36.4568 70.3607 36.8013C70.3811 37.1661 70.1573 37.1661 69.9131 37.1661C69.669 37.1661 69.4248 37.2066 69.4248 36.8216C69.4452 36.2947 69.4248 35.7678 69.4452 35.2409C69.4452 35.1396 69.5469 34.937 69.5876 34.937C70.0555 34.9167 70.1776 34.5317 70.259 34.2277C70.4828 33.3361 70.6863 32.4242 70.8287 31.5122C71.0525 30.1545 70.7473 30.3369 72.1512 30.3166C72.7006 30.3166 73.25 30.3369 73.7993 30.3166C74.1859 30.2964 74.3283 30.4585 74.3283 30.8232C74.3283 31.9783 74.3283 33.1132 74.3283 34.2682C74.3283 34.4506 74.3283 34.6533 74.3283 34.8559C74.4708 34.8762 74.5725 34.9167 74.6742 34.8964C74.9387 34.8762 74.9998 34.9978 74.9998 35.2409C74.9794 35.7678 74.9794 36.2947 74.9998 36.8216C75.0201 37.1661 74.8166 37.1661 74.5725 37.1661C74.3283 37.1661 74.0842 37.1864 74.1045 36.8216C74.1249 36.4568 74.1045 36.1123 74.1045 35.7476ZM73.2296 34.8559C73.2296 33.5995 73.2296 32.3836 73.2296 31.1272C72.9855 31.1272 72.7616 31.1272 72.5378 31.1272C71.9274 31.1272 71.9274 31.1272 71.846 31.7149C71.8054 31.9986 71.785 32.262 71.7036 32.5457C71.5205 33.3158 71.317 34.0859 71.1136 34.8559C71.785 34.8559 72.4971 34.8559 73.2296 34.8559Z" fill="white"/>
<path d="M99.7613 32.2213C99.0492 33.2751 98.3574 34.3288 97.6453 35.3623C97.5435 35.5042 97.4215 35.646 97.2587 35.7068C96.689 35.8689 96.5059 35.7068 96.5059 35.1191C96.5059 33.6803 96.5262 32.2416 96.5059 30.8028C96.5059 30.3975 96.6483 30.2759 97.0552 30.2759C97.4418 30.2759 97.6046 30.3772 97.6046 30.8028C97.5842 31.7957 97.6046 32.7887 97.6046 33.883C97.7267 33.7411 97.7877 33.6601 97.8487 33.579C98.5202 32.5861 99.1916 31.6133 99.8427 30.6001C100.087 30.2151 100.433 30.2759 100.779 30.3164C100.84 30.3164 100.941 30.4988 100.941 30.5798C100.941 32.1808 100.941 33.7817 100.941 35.3826C100.941 35.8284 100.616 35.6865 100.372 35.7068C100.128 35.7271 99.9037 35.7068 99.9037 35.3623C99.9241 34.4707 99.9037 33.5588 99.9037 32.6671C99.9037 32.5253 99.9037 32.3834 99.9037 32.2416C99.8427 32.2416 99.802 32.2416 99.7613 32.2213Z" fill="white"/>
<path d="M134.676 33.822C135.388 32.7682 136.08 31.7347 136.792 30.681C136.874 30.5594 136.975 30.3973 137.097 30.3162C137.545 30.073 137.911 30.3162 137.911 30.8228C137.911 32.3021 137.891 33.7612 137.911 35.2405C137.911 35.6458 137.749 35.7269 137.382 35.7269C137.036 35.7269 136.833 35.6863 136.853 35.2405C136.874 34.2273 136.853 33.214 136.853 32.0995C136.711 32.2616 136.65 32.3427 136.589 32.444C135.938 33.4167 135.287 34.3691 134.656 35.3418C134.452 35.6661 134.188 35.7471 133.842 35.7269C133.598 35.7066 133.496 35.6255 133.496 35.3824C133.496 33.8017 133.496 32.2008 133.496 30.6202C133.496 30.2149 133.781 30.2757 134.025 30.2757C134.269 30.2757 134.554 30.1946 134.554 30.6202C134.554 31.5321 134.554 32.444 134.554 33.3559C134.554 33.4978 134.554 33.6396 134.554 33.7815C134.595 33.8017 134.636 33.8017 134.676 33.822Z" fill="white"/>
<path d="M60.9811 32.2008C60.2689 33.2545 59.5771 34.3083 58.865 35.3418C58.7633 35.5039 58.5801 35.666 58.4174 35.7066C57.8273 35.8282 57.7256 35.7268 57.7256 35.1189C57.7256 33.6598 57.7459 32.2008 57.7256 30.7417C57.7256 30.3162 57.9087 30.2756 58.2546 30.2554C58.6208 30.2554 58.7836 30.3162 58.7836 30.7417C58.7633 31.755 58.7836 32.7682 58.7836 33.8827C58.926 33.7206 59.0074 33.6396 59.0685 33.5585C59.7196 32.5858 60.4113 31.6131 61.0217 30.6201C61.2659 30.2351 61.5914 30.2351 61.9373 30.2959C62.0187 30.3162 62.1408 30.4783 62.1408 30.5593C62.1612 32.1805 62.1612 33.8017 62.1408 35.4229C62.1408 35.8687 61.7746 35.6863 61.5304 35.7066C61.2862 35.7471 61.1031 35.6863 61.1031 35.3621C61.1235 34.4502 61.1031 33.5382 61.1031 32.6263C61.1031 32.4845 61.1031 32.3426 61.1031 32.2008C61.0624 32.2008 61.0217 32.2008 60.9811 32.2008Z" fill="white"/>
<path d="M153.802 32.9712C153.782 33.2144 153.782 33.4778 153.741 33.721C153.415 35.484 152.113 35.9704 150.73 35.788C149.448 35.6259 148.858 34.9977 148.695 33.6197C148.634 33.0928 148.675 32.5254 148.797 31.9985C149.102 30.6813 150.323 29.9923 151.767 30.2152C153.212 30.4584 153.802 31.269 153.802 32.9712ZM152.703 33.0928C152.683 32.7483 152.683 32.5457 152.663 32.3228C152.561 31.5324 152.093 31.0866 151.381 31.0461C150.587 31.0055 150.038 31.3906 149.895 32.1809C149.814 32.7078 149.814 33.2549 149.875 33.7818C149.997 34.5924 150.445 34.9369 151.177 34.9572C151.91 34.9774 152.398 34.5924 152.602 33.8426C152.663 33.5589 152.683 33.2752 152.703 33.0928Z" fill="white"/>
<path d="M67.1252 33.3561C66.3724 33.3561 65.7213 33.3561 64.9888 33.3561C64.9888 33.9843 64.9888 34.572 64.9888 35.1799C64.9888 35.6663 64.5412 35.9297 64.0936 35.6865C64.0122 35.646 63.9512 35.4636 63.9512 35.3623C63.9512 33.7817 63.9512 32.2213 63.9512 30.6406C63.9512 30.2353 64.2157 30.2961 64.4802 30.2961C64.7243 30.2961 65.0092 30.2151 65.0092 30.6204C65.0092 31.1067 65.0092 31.5931 65.0092 32.0794C65.0092 32.3631 65.0906 32.4847 65.3958 32.4645C65.9451 32.4442 66.5148 32.4645 67.1456 32.4645C67.1456 31.8768 67.1456 31.3499 67.1456 30.8028C67.1456 30.3367 67.6339 30.0732 68.0408 30.3164C68.1222 30.3569 68.1629 30.519 68.1629 30.6204C68.1629 32.201 68.1629 33.8019 68.1629 35.3826C68.1629 35.7879 67.8781 35.7271 67.6339 35.7271C67.3898 35.7271 67.1049 35.7879 67.1252 35.3826C67.1456 34.7138 67.1252 34.0654 67.1252 33.3561Z" fill="white"/>
<path d="M166.661 31.147C166.03 31.147 165.44 31.147 164.85 31.147C164.545 31.147 164.606 31.3699 164.606 31.5523C164.606 32.7681 164.606 33.984 164.606 35.2202C164.606 35.3823 164.545 35.6457 164.464 35.666C164.219 35.7268 163.935 35.7065 163.69 35.666C163.629 35.666 163.568 35.4633 163.568 35.362C163.568 33.8016 163.568 32.2413 163.568 30.6809C163.568 30.3769 163.711 30.2553 163.996 30.2756C165.094 30.2756 166.213 30.2756 167.312 30.2756C167.617 30.2756 167.739 30.3972 167.739 30.7012C167.739 32.2413 167.719 33.7814 167.739 35.3215C167.739 35.7876 167.455 35.7065 167.17 35.7065C166.865 35.7268 166.681 35.666 166.681 35.281C166.702 34.0246 166.681 32.7884 166.681 31.532C166.702 31.4307 166.681 31.3294 166.661 31.147Z" fill="white"/>
<path d="M121.024 33.3765C121.024 34.025 121.004 34.6532 121.024 35.2814C121.044 35.6867 120.841 35.7272 120.515 35.7475C120.169 35.7475 119.966 35.707 119.966 35.2814C119.986 33.7616 119.986 32.2417 119.966 30.7421C119.966 30.3166 120.169 30.2963 120.495 30.2963C120.8 30.2963 121.044 30.2963 121.024 30.7219C120.983 31.269 121.024 31.8364 121.024 32.4646C121.695 32.4646 122.326 32.4646 122.957 32.4444C123.018 32.4444 123.12 32.2417 123.14 32.1201C123.16 31.654 123.16 31.1879 123.14 30.7016C123.12 30.3166 123.343 30.276 123.649 30.276C123.954 30.276 124.198 30.2558 124.198 30.6813C124.178 32.2214 124.178 33.7413 124.198 35.2814C124.198 35.6867 123.994 35.7272 123.669 35.7272C123.364 35.7272 123.12 35.707 123.14 35.2814C123.16 34.6532 123.14 34.025 123.14 33.3563C122.428 33.3765 121.756 33.3765 121.024 33.3765Z" fill="white"/>
<path d="M112.783 33.0321C112.783 33.7819 112.763 34.5317 112.783 35.2815C112.803 35.707 112.58 35.7273 112.254 35.7273C111.949 35.7273 111.705 35.7273 111.725 35.3017C111.745 34.0859 111.725 32.8497 111.745 31.6338C111.745 31.2691 111.664 31.1069 111.257 31.1272C110.464 31.1475 110.504 31.1272 110.362 31.9175C110.199 32.8497 110.016 33.7616 109.772 34.6735C109.609 35.322 109.161 35.7476 108.449 35.7678C108.307 35.7678 108.042 35.6462 108.063 35.5652C108.063 35.322 108.103 34.9572 108.225 34.8964C108.612 34.7343 108.815 34.4506 108.897 34.0859C109.1 33.1334 109.263 32.1607 109.446 31.188C109.467 31.0867 109.467 30.9854 109.467 30.884C109.487 30.4179 109.69 30.2558 110.158 30.2761C110.85 30.3166 111.542 30.2964 112.234 30.2761C112.641 30.2558 112.783 30.4179 112.763 30.8232C112.763 31.573 112.783 32.3026 112.783 33.0321Z" fill="white"/>
<path d="M173.762 33.0524C173.762 33.8022 173.741 34.5519 173.762 35.3017C173.782 35.7273 173.558 35.7476 173.233 35.7476C172.928 35.7476 172.683 35.7476 172.704 35.322C172.724 34.0656 172.704 32.8294 172.724 31.573C172.724 31.2488 172.622 31.1475 172.297 31.1475C171.503 31.1475 171.524 31.1475 171.381 31.8973C171.198 32.8092 171.035 33.7211 170.812 34.6127C170.649 35.2612 170.242 35.7476 169.489 35.7881C169.347 35.7881 169.062 35.6665 169.062 35.5854C169.041 35.3625 169.082 34.9572 169.184 34.937C169.733 34.7546 169.876 34.3088 169.977 33.8629C170.181 32.8497 170.344 31.8365 170.486 30.8232C170.527 30.4585 170.649 30.2964 171.035 30.3166C171.788 30.3369 172.541 30.3369 173.294 30.3166C173.64 30.3166 173.762 30.4382 173.762 30.7827C173.762 31.5122 173.762 32.2823 173.762 33.0524Z" fill="white"/>
<path d="M107.311 35.7271C106.944 35.7271 106.66 35.7676 106.395 35.7068C106.273 35.6866 106.13 35.5042 106.09 35.3623C105.764 34.4909 105.764 34.4707 104.828 34.4707C104.788 34.4707 104.747 34.4707 104.686 34.4707C103.709 34.4707 103.709 34.4707 103.363 35.3826C103.221 35.7676 102.997 35.8284 102.265 35.646C102.305 35.4839 102.346 35.3218 102.407 35.1597C102.916 33.7006 103.445 32.2213 103.933 30.7622C104.055 30.4177 104.218 30.2759 104.584 30.2759C105.581 30.3164 105.398 30.1948 105.703 31.0865C106.171 32.4239 106.639 33.7614 107.107 35.1191C107.168 35.2813 107.229 35.4434 107.311 35.7271ZM104.767 31.3702C104.727 31.3702 104.686 31.3702 104.645 31.3702C104.401 32.12 104.157 32.8495 103.913 33.6196C104.482 33.6196 104.95 33.6196 105.52 33.6196C105.256 32.8495 105.011 32.12 104.767 31.3702Z" fill="white"/>
<path d="M144.748 32.4444C145.399 32.5458 145.684 32.4039 145.928 31.9176C146.07 31.6136 146.172 31.2893 146.274 30.9651C146.538 30.2153 146.66 30.1343 147.556 30.3774C147.21 31.2691 147.108 32.2621 146.213 32.8903C147.169 33.4577 147.271 34.5114 147.657 35.3828C147.739 35.5652 147.678 35.707 147.413 35.7273C146.742 35.8084 146.66 35.7476 146.416 35.0991C146.294 34.7749 146.192 34.4304 146.05 34.1061C145.969 33.9035 145.847 33.6806 145.684 33.5793C145.46 33.4374 145.175 33.4374 144.911 33.3563C144.87 33.559 144.788 33.7616 144.768 33.9643C144.748 34.4304 144.748 34.8965 144.768 35.3828C144.788 35.7881 144.504 35.7273 144.259 35.7273C144.015 35.7273 143.73 35.8084 143.73 35.3828C143.73 33.8022 143.73 32.2013 143.73 30.6206C143.73 30.2153 144.015 30.2761 144.259 30.2761C144.504 30.2761 144.788 30.1951 144.788 30.6004C144.727 31.2286 144.748 31.8568 144.748 32.4444Z" fill="white"/>
<path d="M183.02 32.7887C183.326 33.275 183.61 33.7006 183.875 34.1464C184.017 34.4099 184.099 34.6936 184.2 34.957C184.526 35.7473 184.506 35.7473 183.59 35.7068C183.468 35.7068 183.285 35.5447 183.224 35.4028C183.041 34.9975 182.919 34.572 182.756 34.1667C182.674 33.964 182.552 33.7006 182.369 33.579C182.145 33.4372 181.861 33.4169 181.596 33.3561C181.555 33.5587 181.474 33.7411 181.454 33.9438C181.433 34.4099 181.433 34.8759 181.454 35.3623C181.454 35.7068 181.23 35.7271 180.986 35.7068C180.742 35.6865 180.416 35.8081 180.416 35.3826C180.416 33.8019 180.416 32.201 180.416 30.6204C180.416 30.1745 180.742 30.2961 180.986 30.2759C181.271 30.2556 181.474 30.2759 181.474 30.6609C181.454 31.2486 181.474 31.8362 181.474 32.4037C182.023 32.5658 182.369 32.4442 182.593 31.9578C182.797 31.512 182.939 31.0459 183.102 30.6001C183.204 30.3164 183.916 30.1137 184.16 30.3164C184.221 30.3569 184.241 30.4785 184.221 30.5393C183.956 31.1675 183.692 31.816 183.407 32.4239C183.285 32.6266 183.081 32.7279 183.02 32.7887Z" fill="white"/>
<path d="M114.615 32.951C114.615 32.2215 114.635 31.5122 114.594 30.803C114.574 30.3774 114.757 30.2964 115.144 30.2761C115.571 30.2558 115.693 30.4179 115.652 30.803C115.632 31.1069 115.652 31.4109 115.652 31.7352C115.652 32.3228 115.652 32.3228 116.222 32.3228C116.568 32.3228 116.893 32.3228 117.239 32.3836C118.155 32.566 118.582 33.0726 118.582 33.944C118.582 34.8357 118.094 35.4841 117.199 35.6057C116.466 35.707 115.734 35.6868 115.001 35.707C114.696 35.707 114.615 35.5044 114.615 35.2409C114.615 35.2207 114.615 35.2207 114.615 35.2004C114.615 34.4506 114.615 33.7008 114.615 32.951ZM115.652 34.0048C115.652 34.9775 115.652 34.9775 116.649 34.8964C117.199 34.8356 117.504 34.5317 117.524 34.0251C117.545 33.5387 117.26 33.2347 116.731 33.1334C115.734 32.951 115.652 33.0118 115.652 34.0048Z" fill="white"/>
<path d="M127.067 32.3025C127.576 32.343 128.023 32.3633 128.451 32.4038C129.346 32.5051 129.875 33.0726 129.916 33.9034C129.936 34.8153 129.407 35.5246 128.491 35.6462C127.8 35.7272 127.108 35.707 126.416 35.7475C126.152 35.7475 126.05 35.6259 126.05 35.3625C126.05 33.7818 126.05 32.2214 126.05 30.6408C126.05 30.195 126.396 30.3368 126.62 30.3166C126.864 30.2963 127.108 30.2963 127.087 30.6611C127.067 31.1677 127.067 31.7148 127.067 32.3025ZM127.067 33.0928C127.067 33.4778 127.067 33.7818 127.067 34.0655C127.067 35.0382 127.108 35.0585 128.084 34.8964C128.146 34.8761 128.207 34.8761 128.247 34.8558C128.634 34.714 128.817 34.41 128.797 34.0047C128.797 33.5792 128.613 33.2752 128.207 33.1941C127.881 33.1131 127.515 33.1131 127.067 33.0928Z" fill="white"/>
<path d="M92.5383 30.2554C92.9249 30.2959 93.3115 30.3162 93.6778 30.3567C94.4509 30.4783 94.9189 30.9444 95.0206 31.6131C95.1427 32.4237 94.8375 33.1937 94.1661 33.4775C93.7388 33.6598 93.2708 33.7206 92.8029 33.7409C92.4773 33.7612 92.3552 33.8422 92.3756 34.1867C92.3959 34.5717 92.3756 34.9568 92.3756 35.3418C92.3959 35.7876 92.0704 35.6863 91.8262 35.7066C91.5617 35.7066 91.3379 35.7268 91.3379 35.3418C91.3582 33.822 91.3379 32.2818 91.3379 30.762C91.3379 30.4175 91.4803 30.2756 91.8262 30.2959C92.0704 30.2959 92.2942 30.2959 92.5383 30.2959C92.5383 30.2756 92.5383 30.2756 92.5383 30.2554ZM92.8029 33.0316C93.515 33.0316 93.8812 32.7277 93.9219 32.14C93.9626 31.3902 93.5557 31.0457 92.7011 31.1065C92.457 31.1268 92.3552 31.2078 92.3756 31.451C92.3959 31.836 92.3959 32.221 92.3756 32.5858C92.3552 32.9303 92.4773 33.0924 92.8029 33.0316Z" fill="white"/>
<path d="M78.1531 33.275C78.4786 32.4239 78.7431 31.6538 79.028 30.904C79.2721 30.2353 79.5163 30.134 80.2895 30.3772C80.2691 30.4582 80.2691 30.5393 80.2284 30.6203C79.7198 31.9173 79.1907 33.2142 78.6617 34.5111C78.3769 35.2001 77.9903 35.7878 77.1154 35.8081C76.3422 35.8284 76.0574 35.4231 76.3829 34.7138C76.505 34.7543 76.6271 34.8556 76.7492 34.8354C76.973 34.8151 77.2375 34.7746 77.3596 34.6327C77.4613 34.5111 77.4816 34.2072 77.4206 34.0653C76.9119 32.971 76.3626 31.897 75.8336 30.823C75.6097 30.3772 75.6504 30.3164 76.1794 30.2961C76.5864 30.2758 76.8305 30.3974 76.9933 30.7824C77.3392 31.5728 77.7258 32.3631 78.1531 33.275Z" fill="white"/>
<path d="M176.693 31.107C176.693 31.5933 176.693 31.9986 176.693 32.5052C177.14 32.5052 177.588 32.5255 178.056 32.5052C178.341 32.485 178.483 32.5863 178.483 32.8903C178.483 33.2145 178.361 33.2956 178.056 33.2956C177.71 33.2753 177.384 33.2956 177.039 33.2956C176.754 33.2753 176.652 33.3969 176.652 33.6806C176.672 34.0656 176.652 34.4506 176.652 34.9167C177.222 34.9167 177.771 34.9167 178.341 34.9167C178.748 34.9167 178.89 35.0788 178.788 35.4639C178.768 35.5855 178.585 35.7273 178.483 35.7273C177.649 35.7476 176.835 35.7476 176.001 35.7476C175.736 35.7476 175.614 35.6057 175.614 35.3626C175.614 33.8022 175.614 32.2418 175.614 30.6814C175.614 30.3977 175.777 30.2964 176.042 30.2964C176.835 30.2964 177.629 30.3167 178.442 30.2964C178.748 30.2964 178.788 30.4585 178.788 30.6814C178.788 30.9246 178.748 31.1272 178.422 31.1272C177.852 31.107 177.283 31.107 176.693 31.107Z" fill="white"/>
<path d="M84.9698 31.5525C84.7867 31.4512 84.6239 31.3701 84.4815 31.2891C83.5049 30.7825 82.5689 31.1675 82.3248 32.2415C82.223 32.7481 82.223 33.2953 82.3248 33.8019C82.5079 34.7746 83.3828 35.1799 84.3391 34.8151C84.5629 34.7341 84.7664 34.6125 84.9698 34.5314C85.214 35.0786 85.1123 35.3825 84.6239 35.5852C83.7287 35.9499 82.8538 35.9499 82.0399 35.4028C81.1447 34.7746 81.0633 33.8222 81.0836 32.8292C81.0836 32.5657 81.1447 32.3023 81.2261 32.0591C81.6126 30.6203 82.9352 29.9111 84.3594 30.3569C85.0105 30.5393 85.1326 30.7622 84.9698 31.5525Z" fill="white"/>
<path d="M189.267 31.5324C188.88 31.3703 188.575 31.2082 188.249 31.1271C187.598 30.965 186.988 31.2487 186.723 31.8769C186.398 32.6267 186.377 33.3968 186.703 34.1466C187.008 34.8761 187.802 35.1396 188.616 34.8153C188.839 34.7343 189.043 34.6127 189.246 34.5316C189.491 35.1396 189.368 35.4233 188.819 35.6259C186.825 36.4162 185.096 34.9774 185.38 32.7281C185.421 32.3836 185.503 32.0391 185.625 31.6946C186.133 30.3976 187.741 29.8099 188.982 30.4584C189.429 30.7016 189.307 31.1069 189.267 31.5324Z" fill="white"/>
<path d="M87.4721 31.127C87.0448 31.127 86.6786 31.1067 86.3124 31.127C86.0072 31.1473 85.9258 30.9851 85.9258 30.7217C85.9258 30.4583 85.9665 30.2759 86.3124 30.2759C87.4314 30.2961 88.5505 30.2961 89.6899 30.2759C90.0358 30.2759 90.0765 30.438 90.0765 30.7014C90.0765 30.9851 90.0155 31.1473 89.6696 31.127C89.3237 31.1067 88.9574 31.127 88.5708 31.127C88.5708 31.3094 88.5505 31.4715 88.5505 31.6336C88.5505 32.8495 88.5301 34.0654 88.5505 35.3015C88.5505 35.7271 88.3267 35.7271 88.0215 35.7271C87.7163 35.7271 87.4721 35.7271 87.4925 35.3015C87.5128 34.1059 87.4925 32.9103 87.4925 31.7349C87.4925 31.5526 87.4925 31.3904 87.4721 31.127Z" fill="white"/>
<path d="M131.685 33.0321C131.685 33.8022 131.665 34.552 131.685 35.322C131.705 35.7273 131.481 35.7273 131.176 35.7273C130.891 35.7273 130.627 35.7678 130.627 35.322C130.647 33.7819 130.647 32.2418 130.627 30.7017C130.627 30.2558 130.891 30.2964 131.176 30.2964C131.461 30.2964 131.685 30.2964 131.685 30.7017C131.665 31.4717 131.685 32.2418 131.685 33.0321Z" fill="white"/>
<path d="M135.591 29.9317C135.449 29.8911 135.124 29.8709 134.859 29.729C134.656 29.6074 134.472 29.3845 134.35 29.1616C134.269 28.9995 134.167 28.6753 134.493 28.6347C134.737 28.5942 135.042 28.4726 135.185 28.8982C135.246 29.0806 135.571 29.2832 135.775 29.2832C135.978 29.2832 136.304 29.0806 136.365 28.8982C136.527 28.4726 136.853 28.5739 137.097 28.6347C137.423 28.7158 137.28 29.0198 137.199 29.2224C136.914 29.8709 136.344 29.9114 135.591 29.9317Z" fill="white"/>
<path d="M32.1294 24.0749C34.5507 27.0944 34.4896 30.1341 32.516 33.3562C32.8822 33.5183 33.2281 33.7209 33.5944 33.802C35.1 34.1668 36.6057 34.1262 38.1113 33.6804C38.4572 33.5791 38.62 33.417 38.62 33.0319C38.5996 32.1403 38.62 31.2284 38.6607 30.3367C38.681 29.9517 38.5386 29.8504 38.1724 29.8706C37.9079 29.8909 37.6434 29.8504 37.3789 29.8706C37.0126 29.9112 36.7888 29.7288 36.7481 29.3843C36.7074 28.8979 36.7074 28.3913 36.7278 27.905C36.7481 27.6213 36.9516 27.4591 37.2364 27.4591C38.2741 27.4591 39.3118 27.4186 40.3495 27.4794C40.9395 27.4997 41.143 27.8036 41.143 28.3711C41.143 30.4988 41.1226 32.6064 41.143 34.7342C41.143 35.261 40.9395 35.6461 40.4512 35.7879C39.5966 36.0514 38.7217 36.3351 37.8468 36.4567C35.9342 36.7201 34.0217 36.639 32.1294 36.1527C29.2605 35.4029 27.7345 33.4575 27.2055 30.6407C26.941 29.1614 26.941 27.6821 27.2869 26.223C27.3276 26.0609 27.3683 25.8988 27.4293 25.7164C29.1588 26.4459 30.4406 28.1076 29.8709 30.1138C29.8099 30.3367 29.7082 30.5596 29.6878 30.7826C29.6878 30.9649 29.7285 31.2486 29.8506 31.3297C30.1151 31.4918 30.2982 31.2892 30.3796 31.046C30.9086 29.5667 30.8883 28.1279 29.9116 26.8107C29.2809 25.9798 28.4467 25.3921 27.5311 24.9261C25.8626 24.0952 24.1739 23.3252 22.5461 22.4538C21.834 22.0687 21.1626 21.5419 20.5522 20.9947C17.2967 18.1577 18.1106 12.2201 22.6479 10.4571C24.418 9.76808 26.2289 9.64649 28.0804 9.72755C28.6908 9.74782 29.3012 9.8694 29.932 9.9302C30.3796 9.99099 30.6848 10.2544 30.7662 10.6597C30.8476 11.0853 30.8679 11.5311 30.8069 11.9567C30.7255 12.5038 30.4813 12.6659 29.9116 12.6457C29.3012 12.6457 28.6705 12.5646 28.0601 12.5849C26.9817 12.6254 25.883 12.5849 24.8453 12.8078C21.5695 13.517 21.5492 17.185 23.1972 18.7453C23.7059 19.2317 24.3163 19.6775 24.947 20.0017C26.3713 20.7515 27.8363 21.4203 29.2809 22.1295C29.4844 22.2309 29.6268 22.2714 29.8302 22.1093C31.4987 20.8123 33.4316 20.4273 35.4866 20.4678C36.8295 20.4881 38.1113 20.7515 39.3525 21.3189C40.0646 21.6432 40.3698 22.1701 40.3495 22.9199C40.3495 23.2036 40.3088 23.5075 40.2884 23.7912C40.2274 24.3789 40.0036 24.4802 39.4542 24.2573C38.5386 23.8723 37.623 23.4467 36.6464 23.2036C35.4459 22.8996 34.2455 23.0009 33.0857 23.467C32.7602 23.6697 32.455 23.8723 32.1294 24.0749Z" fill="white"/>
<path d="M27.2867 33.174C27.9581 34.0251 28.5889 34.8154 29.2807 35.6665C28.6906 35.8286 28.0599 36.0313 27.4088 36.1529C25.3945 36.5176 23.3598 36.4974 21.3048 36.3555C20.9589 36.3352 20.7758 36.1326 20.674 35.8286C20.3892 34.9573 20.0636 34.0859 19.7991 33.1942C19.7178 32.9105 19.5753 32.8092 19.2701 32.8092C17.561 32.8295 15.8722 32.8295 14.1631 32.8092C13.8783 32.8092 13.7358 32.9105 13.6748 33.174C13.4306 33.9643 13.1865 34.7343 12.922 35.5247C12.6982 36.2339 12.5557 36.3555 11.8233 36.3758C11.3349 36.396 10.8466 36.3758 10.3583 36.3758C9.76824 36.3555 9.58512 36.1326 9.76824 35.5855C10.3176 33.944 10.8873 32.3026 11.457 30.6611C12.515 27.6012 13.5934 24.5615 14.6514 21.5218C14.8549 20.9341 15.0584 20.7922 15.6891 20.772C16.4419 20.772 17.1948 20.772 17.9476 20.772C18.7004 20.772 18.8835 20.9138 19.1277 21.6434C20.4299 25.3518 21.7321 29.0602 23.0139 32.7889C23.1563 33.1942 23.3598 33.3766 23.7667 33.4577C24.8451 33.6603 25.8828 33.5793 26.9205 33.2955C27.1036 33.2145 27.246 33.174 27.2867 33.174ZM16.7675 23.913C16.7471 23.913 16.7064 23.8927 16.6861 23.8927C15.974 26.0408 15.2415 28.1686 14.5294 30.3572C16.035 30.3572 17.4593 30.3572 18.9446 30.3572C18.1918 28.1686 17.4796 26.0408 16.7675 23.913Z" fill="white"/>
</g>
<defs>
<clipPath id="clip0">
<rect width="190" height="49.0006" fill="white" transform="translate(0.734375)"/>
</clipPath>
</defs>
</svg>
