<svg width="152" height="48" viewBox="0 0 152 48" fill="none" xmlns="http://www.w3.org/2000/svg">
<g clip-path="url(#clip0)">
<path d="M114.894 39.652C117.613 39.652 120.157 39.652 122.875 39.652C122.586 40.1738 122.355 40.5216 122.124 40.9274C121.777 41.5071 121.372 42.0288 121.025 42.6086C120.793 42.9564 120.562 43.1303 120.157 43.1303C116.745 43.1303 113.333 43.0723 109.921 43.1303C108.822 43.1303 108.533 42.6086 109.111 41.739C110.21 39.9999 111.251 38.2607 112.35 36.5796C114.085 33.8549 115.82 31.0723 117.555 28.3477C118.943 26.0868 120.389 23.8839 121.834 21.623C123.743 18.6086 125.651 15.5361 127.56 12.5216C128.601 10.8404 129.7 9.15928 130.798 7.47812C131.261 6.78247 131.724 6.02884 132.244 5.15928C131.897 5.15928 131.724 5.15928 131.55 5.21725C129.584 5.85493 127.618 6.55058 125.593 7.24623C123.511 7.94189 121.372 8.69551 119.29 9.39116C117.439 10.0288 115.531 10.6086 113.68 11.2462C112.119 11.768 110.615 12.3477 109.053 12.8694C107.203 13.5071 105.294 14.0868 103.444 14.7245C102.171 15.1303 100.957 15.652 99.7424 16.0578C98.4701 16.4636 97.1978 16.8694 95.9255 17.2752C94.364 17.797 92.8026 18.3767 91.2411 18.8984C90.2001 19.2462 89.217 19.5361 88.176 19.8839C86.6723 20.4057 85.1109 20.9274 83.6072 21.4491C82.0458 21.9709 80.4265 22.4926 78.865 23.0143C77.8819 23.3622 76.8987 23.71 75.9156 24.0578C74.9324 24.4057 73.8914 24.6955 72.9083 24.9854C71.6938 25.3912 70.5372 25.797 69.3227 26.2028C67.9347 26.6665 66.5467 27.1303 65.1588 27.5941C63.5973 28.1158 62.0936 28.6955 60.5322 29.2172C58.6815 29.8549 56.7731 30.4346 54.9224 31.0723C53.6501 31.4781 52.3778 31.9999 51.1055 32.4057C48.6766 33.2172 46.3054 33.9709 43.8765 34.7825C42.6042 35.1883 41.3319 35.71 40.0596 36.1158C38.7872 36.5216 37.5728 36.9274 36.3005 37.3332C34.739 37.8549 33.1775 38.4346 31.616 38.9564C30.5751 39.3042 29.5919 39.652 28.5509 39.9419C27.3365 40.3477 26.122 40.7535 24.9653 41.1593C24.04 41.4491 23.1725 41.797 22.2472 42.0868C21.2641 42.4346 20.2231 42.7825 19.2399 43.0723C18.0255 43.4781 16.811 43.8839 15.4808 44.3477C15.6543 44.4636 15.77 44.5216 15.8857 44.5216C16.2327 44.5796 16.5797 44.5796 16.9267 44.5796C28.3774 44.5796 39.8282 44.5796 51.3368 44.5796C51.4525 44.5796 51.5682 44.5796 51.6838 44.5796C52.32 44.6375 52.7248 44.3477 53.0718 43.8259C54.5755 41.5651 56.1948 39.3042 57.6984 37.0433C59.3755 34.6086 61.0527 32.1738 62.672 29.739C63.0768 29.1593 63.4816 28.9274 64.1756 28.9274C67.472 28.9854 70.7106 28.9274 74.0071 28.9854C74.7011 28.9854 75.3951 29.1013 76.0312 29.3332C77.4192 29.8549 77.7084 30.9564 77.4192 32.4057C77.0722 34.1448 75.8577 35.1883 74.2962 35.8259C73.2553 36.2897 72.1565 36.5796 70.9998 36.6955C70.7106 36.7535 70.4215 36.8694 70.0745 36.9854C70.9998 38.8984 71.2311 40.9274 71.983 42.9564C70.3637 42.9564 68.86 42.9564 67.2407 42.9564C67.1251 42.4926 67.0094 41.9709 66.8937 41.4491C66.7202 40.8115 66.5467 40.1158 66.3732 39.4781C66.3154 39.3042 66.3154 39.0723 66.3154 38.8404C66.2576 38.3187 66.0262 38.0868 65.4479 38.0288C64.3491 38.0288 63.2503 38.0288 62.0936 38.0288C61.6888 38.0288 61.4575 38.1448 61.2262 38.4926C59.9538 40.4057 58.6237 42.3187 57.2936 44.2317C56.6574 45.1013 56.0791 46.0288 55.4429 46.8984C54.9803 47.5361 54.402 47.8839 53.5923 47.8839C53.1875 47.8839 52.7826 47.8839 52.32 47.8839C36.1848 47.8839 20.1074 47.8839 3.97223 47.8839C3.50957 47.8839 2.98908 47.9419 2.52642 47.8259C2.06377 47.768 1.60111 47.652 1.25411 47.4202C0.675792 47.1303 0.560127 46.3187 1.02279 45.8549C1.48544 45.3912 2.00593 44.9854 2.58426 44.7535C3.79873 44.2897 5.01321 43.9419 6.22769 43.5361C8.36748 42.8404 10.5073 42.0868 12.6471 41.3332C13.688 40.9854 14.6712 40.6955 15.7122 40.3477C16.9845 39.9419 18.199 39.4781 19.4713 39.0144C21.0327 38.4926 22.5364 38.0288 24.0979 37.5071C25.428 37.0433 26.7581 36.5796 28.0883 36.1158C29.0714 35.768 30.0546 35.4781 31.0956 35.1883C32.0209 34.8984 33.004 34.5506 33.9293 34.2607C35.2595 33.797 36.5318 33.3912 37.8619 32.9274C38.9607 32.5796 40.0017 32.1738 41.1005 31.8259C42.0259 31.5361 42.8933 31.2462 43.8187 30.9564C44.8596 30.6086 45.8428 30.3187 46.8838 29.9709C48.2717 29.5071 49.6019 29.0433 50.9899 28.5796C51.973 28.2317 53.014 27.8839 53.9971 27.5361C54.9803 27.1883 56.0213 26.9564 57.0044 26.6086C58.2767 26.2028 59.4912 25.739 60.7635 25.3332C61.8045 24.9854 62.9033 24.6375 63.9443 24.2897C64.9274 23.9419 65.9106 23.5941 66.8937 23.2462C67.819 22.9564 68.7444 22.6665 69.6697 22.3187C70.9998 21.8549 72.3878 21.3912 73.7179 20.9854C74.7589 20.6375 75.7999 20.2897 76.8409 19.9419C77.824 19.5941 78.8072 19.2462 79.7903 18.8984C81.0626 18.4926 82.3349 18.0868 83.5494 17.681C84.5904 17.3332 85.5735 16.9854 86.6145 16.6375C87.6555 16.2897 88.6965 15.9419 89.7375 15.652C90.7206 15.3042 91.7038 14.9564 92.6869 14.6086C93.9592 14.2028 95.2315 13.797 96.446 13.3912C97.487 13.0433 98.528 12.6955 99.5689 12.2897C100.263 12.0578 101.015 11.8259 101.709 11.5941C102.345 11.3622 102.981 11.1883 103.675 10.9564C104.716 10.6086 105.757 10.2607 106.798 9.9129C108.475 9.33319 110.094 8.75348 111.772 8.23174C112.755 7.88392 113.796 7.59406 114.837 7.30421C115.762 7.01435 116.629 6.7245 117.555 6.43464C118.885 5.97087 120.215 5.5071 121.603 5.04334C122.644 4.69551 123.685 4.28971 124.726 3.94189C125.709 3.59406 126.692 3.30421 127.733 3.01435C128.659 2.7245 129.642 2.37667 130.567 2.08681C131.897 1.62305 133.227 1.15928 134.557 0.753481C135.309 0.463626 136.119 0.173771 136.929 -0.000141881C137.391 -0.116084 137.97 -0.116084 138.432 -0.0581129C139.011 0.0578291 139.184 0.869423 138.837 1.5071C138.49 2.20276 138.085 2.89841 137.68 3.53609C136.292 5.73899 134.904 7.88392 133.516 10.0868C131.955 12.5796 130.336 15.1303 128.774 17.623C127.328 19.8839 125.94 22.1448 124.495 24.4057C123.28 26.3767 122.008 28.3477 120.736 30.3187C118.943 33.1593 117.15 35.9999 115.357 38.8404C115.184 39.1303 115.068 39.3622 114.894 39.652ZM66.8359 35.5941C67.7612 35.5361 68.86 35.71 69.9588 35.4201C70.9998 35.1883 71.636 34.5506 71.983 33.5651C72.2721 32.6375 71.8673 31.8839 70.8841 31.8839C69.3227 31.8259 67.7612 31.8839 66.1997 31.8839C66.0262 31.8839 65.7949 31.9999 65.6792 32.1158C65.0431 32.9854 64.4069 33.9129 63.8286 34.8404C63.4816 35.3622 63.5973 35.5941 64.2334 35.5941C64.9853 35.5941 65.7949 35.5941 66.8359 35.5941Z" fill="white"/>
<path d="M82.277 34.4925C85.3999 34.4925 88.3494 34.4925 91.4723 34.4925C90.9518 35.536 90.4313 36.4635 89.9108 37.3911C89.853 37.565 89.4482 37.565 89.2168 37.565C86.6722 37.565 84.0698 37.623 81.5252 37.565C80.6577 37.565 80.0793 37.7389 79.7902 38.6085C79.6745 38.8983 79.501 39.1882 79.3275 39.478C79.2697 39.594 79.2697 39.7679 79.2697 39.9998C82.3348 39.9998 85.3999 39.9998 88.5229 39.9998C87.9445 41.0432 87.424 41.9708 86.9614 42.9563C86.7879 43.2461 86.5566 43.3621 86.2674 43.3621C82.5661 43.3041 78.807 43.3041 75.1058 43.2461C74.9323 43.2461 74.7588 43.2461 74.6431 43.1882C73.8335 43.0722 73.4865 42.5505 73.8913 41.8548C74.9901 39.7099 76.1468 37.623 77.2456 35.478C78.2865 33.565 79.3275 31.6519 80.3685 29.7969C80.4842 29.6229 80.5998 29.3911 80.7155 29.1592C85.2264 29.1592 89.7373 29.1592 94.4217 29.1592C94.0169 30.3186 93.3229 31.1882 92.8024 32.2316C92.5133 32.2316 92.2241 32.2316 91.9928 32.2316C89.3325 32.2316 86.7301 32.2316 84.0698 32.2316C83.5493 32.2316 83.2601 32.3476 83.0288 32.8114C82.8553 33.2172 82.5661 33.623 82.3926 34.0287C82.277 34.0867 82.3348 34.2606 82.277 34.4925Z" fill="white"/>
<path d="M106.451 43.0724C104.947 43.0724 103.617 43.0724 102.229 43.0724C102.171 42.4347 102.113 41.7971 102.345 41.2174C102.576 40.5217 102.345 40.2318 101.651 40.2318C99.6843 40.2318 97.7758 40.2318 95.8095 40.2318C95.4047 40.2318 95.1733 40.4058 94.942 40.6376C94.3059 41.3333 93.6119 42.0289 92.9179 42.7246C92.7444 42.8985 92.3974 43.1304 92.1661 43.1304C90.7203 43.1884 89.2745 43.1304 87.7708 43.1304C87.713 43.1304 87.5973 43.0724 87.4238 43.0145C87.5395 42.8405 87.5973 42.7246 87.713 42.6087C89.3901 41.1014 91.0673 39.6521 92.7444 38.1449C94.7685 36.3478 96.7348 34.5507 98.7589 32.8116C100.205 31.5362 101.708 30.2029 103.212 28.9275C103.617 28.5797 104.022 28.4058 104.6 28.4058C105.294 28.4058 105.988 28.4058 106.682 28.4058C107.607 28.4058 107.896 28.6376 107.781 29.5072C107.665 31.0145 107.434 32.4637 107.318 33.971C107.318 34.0289 107.318 34.0869 107.318 34.0869C107.202 35.5362 107.145 36.9855 106.971 38.4347C106.798 40 106.624 41.5072 106.451 43.0724ZM102.981 32.5217C102.923 32.5217 102.865 32.4637 102.807 32.4637C101.246 34.1449 99.6264 35.7681 97.9493 37.5652C98.3541 37.6232 98.5276 37.6811 98.7589 37.6811C99.7999 37.6811 100.841 37.6811 101.882 37.6811C102.634 37.6811 102.634 37.6231 102.692 36.8695C102.749 36.1739 102.865 35.4782 102.923 34.7826C102.981 34.0289 103.039 33.2753 102.981 32.5217Z" fill="white"/>
<path d="M133.69 43.1301C135.946 39.5359 138.086 36.1156 140.341 32.5214C139.127 32.5214 138.086 32.5214 136.871 32.5214C137.623 31.304 138.317 30.2025 139.011 29.1011C143.233 29.1011 147.512 29.1011 151.792 29.1011C151.792 29.217 151.85 29.333 151.792 29.3909C151.214 30.2605 150.635 31.1301 150.115 32.0576C149.941 32.3474 149.71 32.4634 149.305 32.4634C148.206 32.4634 147.107 32.4634 146.066 32.4634C145.72 32.4634 145.43 32.5793 145.257 32.8692C143.869 35.0141 142.539 37.217 141.209 39.3619C140.515 40.4634 139.821 41.6228 139.127 42.7243C139.011 42.8982 138.78 43.1301 138.548 43.1301C136.929 43.1301 135.425 43.1301 133.69 43.1301Z" fill="white"/>
<path d="M136.813 29.0435C135.887 30.4927 135.078 31.7681 134.268 33.0435C132.822 35.3623 131.376 37.6232 129.931 39.942C129.352 40.8695 128.774 41.7391 128.196 42.6666C128.022 42.9565 127.849 43.1304 127.502 43.1304C126.229 43.1304 124.899 43.1304 123.627 43.1304C123.569 43.1304 123.511 43.0724 123.396 43.0145C124.205 41.6811 125.015 40.4058 125.824 39.1304C127.27 36.8695 128.658 34.6087 130.104 32.3478C130.74 31.3623 131.319 30.3768 132.013 29.4493C132.128 29.2753 132.36 29.1014 132.533 29.1014C133.863 29.0435 135.251 29.0435 136.813 29.0435Z" fill="white"/>
</g>
<defs>
<clipPath id="clip0">
<rect width="151" height="48" fill="white" transform="translate(0.734375)"/>
</clipPath>
</defs>
</svg>
