<svg width="230" height="52" viewBox="0 0 230 52" fill="none" xmlns="http://www.w3.org/2000/svg">
<path d="M4.53711 38.6654H8.35191V24.5635L4.53711 25.9106V38.6654Z" fill="#1C379B"/>
<path d="M0 0V51.1051H40.3444V0H0ZM5.6933 6.01911H33.6974V17.1115H32.5703V7.13694H6.8204V21.8694H5.6933V6.01911ZM25.8655 21.6115V20.4363L30.8074 18.6879V39.6975H25.8655V38.5796H29.6803V20.2643L25.8655 21.6115ZM24.7384 14.0446V20.8089V39.6688V39.6975H20.6924V11.8949L24.7384 14.0446ZM14.6234 14.8471V23.8185L13.4963 23.2166V14.0446L19.5653 11.8949V39.7548H15.7505V38.6369H18.4382V13.4713L14.6234 14.8471ZM14.6234 38.5796V39.6975V39.7548H10.5774V22.9013L13.4963 24.449L14.6234 25.051H14.6523V38.5796H14.6234ZM3.4102 25.1083L9.4792 22.9586V39.7548H3.4102V25.1083ZM33.6974 45.086H5.6933V41.6752H6.8204V43.9682H32.5703V41.6752H33.6974V45.086ZM35.9805 39.6975H31.9345V18.6879L35.9805 20.8376V39.6975Z" fill="#1C379B"/>
<path d="M58.1618 34.3042C58.9858 34.3042 59.6178 34.5122 60.0578 34.9282C60.4978 35.3362 60.7178 35.9442 60.7178 36.7522V40.6642H59.9018V39.6802C59.7098 40.0082 59.4258 40.2642 59.0498 40.4482C58.6818 40.6322 58.2418 40.7242 57.7298 40.7242C57.0258 40.7242 56.4658 40.5562 56.0498 40.2202C55.6338 39.8842 55.4258 39.4402 55.4258 38.8882C55.4258 38.3522 55.6178 37.9202 56.0018 37.5922C56.3938 37.2642 57.0138 37.1002 57.8618 37.1002H59.8658V36.7162C59.8658 36.1722 59.7138 35.7602 59.4098 35.4802C59.1058 35.1922 58.6618 35.0482 58.0778 35.0482C57.6778 35.0482 57.2938 35.1162 56.9258 35.2522C56.5578 35.3802 56.2418 35.5602 55.9778 35.7922L55.5938 35.1562C55.9138 34.8842 56.2978 34.6762 56.7458 34.5322C57.1938 34.3802 57.6658 34.3042 58.1618 34.3042ZM57.8618 40.0522C58.3418 40.0522 58.7538 39.9442 59.0978 39.7282C59.4418 39.5042 59.6978 39.1842 59.8658 38.7682V37.7362H57.8858C56.8058 37.7362 56.2658 38.1122 56.2658 38.8642C56.2658 39.2322 56.4058 39.5242 56.6858 39.7402C56.9658 39.9482 57.3578 40.0522 57.8618 40.0522Z" fill="#666666"/>
<path d="M68.1459 34.3522V40.6642H67.2939V35.1082H64.2699L64.1859 36.6682C64.1219 37.9802 63.9699 38.9882 63.7299 39.6922C63.4899 40.3962 63.0619 40.7482 62.4459 40.7482C62.2779 40.7482 62.0739 40.7162 61.8339 40.6522L61.8939 39.9202C62.0379 39.9522 62.1379 39.9682 62.1939 39.9682C62.5219 39.9682 62.7699 39.8162 62.9379 39.5122C63.1059 39.2082 63.2179 38.8322 63.2739 38.3842C63.3299 37.9362 63.3779 37.3442 63.4179 36.6082L63.5259 34.3522H68.1459Z" fill="#666666"/>
<path d="M75.9919 34.3042C76.5839 34.3042 77.1159 34.4402 77.5879 34.7122C78.0679 34.9842 78.4439 35.3642 78.7159 35.8522C78.9879 36.3402 79.1239 36.8922 79.1239 37.5082C79.1239 38.1242 78.9879 38.6762 78.7159 39.1642C78.4439 39.6522 78.0679 40.0362 77.5879 40.3162C77.1159 40.5882 76.5839 40.7242 75.9919 40.7242C75.4319 40.7242 74.9239 40.6042 74.4679 40.3642C74.0119 40.1162 73.6399 39.7762 73.3519 39.3442C73.0719 38.9122 72.9079 38.4162 72.8599 37.8562H71.4199V40.6642H70.5679V34.3522H71.4199V37.0762H72.8719C72.9359 36.5322 73.1079 36.0522 73.3879 35.6362C73.6759 35.2122 74.0439 34.8842 74.4919 34.6522C74.9399 34.4202 75.4399 34.3042 75.9919 34.3042ZM75.9919 39.9802C76.4239 39.9802 76.8119 39.8762 77.1559 39.6682C77.5079 39.4602 77.7839 39.1682 77.9839 38.7922C78.1839 38.4162 78.2839 37.9882 78.2839 37.5082C78.2839 37.0282 78.1839 36.6002 77.9839 36.2242C77.7839 35.8482 77.5079 35.5602 77.1559 35.3602C76.8119 35.1522 76.4239 35.0482 75.9919 35.0482C75.5599 35.0482 75.1679 35.1522 74.8159 35.3602C74.4719 35.5602 74.1999 35.8482 73.9999 36.2242C73.7999 36.6002 73.6999 37.0282 73.6999 37.5082C73.6999 37.9882 73.7999 38.4162 73.9999 38.7922C74.1999 39.1682 74.4719 39.4602 74.8159 39.6682C75.1679 39.8762 75.5599 39.9802 75.9919 39.9802Z" fill="#666666"/>
<path d="M88.0067 34.3522V40.6642H87.2267V35.6722L84.6707 39.8962H84.2867L81.7307 35.6602V40.6642H80.9507V34.3522H81.8147L84.4907 38.9002L87.2147 34.3522H88.0067Z" fill="#666666"/>
<path d="M90.4312 34.3522H91.2832V39.3682L95.4952 34.3522H96.2512V40.6642H95.3992V35.6482L91.1992 40.6642H90.4312V34.3522Z" fill="#666666"/>
<path d="M98.6929 34.3522H99.5449V37.1482H103.517V34.3522H104.369V40.6642H103.517V37.8802H99.5449V40.6642H98.6929V34.3522Z" fill="#666666"/>
<path d="M106.791 34.3522H107.643V39.3682L111.855 34.3522H112.611V40.6642H111.759V35.6482L107.559 40.6642H106.791V34.3522Z" fill="#666666"/>
<path d="M120.572 37.7722H115.292C115.34 38.4282 115.592 38.9602 116.048 39.3682C116.504 39.7682 117.08 39.9682 117.776 39.9682C118.168 39.9682 118.528 39.9002 118.856 39.7642C119.184 39.6202 119.468 39.4122 119.708 39.1402L120.188 39.6922C119.908 40.0282 119.556 40.2842 119.132 40.4602C118.716 40.6362 118.256 40.7242 117.752 40.7242C117.104 40.7242 116.528 40.5882 116.024 40.3162C115.528 40.0362 115.14 39.6522 114.86 39.1642C114.58 38.6762 114.44 38.1242 114.44 37.5082C114.44 36.8922 114.572 36.3402 114.836 35.8522C115.108 35.3642 115.476 34.9842 115.94 34.7122C116.412 34.4402 116.94 34.3042 117.524 34.3042C118.108 34.3042 118.632 34.4402 119.096 34.7122C119.56 34.9842 119.924 35.3642 120.188 35.8522C120.452 36.3322 120.584 36.8842 120.584 37.5082L120.572 37.7722ZM117.524 35.0362C116.916 35.0362 116.404 35.2322 115.988 35.6242C115.58 36.0082 115.348 36.5122 115.292 37.1362H119.768C119.712 36.5122 119.476 36.0082 119.06 35.6242C118.652 35.2322 118.14 35.0362 117.524 35.0362Z" fill="#666666"/>
<path d="M126.49 37.4002C127.346 37.6002 127.774 38.1162 127.774 38.9482C127.774 39.5002 127.57 39.9242 127.162 40.2202C126.754 40.5162 126.146 40.6642 125.338 40.6642H122.47V34.3522H125.254C125.974 34.3522 126.538 34.4922 126.946 34.7722C127.354 35.0522 127.558 35.4522 127.558 35.9722C127.558 36.3162 127.462 36.6122 127.27 36.8602C127.086 37.1002 126.826 37.2802 126.49 37.4002ZM123.298 37.1602H125.194C125.682 37.1602 126.054 37.0682 126.31 36.8842C126.574 36.7002 126.706 36.4322 126.706 36.0802C126.706 35.7282 126.574 35.4642 126.31 35.2882C126.054 35.1122 125.682 35.0242 125.194 35.0242H123.298V37.1602ZM125.302 39.9922C125.846 39.9922 126.254 39.9042 126.526 39.7282C126.798 39.5522 126.934 39.2762 126.934 38.9002C126.934 38.5242 126.81 38.2482 126.562 38.0722C126.314 37.8882 125.922 37.7962 125.386 37.7962H123.298V39.9922H125.302Z" fill="#666666"/>
<path d="M132.423 36.5842C133.215 36.5922 133.819 36.7682 134.235 37.1122C134.651 37.4562 134.859 37.9522 134.859 38.6002C134.859 39.2722 134.635 39.7882 134.187 40.1482C133.739 40.5082 133.099 40.6842 132.267 40.6762L129.771 40.6642V34.3522H130.623V36.5602L132.423 36.5842ZM135.915 34.3522H136.767V40.6642H135.915V34.3522ZM132.219 40.0282C132.803 40.0362 133.243 39.9202 133.539 39.6802C133.843 39.4322 133.995 39.0722 133.995 38.6002C133.995 38.1362 133.847 37.7922 133.551 37.5682C133.255 37.3442 132.811 37.2282 132.219 37.2202L130.623 37.1962V40.0042L132.219 40.0282Z" fill="#666666"/>
<path d="M144.713 37.7722H139.433C139.481 38.4282 139.733 38.9602 140.189 39.3682C140.645 39.7682 141.221 39.9682 141.917 39.9682C142.309 39.9682 142.669 39.9002 142.997 39.7642C143.325 39.6202 143.609 39.4122 143.849 39.1402L144.329 39.6922C144.049 40.0282 143.697 40.2842 143.273 40.4602C142.857 40.6362 142.397 40.7242 141.893 40.7242C141.245 40.7242 140.669 40.5882 140.165 40.3162C139.669 40.0362 139.281 39.6522 139.001 39.1642C138.721 38.6762 138.581 38.1242 138.581 37.5082C138.581 36.8922 138.713 36.3402 138.977 35.8522C139.249 35.3642 139.617 34.9842 140.081 34.7122C140.553 34.4402 141.081 34.3042 141.665 34.3042C142.249 34.3042 142.773 34.4402 143.237 34.7122C143.701 34.9842 144.065 35.3642 144.329 35.8522C144.593 36.3322 144.725 36.8842 144.725 37.5082L144.713 37.7722ZM141.665 35.0362C141.057 35.0362 140.545 35.2322 140.129 35.6242C139.721 36.0082 139.489 36.5122 139.433 37.1362H143.909C143.853 36.5122 143.617 36.0082 143.201 35.6242C142.793 35.2322 142.281 35.0362 141.665 35.0362Z" fill="#666666"/>
<path d="M152.044 37.8562H150.604V40.6642H149.752V34.3522H150.604V37.1242H152.056L154.275 34.3522H155.2L152.715 37.4122L155.38 40.6642H154.371L152.044 37.8562Z" fill="#666666"/>
<path d="M159.105 40.7242C158.497 40.7242 157.95 40.5882 157.462 40.3162C156.974 40.0362 156.59 39.6522 156.31 39.1642C156.03 38.6762 155.89 38.1242 155.89 37.5082C155.89 36.8922 156.03 36.3402 156.31 35.8522C156.59 35.3642 156.974 34.9842 157.462 34.7122C157.95 34.4402 158.497 34.3042 159.105 34.3042C159.714 34.3042 160.261 34.4402 160.749 34.7122C161.237 34.9842 161.618 35.3642 161.89 35.8522C162.17 36.3402 162.31 36.8922 162.31 37.5082C162.31 38.1242 162.17 38.6762 161.89 39.1642C161.618 39.6522 161.237 40.0362 160.749 40.3162C160.261 40.5882 159.714 40.7242 159.105 40.7242ZM159.105 39.9682C159.553 39.9682 159.954 39.8682 160.306 39.6682C160.666 39.4602 160.946 39.1682 161.146 38.7922C161.345 38.4162 161.446 37.9882 161.446 37.5082C161.446 37.0282 161.345 36.6002 161.146 36.2242C160.946 35.8482 160.666 35.5602 160.306 35.3602C159.954 35.1522 159.553 35.0482 159.105 35.0482C158.658 35.0482 158.254 35.1522 157.894 35.3602C157.542 35.5602 157.261 35.8482 157.053 36.2242C156.854 36.6002 156.754 37.0282 156.754 37.5082C156.754 37.9882 156.854 38.4162 157.053 38.7922C157.261 39.1682 157.542 39.4602 157.894 39.6682C158.254 39.8682 158.658 39.9682 159.105 39.9682Z" fill="#666666"/>
<path d="M164.13 34.3522H164.982V37.1482H168.954V34.3522H169.806V40.6642H168.954V37.8802H164.982V40.6642H164.13V34.3522Z" fill="#666666"/>
<path d="M174.868 40.7242C174.244 40.7242 173.684 40.5882 173.188 40.3162C172.7 40.0442 172.316 39.6642 172.036 39.1762C171.756 38.6802 171.616 38.1242 171.616 37.5082C171.616 36.8922 171.756 36.3402 172.036 35.8522C172.316 35.3642 172.7 34.9842 173.188 34.7122C173.684 34.4402 174.244 34.3042 174.868 34.3042C175.412 34.3042 175.896 34.4122 176.32 34.6282C176.752 34.8362 177.092 35.1442 177.34 35.5522L176.704 35.9842C176.496 35.6722 176.232 35.4402 175.912 35.2882C175.592 35.1282 175.244 35.0482 174.868 35.0482C174.412 35.0482 174 35.1522 173.632 35.3602C173.272 35.5602 172.988 35.8482 172.78 36.2242C172.58 36.6002 172.48 37.0282 172.48 37.5082C172.48 37.9962 172.58 38.4282 172.78 38.8042C172.988 39.1722 173.272 39.4602 173.632 39.6682C174 39.8682 174.412 39.9682 174.868 39.9682C175.244 39.9682 175.592 39.8922 175.912 39.7402C176.232 39.5882 176.496 39.3562 176.704 39.0442L177.34 39.4762C177.092 39.8842 176.752 40.1962 176.32 40.4122C175.888 40.6202 175.404 40.7242 174.868 40.7242Z" fill="#666666"/>
<path d="M183.313 35.1082H180.925V40.6642H180.073V35.1082H177.685V34.3522H183.313V35.1082Z" fill="#666666"/>
<path d="M187.796 34.3042C188.388 34.3042 188.924 34.4402 189.404 34.7122C189.884 34.9762 190.26 35.3522 190.532 35.8402C190.804 36.3282 190.94 36.8842 190.94 37.5082C190.94 38.1402 190.804 38.7002 190.532 39.1882C190.26 39.6762 189.884 40.0562 189.404 40.3282C188.932 40.5922 188.396 40.7242 187.796 40.7242C187.284 40.7242 186.82 40.6202 186.404 40.4122C185.996 40.1962 185.66 39.8842 185.396 39.4762V42.9922H184.544V34.3522H185.36V35.6002C185.616 35.1842 185.952 34.8642 186.368 34.6402C186.792 34.4162 187.268 34.3042 187.796 34.3042ZM187.736 39.9682C188.176 39.9682 188.576 39.8682 188.936 39.6682C189.296 39.4602 189.576 39.1682 189.776 38.7922C189.984 38.4162 190.088 37.9882 190.088 37.5082C190.088 37.0282 189.984 36.6042 189.776 36.2362C189.576 35.8602 189.296 35.5682 188.936 35.3602C188.576 35.1522 188.176 35.0482 187.736 35.0482C187.288 35.0482 186.884 35.1522 186.524 35.3602C186.172 35.5682 185.892 35.8602 185.684 36.2362C185.484 36.6042 185.384 37.0282 185.384 37.5082C185.384 37.9882 185.484 38.4162 185.684 38.7922C185.892 39.1682 186.172 39.4602 186.524 39.6682C186.884 39.8682 187.288 39.9682 187.736 39.9682Z" fill="#666666"/>
<path d="M197.959 34.3522L194.803 41.4202C194.547 42.0122 194.251 42.4322 193.915 42.6802C193.579 42.9282 193.175 43.0522 192.703 43.0522C192.399 43.0522 192.115 43.0042 191.851 42.9082C191.587 42.8122 191.359 42.6682 191.167 42.4762L191.563 41.8402C191.883 42.1602 192.267 42.3202 192.715 42.3202C193.003 42.3202 193.247 42.2402 193.447 42.0802C193.655 41.9202 193.847 41.6482 194.023 41.2642L194.299 40.6522L191.479 34.3522H192.367L194.743 39.7162L197.119 34.3522H197.959Z" fill="#666666"/>
<path d="M201.579 37.8562H200.139V40.6642H199.287V34.3522H200.139V37.1242H201.591L203.811 34.3522H204.735L202.251 37.4122L204.915 40.6642H203.907L201.579 37.8562Z" fill="#666666"/>
<path d="M212.835 39.9202V42.2482H212.031V40.6642H206.259V34.3522H207.111V39.9202H210.963V34.3522H211.815V39.9202H212.835Z" fill="#666666"/>
<path d="M214.462 34.3522H215.314V39.3682L219.526 34.3522H220.282V40.6642H219.43V35.6482L215.23 40.6642H214.462V34.3522Z" fill="#666666"/>
<path d="M222.724 34.3522H223.576V39.3682L227.788 34.3522H228.544V40.6642H227.692V35.6482L223.492 40.6642H222.724V34.3522Z" fill="#666666"/>
<path d="M54.8054 9.35938H58.3647C61.0273 9.35938 62.0923 9.58174 63.1573 10.2766C64.3624 11.0827 65.0351 12.3892 65.0351 13.9457C65.0351 15.5857 64.5026 16.4752 63.1012 17.1979C64.2503 17.6704 64.7828 18.004 65.2593 18.6989C65.7638 19.3938 66.0721 20.3945 66.0721 21.4785C66.0721 23.2853 65.2032 24.8697 63.6898 25.7313C62.6248 26.3429 61.2795 26.6208 59.4017 26.6208H54.7773V9.35938H54.8054ZM59.0654 15.9749C61.0273 15.9749 61.84 15.4467 61.84 14.1959C61.84 13.0007 61.0273 12.4448 59.3457 12.4448H58.0284V15.9749H59.0654ZM59.6259 23.5076C61.8681 23.5076 62.849 22.8683 62.849 21.3395C62.849 19.8385 61.784 19.1158 59.5699 19.1158H58.0565V23.5076H59.6259Z" fill="#020927"/>
<path d="M82.608 9.35938V26.593H79.413V14.6684L71.8738 26.593H68.5947V9.35938H71.7898V21.2839L79.3289 9.35938H82.608Z" fill="#020927"/>
<path d="M87.6527 12.3891H84.4297V9.33154H94.0988V12.3891H90.8758V26.5652H87.6527V12.3891Z" fill="#020927"/>
<path d="M95.9206 9.35938H100.209C102.591 9.35938 103.768 9.58174 104.777 10.2489C106.178 11.1661 106.991 12.7505 106.991 14.6684C106.991 16.7254 106.066 18.4765 104.581 19.3382C103.628 19.8385 102.535 20.0331 100.153 20.0331H99.1156V26.593H95.8926V9.35938H95.9206ZM100.069 16.9755C101.021 16.9755 101.75 16.8921 102.283 16.7532C103.208 16.503 103.768 15.7247 103.768 14.7518C103.768 13.6678 103.208 12.8339 102.255 12.5837C101.75 12.4725 101.274 12.417 100.209 12.417H99.1156V16.9755H100.069Z" fill="#020927"/>
<path d="M112.848 9.35938H115.398L122.685 26.593H119.126L117.276 22.1456H111.11L109.177 26.593H105.617L112.848 9.35938ZM115.987 19.0602L114.137 13.8346L112.288 19.0602H115.987Z" fill="#020927"/>
<path d="M140.175 9.35938H144.014L138.213 17.8094L144.014 26.5652H140.175L135.158 18.5321V26.5652H131.935V18.5321L126.946 26.5652H123.106L128.908 17.8094L123.106 9.35938H126.946L131.963 17.2535V9.35938H135.186V17.2535L140.175 9.35938Z" fill="#020927"/>
<path d="M145.976 9.35938H158.28V26.593H155.057V12.417H149.171V26.593H145.948V9.35938H145.976Z" fill="#020927"/>
<path d="M161.616 9.35938H165.904C168.286 9.35938 169.463 9.58174 170.472 10.2489C171.874 11.1661 172.686 12.7505 172.686 14.6684C172.686 16.7254 171.762 18.4765 170.276 19.3382C169.323 19.8385 168.23 20.0331 165.848 20.0331H164.811V26.593H161.588V9.35938H161.616ZM165.764 16.9755C166.717 16.9755 167.445 16.8921 167.978 16.7532C168.903 16.503 169.463 15.7247 169.463 14.7518C169.463 13.6678 168.903 12.8339 167.95 12.5837C167.445 12.4725 166.969 12.417 165.904 12.417H164.811V16.9755H165.764Z" fill="#020927"/>
<path d="M192.36 17.9485C192.36 22.9796 188.465 26.8711 183.42 26.8711C178.319 26.8711 174.283 22.9518 174.283 17.9763C174.283 12.9452 178.291 9.05371 183.476 9.05371C188.381 9.05371 192.36 13.0286 192.36 17.9485ZM177.506 17.9485C177.506 21.2284 180.085 23.7857 183.392 23.7857C186.671 23.7857 189.137 21.3118 189.137 17.9763C189.137 14.5852 186.643 12.1113 183.252 12.1113C180.057 12.1113 177.506 14.6963 177.506 17.9485Z" fill="#020927"/>
<path d="M194.854 9.35938H204.186V12.417H198.077V16.4752H203.934V19.5328H198.077V23.5354H204.186V26.593H194.854V9.35938Z" fill="#020927"/>
<path d="M207.186 9.35938H210.409V16.781L215.79 9.35938H219.657L213.127 17.8094L219.657 26.5652H215.79L210.409 19.0047V26.5652H207.186V9.35938Z" fill="#020927"/>
<path d="M223.329 12.3891H220.105V9.33154H229.775V12.3891H226.552V26.5652H223.329V12.3891Z" fill="#020927"/>
</svg>
